<?xml version="1.0" encoding="UTF-8"?>
<svg xmlns="http://www.w3.org/2000/svg" xmlns:xlink="http://www.w3.org/1999/xlink" viewBox="0 0 162.71 180.1">
  <defs>
    <style>
      .cls-1 {
        fill: none;
      }

      .cls-2 {
        clip-path: url(#clippath);
      }

      .cls-3 {
        fill: #f7941d;
      }

      .cls-4, .cls-5 {
        fill: #fff;
      }

      .cls-6 {
        fill: #f386ae;
      }

      .cls-7, .cls-8, .cls-9 {
        fill: #fbb040;
      }

      .cls-10 {
        fill: #fecd8a;
      }

      .cls-11 {
        fill: #be1e2d;
      }

      .cls-12, .cls-13 {
        fill: #da1c5c;
      }

      .cls-14, .cls-15 {
        fill: #231f20;
      }

      .cls-16, .cls-17 {
        fill: #754c29;
      }

      .cls-8, .cls-15, .cls-17, .cls-13 {
        stroke-width: 2px;
      }

      .cls-8, .cls-15, .cls-17, .cls-13, .cls-9, .cls-18 {
        stroke-miterlimit: 10;
      }

      .cls-8, .cls-17, .cls-9, .cls-18 {
        stroke: #231f20;
      }

      .cls-15 {
        stroke: #000;
      }

      .cls-13 {
        stroke: #da1c5c;
      }

      .cls-19 {
        fill: #949498;
        mix-blend-mode: multiply;
        opacity: .75;
      }

      .cls-18 {
        fill: #1c75bc;
      }

      .cls-20 {
        isolation: isolate;
      }

      .cls-5 {
        opacity: .5;
      }
    </style>
    <clipPath id="clippath">
      <circle class="cls-1" cx="82.04" cy="74.79" r="58.96"/>
    </clipPath>
  </defs>
  <g class="cls-20">
    <g id="Layer_1" data-name="Layer 1">
      <circle class="cls-6" cx="82.04" cy="74.79" r="58.96"/>
      <g id="angry_bird" data-name="angry bird">
        <path d="M135.06,57.48l-2.03,5.57c-.08,.21-.27,.35-.49,.35-.75,.01-1.45,.47-1.74,1.25l-.64,1.32c-.14,.29,0,.66,.29,.8,.26,.12,.54,.02,.66-.23l.65-1.35v-.02c.14-.32,.41-.55,.72-.61l-.8,2.19c-.1,.28,.03,.62,.31,.74,.27,.13,.58,0,.68-.28l.81-2.21c.19,.29,.25,.66,.13,.99l-.4,1.52c-.07,.28,.07,.58,.32,.7,.29,.14,.62-.02,.7-.34l.37-1.45c.29-.81,.06-1.73-.51-2.34-.13-.14-.16-.35-.09-.53l2.08-5.71c.1-.26-.03-.56-.28-.68h0c-.29-.14-.63,0-.74,.31Z"/>
        <path d="M129.67,54.97l-2.96,5.14c-.11,.19-.09,.43,.04,.6,.48,.59,.57,1.41,.17,2.14l-.6,1.34c-.13,.29-.5,.43-.8,.29-.26-.12-.36-.4-.25-.66l.61-1.36v-.02c.17-.31,.17-.66,.02-.94l-1.16,2.02c-.15,.26-.49,.37-.77,.24-.27-.13-.37-.44-.22-.7l1.17-2.04c-.34,.04-.67,.23-.84,.54l-.91,1.28c-.17,.23-.49,.32-.74,.2-.29-.14-.38-.49-.19-.75l.87-1.22c.44-.74,1.29-1.15,2.12-1.11,.19,0,.37-.1,.47-.27l3.04-5.26c.14-.24,.44-.34,.7-.22h0c.29,.13,.4,.49,.24,.76Z"/>
        <path d="M114.14,49.81s0,0,0,0c0,0,0,0,0,0h0c.49-2.66,2.71-5.77,6.09-8.15,.79-.56,1.6-1.04,2.41-1.45,1.37-1.29,2.83-2.31,4.27-3.03,1.86-1.79,3.89-2.94,5.7-3.29h0s0,0,0,0c0,0,0,0,0,0h0c.45,2.67-1.22,5.9-3.58,9.29-2.36,3.39-5.39,3.6-7.47,6.59h0s0,0,0,0c0,0,0,0,0,0h0c-.12-.74-.13-1.56-.03-2.43-1.36,.58-2.69,1.15-3.91,2.37h0s0,0,0,0c0,0,0,0,0,0h0c0-.45,.06-.93,.15-1.42-1.22,.29-2.42,.66-3.63,1.51h0Z"/>
        <path d="M151.07,29.68c-.75-1.68-2.77-2.4-4.52-1.62-.87,.39-1.21,1.18-1.68,1.87l-.04,.02c.12-.74,.3-1.48-.05-2.26-.78-1.74-2.77-2.54-4.45-1.79-.17,.08-.56,.1-.48,.27,.68,1.51,3.23,.4,3.93,1.97,.5,1.12,.38,2.35-.22,3.28-.62,.55-1.17,1.16-1.67,1.8l2.28-1.02,.37,.83-.12,1.16c.13-.2,.25-.4,.37-.6l.24,.53c.02-.34,.03-.68,.02-1.02,.09-.17,.18-.34,.26-.52,.53-.64,1.37-1.02,2.29-.93,1.28,.13,1.09,2.21,2.33,2.33,.14,.01,.07-.27,.08-.41,.14-1.37-.9-2.6-2.32-2.75-.71-.07-1.23,.31-1.79,.58h-.04s-.86,.39-.86,.39c0-.05,0-.1,0-.15,.18-1.1,.9-2.1,2.02-2.6,1.56-.7,2.73,1.82,4.24,1.14,.17-.08-.1-.35-.18-.52Z"/>
        <path d="M134.29,63.54l-8.79-4.12c-6.19-2.9-8.72-10.18-5.47-15.77l4.32-7.42c3.61-6.21,11.68-8.5,18.56-5.27l2.15,1.01c6.88,3.23,10.28,10.9,7.81,17.64l-2.95,8.07c-2.22,6.07-9.43,8.78-15.63,5.88Z"/>
        <path class="cls-7" d="M136.01,47.95c-1.05-.49-2.38,.13-2.97,1.38l.55,3.22c.03,.2,.25,.32,.44,.23l3.19-1.49c.59-1.26,.05-2.75-1.21-3.34Z"/>
        <g>
          <ellipse class="cls-4" cx="144.42" cy="46.22" rx="7.07" ry="5.53" transform="translate(41.5 157.57) rotate(-65)"/>
          <circle cx="144.42" cy="46.22" r="1.46" transform="translate(41.5 157.57) rotate(-65)"/>
        </g>
        <g>
          <ellipse class="cls-4" cx="131.98" cy="40.64" rx="7.07" ry="5.53" transform="translate(39.37 143.08) rotate(-65)"/>
          <circle cx="131.98" cy="40.64" r="1.46" transform="translate(39.37 143.08) rotate(-65)"/>
        </g>
        <path d="M149,41.68s0,0,0,0c0,0,0,0,0,0h0c1.72,2.09,2.68,5.79,2.33,9.91-.08,.97-.23,1.89-.44,2.78,.11,1.88-.05,3.66-.43,5.22,.17,2.57-.24,4.87-1.14,6.48h0s0,0,0,0c0,0,0,0,0,0h0c-2.33-1.37-3.73-4.73-4.81-8.72-1.08-3.99,.71-6.44-.24-9.95h0s0,0,0,0c0,0,0,0,0,0h0c.65,.38,1.28,.9,1.88,1.54,.44-1.42,.85-2.8,.69-4.52h0s0,0,0,0c0,0,0,0,0,0h0c.34,.3,.67,.64,.99,1.03,.56-1.13,1.05-2.28,1.18-3.75h0Z"/>
      </g>
      <g id="sagittarius">
        <g class="cls-2">
          <ellipse class="cls-19" cx="81.6" cy="174.57" rx="33.17" ry="5.53"/>
          <path class="cls-14" d="M73.47,137.8s-6.82-10.83-13.54,15.49l4.17,1.14s2.11-23.35,8.4-15.49l.98-1.14Z"/>
          <g>
            <path class="cls-17" d="M75.62,147.2l-.09-.02c-.68-1.74-2.21-3.1-4.19-3.45-3.01-.53-5.87,1.48-6.4,4.48s1.48,5.87,4.48,6.4c.18,.03,.35,.05,.53,.07l-1.24,12.76,2.74,.48,4.85-19.68c.12-.48-.2-.96-.68-1.05Z"/>
            <path class="cls-16" d="M75.7,143.41l-3.09-.54h0s-.02,0-.03,0c-3.08-.54-6.01,1.51-6.55,4.59-.54,3.08,1.51,6.01,4.59,6.55,0,0,.02,0,.03,0h0s1.15,.2,1.15,.2c.37,.32,.81,.55,1.32,.64,.02,0,.03,0,.05,0h0s2.53,.45,2.53,.45l.1-.39h.02s2.11-8.3,2.11-8.3c.31-1.47-.68-2.93-2.22-3.2Z"/>
            <path class="cls-15" d="M70.76,167.42h-1.47c-.38,0-.73,.24-.86,.6l-.99,2.69c-.22,.6,.22,1.23,.86,1.23h3.29c.62,0,1.06-.6,.88-1.19l-.83-2.69c-.12-.38-.47-.65-.88-.65Z"/>
          </g>
          <g>
            <path class="cls-17" d="M87.59,147.2l.09-.02c.68-1.74,2.21-3.1,4.19-3.45,3.01-.53,5.87,1.48,6.4,4.48s-1.48,5.87-4.48,6.4c-.18,.03-.35,.05-.53,.07l1.24,12.76-2.74,.48-4.85-19.68c-.12-.48,.2-.96,.68-1.05Z"/>
            <path class="cls-16" d="M87.51,143.41l3.09-.54h0s.02,0,.03,0c3.08-.54,6.01,1.51,6.55,4.59,.54,3.08-1.51,6.01-4.59,6.55,0,0-.02,0-.03,0h0s-1.15,.2-1.15,.2c-.37,.32-.81,.55-1.32,.64-.02,0-.03,0-.05,0h0s-2.53,.45-2.53,.45l-.1-.39h-.02s-2.11-8.3-2.11-8.3c-.31-1.47,.68-2.93,2.22-3.2Z"/>
            <path class="cls-15" d="M92.44,167.42h1.47c.38,0,.73,.24,.86,.6l.99,2.69c.22,.6-.22,1.23-.86,1.23h-3.29c-.62,0-1.06-.6-.88-1.19l.83-2.69c.12-.38,.47-.65,.88-.65Z"/>
          </g>
          <g>
            <path class="cls-7" d="M94.75,131.9c-2.64-12.5-8.29-21.78-13.15-22.1h0s0,0,0,0c0,0,0,0,0,0h0c-4.86,.33-10.5,9.61-13.15,22.1-1.32,6.26-2.38,15.21-.81,20.59,1.94,6.65,7.28,11.31,13.95,12.2h0s0,0,0,0c0,0,0,0,0,0h0c6.67-.88,12.02-5.55,13.95-12.2,1.57-5.38,.51-14.33-.81-20.59Z"/>
            <path d="M94.75,131.9s-.12-.53-.31-1.34c-.17-.82-.48-1.91-.85-3.05-.74-2.29-2.22-4.53-2.72-5.33-.46-.83-.74-1.21-.85-1.42l-.12-.2c-.3-.51-.63-.99-.96-1.48-.31-.5-.65-.96-.98-1.44-.32-.48-.68-.92-.97-1.41-.28-.5-.61-.94-.93-1.4-.68-.86-1.41-1.69-2.21-2.3-.78-.62-1.64-1.06-2.34-1.1-.87-.04-1.54-.76-1.55-1.62v-.03s0,0,0,0l1.78,1.65h0c-.08,.01-.17,0-.25,0h0s1.78-1.65,1.78-1.65h0c0,.87-.67,1.58-1.51,1.65h-.03c-.83,.07-1.83,.63-2.72,1.42-.89,.82-1.71,1.82-2.46,2.88-1.47,2.17-2.65,4.62-3.64,7.13-1.97,5.06-3.16,10.45-3.83,15.89-.32,2.72-.51,5.45-.42,8.12,.04,1.33,.17,2.65,.41,3.89,.24,1.22,.66,2.43,1.19,3.58,1.06,2.29,2.7,4.28,4.7,5.78,2.01,1.49,4.41,2.41,6.89,2.75h0c.91,.13,1.56,.9,1.56,1.79h0s-2.08-1.79-2.08-1.79h0c.18-.03,.36-.03,.52,0h.01s0,0,0,0l-2.08,1.79h0c0-.91,.68-1.67,1.56-1.79h.02c2.11-.3,4.15-1.02,5.94-2.15,1.79-1.13,3.33-2.66,4.49-4.44,.57-.9,1.09-1.84,1.46-2.84,.22-.49,.35-1.01,.52-1.52,.12-.51,.26-1.01,.33-1.55,.08-.53,.09-1.09,.2-1.63,.09-.55,.21-1.1,.28-1.67,.18-1.13,.34-2.28,.47-3.45,.45-1.94,.62-3.94,.53-5.91-.09-1.97-.44-3.91-.84-5.84,.41,1.98,.76,3.96,1.19,5.95,.43,1.99,.95,3.97,1.47,6.01,.18,1.2,.36,2.41,.41,3.65,.03,.61,.04,1.24,.01,1.87-.06,.63-.17,1.25-.31,1.88-.24,1.27-.6,2.53-1.1,3.7-.47,1.2-1.09,2.34-1.8,3.41-1.43,2.16-3.33,4.01-5.53,5.38-2.2,1.38-4.71,2.25-7.27,2.61l1.47-1.67h0v.04c0,.92-.74,1.66-1.66,1.66-.09,0-.19,0-.28-.02h0s.5,0,.5,0h0c-.9,.16-1.75-.44-1.91-1.34-.02-.09-.02-.19-.03-.28v-.05s0,0,0,0l1.47,1.67c-3.05-.41-6.02-1.56-8.51-3.41-2.48-1.85-4.5-4.32-5.79-7.11-.64-1.4-1.15-2.85-1.45-4.38-.3-1.51-.43-2.99-.48-4.46-.1-2.94,.11-5.81,.45-8.66,.7-5.68,1.94-11.33,4.05-16.75,1.07-2.7,2.33-5.35,4.01-7.84,.87-1.23,1.83-2.43,3.02-3.52,1.21-1.04,2.73-2.09,4.8-2.28l-1.72,1.84h0v-.09c0-.97,.79-1.76,1.76-1.76,.07,0,.15,0,.21,.01h0s-.28,0-.28,0h0c.96-.12,1.84,.56,1.96,1.52,0,.07,.01,.14,.01,.21v.1s0,0,0,0l-1.72-1.84c1.94,.16,3.41,1.1,4.56,2.07,1.16,.99,2.12,2.09,2.95,3.23,.45,.55,.85,1.13,1.2,1.74,.34,.61,.59,1.26,.87,1.89,.51,1.28,.92,2.59,1.25,3.91,.29,1.94,.63,3.8,.99,5.65l1.21,5.46Z"/>
          </g>
          <g>
            <path class="cls-15" d="M66.29,139.04l-1.87-1.01-1.9,1.67c-.42,.37-.35,1.05,.15,1.32l2.03,1.1c.44,.24,.98-.02,1.08-.51l.51-2.56Z"/>
            <g>
              <g>
                <path class="cls-11" d="M56.16,135.75c-.1-.06-.14-.2-.08-.3,.04-.07,.11-.11,.19-.11,.04,0,.07,0,.11,.03l15.46,8.66-.49,.83-15.18-9.12Z"/>
                <path class="cls-14" d="M57.27,136.16l14.22,7.97-.23,.4-13.99-8.36m-1-1.06c-.16,0-.32,.08-.4,.23-.13,.22-.06,.51,.16,.64l15.4,9.25,.75-1.27-15.68-8.78c-.07-.04-.15-.06-.23-.06h0Z"/>
              </g>
              <g>
                <path class="cls-11" d="M56.69,134.83c-.11-.05-.15-.18-.1-.29,.04-.07,.11-.12,.2-.12l16.11,7.58-.43,.87-15.78-8.04Z"/>
                <path class="cls-14" d="M57.82,135.16l14.75,6.96-.2,.41-14.54-7.37m-1.03-.99c-.17,0-.34,.1-.42,.26-.11,.23-.02,.51,.21,.62l16.01,8.15,.66-1.32-16.25-7.67c-.06-.03-.13-.04-.2-.04h0Z"/>
              </g>
            </g>
            <g>
              <polygon class="cls-8" points="67.3 138.69 64.89 137.3 70.95 123.39 76.02 126.31 67.3 138.69"/>
              <path class="cls-7" d="M75.92,122.37s.04,.02,.06,.03c1.32,.76,1.78,2.45,1.02,3.77s-2.45,1.78-3.77,1.02h0s-2.57-1.47-2.57-1.47l2.22-5.1,3.05,1.76Z"/>
              <path class="cls-15" d="M67.49,138.51l-2.42-1.39-2.54,2.12c-.57,.47-.49,1.36,.15,1.73l2.61,1.5c.57,.33,1.29,.01,1.43-.63l.76-3.33Z"/>
            </g>
          </g>
          <g>
            <polygon class="cls-8" points="85.64 172.21 88.42 172.21 90.09 157.13 84.24 157.13 85.64 172.21"/>
            <ellipse class="cls-7" cx="87.13" cy="152.91" rx="4.61" ry="8.29"/>
            <path class="cls-15" d="M85.65,171.96h2.79s1.14,3.1,1.14,3.1c.26,.69-.26,1.43-.99,1.43h-3.01c-.65,0-1.12-.63-.93-1.26l1.01-3.27Z"/>
          </g>
          <g>
            <polygon class="cls-8" points="74.58 172.21 77.37 172.21 79.04 157.13 73.19 157.13 74.58 172.21"/>
            <ellipse class="cls-7" cx="76.07" cy="152.91" rx="4.61" ry="8.29"/>
            <path class="cls-15" d="M74.59,171.96h2.79s1.14,3.1,1.14,3.1c.26,.69-.26,1.43-.99,1.43h-3.01c-.65,0-1.12-.63-.93-1.26l1.01-3.27Z"/>
          </g>
          <g>
            <g>
              <g>
                <path class="cls-4" d="M87.32,135.91c-.12,0-.23-.03-.33-.09l-.55-.32c-.16-.09-.27-.23-.31-.41-.05-.17-.02-.35,.07-.51l1.05-1.82c.12-.21,.34-.34,.58-.34,.12,0,.23,.03,.33,.09l.55,.32c.16,.09,.27,.23,.31,.41,.05,.17,.02,.35-.07,.51l-1.05,1.82c-.12,.21-.34,.34-.58,.34Z"/>
                <path class="cls-14" d="M87.82,132.68c.07,0,.14,.02,.21,.06l.55,.32c.2,.12,.27,.37,.15,.58l-1.05,1.82c-.08,.14-.22,.21-.37,.21-.07,0-.14-.02-.21-.06l-.55-.32c-.2-.12-.27-.37-.15-.58l1.05-1.82c.08-.14,.22-.21,.37-.21m0-.5h0c-.33,0-.63,.18-.8,.46l-1.05,1.82c-.12,.21-.16,.46-.09,.7,.06,.24,.22,.44,.43,.56l.55,.32c.14,.08,.3,.12,.46,.12,.33,0,.63-.18,.8-.46l1.05-1.82c.12-.21,.16-.46,.09-.7-.06-.24-.22-.44-.43-.56l-.55-.32c-.14-.08-.3-.12-.46-.12h0Z"/>
              </g>
              <g>
                <path class="cls-4" d="M87.91,137.96c-.12,0-.23-.03-.33-.09l-.55-.32c-.32-.19-.43-.6-.25-.92l1.05-1.82c.12-.21,.34-.34,.58-.34,.12,0,.23,.03,.33,.09l.55,.32c.32,.19,.43,.6,.25,.92l-1.05,1.82c-.12,.21-.34,.34-.58,.34Z"/>
                <path class="cls-14" d="M88.42,134.73c.07,0,.14,.02,.21,.06l.55,.32c.2,.12,.27,.37,.15,.58l-1.05,1.82c-.08,.14-.22,.21-.37,.21-.07,0-.14-.02-.21-.06l-.55-.32c-.2-.12-.27-.37-.15-.58l1.05-1.82c.08-.14,.22-.21,.37-.21m0-.5h0c-.33,0-.63,.18-.8,.46l-1.05,1.82c-.12,.21-.16,.46-.09,.7,.06,.24,.22,.44,.43,.56l.55,.32c.14,.08,.3,.12,.46,.12,.33,0,.63-.18,.8-.46l1.05-1.82c.12-.21,.16-.46,.09-.7-.06-.24-.22-.44-.43-.56l-.55-.32c-.14-.08-.3-.12-.46-.12h0Z"/>
              </g>
              <g>
                <path class="cls-4" d="M88.51,140.01c-.12,0-.23-.03-.33-.09l-.55-.32c-.32-.19-.43-.6-.25-.92l1.05-1.82c.12-.21,.34-.34,.58-.34,.12,0,.23,.03,.33,.09l.55,.32c.32,.19,.43,.6,.25,.92l-1.05,1.82c-.12,.21-.34,.34-.58,.34Z"/>
                <path class="cls-14" d="M89.02,136.77c.07,0,.14,.02,.21,.06l.55,.32c.2,.12,.27,.37,.15,.58l-1.05,1.82c-.08,.14-.22,.21-.37,.21-.07,0-.14-.02-.21-.06l-.55-.32c-.2-.12-.27-.37-.15-.58l1.05-1.82c.08-.14,.22-.21,.37-.21m0-.5c-.33,0-.63,.18-.8,.46l-1.05,1.82c-.12,.21-.16,.46-.09,.7,.06,.24,.22,.44,.43,.56l.55,.32c.14,.08,.3,.12,.46,.12,.33,0,.63-.18,.8-.46l1.05-1.82c.12-.21,.16-.46,.09-.7-.06-.24-.22-.44-.43-.56l-.55-.32c-.14-.08-.3-.12-.46-.12h0Z"/>
              </g>
              <g>
                <path class="cls-4" d="M89.11,142.05c-.12,0-.23-.03-.34-.09l-.55-.32c-.32-.19-.43-.6-.25-.92l1.05-1.82c.12-.21,.34-.33,.58-.33,.12,0,.23,.03,.34,.09l.55,.31c.32,.19,.43,.6,.25,.92l-1.05,1.82c-.12,.21-.34,.33-.58,.33Z"/>
                <path class="cls-14" d="M89.61,138.82c.07,0,.14,.02,.21,.06l.55,.32c.2,.12,.27,.37,.15,.58l-1.05,1.82c-.08,.14-.22,.21-.37,.21-.07,0-.14-.02-.21-.06l-.55-.32c-.2-.12-.27-.37-.15-.58l1.05-1.82c.08-.14,.22-.21,.37-.21m0-.5h0c-.33,0-.63,.18-.8,.46l-1.05,1.82c-.12,.21-.16,.46-.09,.7,.06,.24,.22,.44,.43,.56l.55,.32c.14,.08,.3,.12,.46,.12,.33,0,.63-.18,.8-.46l1.05-1.82c.12-.21,.16-.46,.09-.7-.06-.24-.22-.44-.43-.56l-.55-.32c-.14-.08-.3-.12-.46-.12h0Z"/>
              </g>
            </g>
            <g>
              <g>
                <path class="cls-4" d="M81.16,135.07c-.12,0-.23-.03-.33-.09l-.55-.32c-.32-.19-.43-.6-.25-.92l1.05-1.82c.12-.21,.34-.34,.58-.34,.12,0,.23,.03,.34,.09l.55,.32c.16,.09,.27,.24,.31,.41,.05,.17,.02,.35-.07,.51l-1.05,1.82c-.12,.21-.34,.34-.58,.34Z"/>
                <path class="cls-14" d="M81.67,131.84c.07,0,.14,.02,.21,.06l.55,.32c.2,.12,.27,.37,.15,.58l-1.05,1.82c-.08,.14-.22,.21-.37,.21-.07,0-.14-.02-.21-.06l-.55-.32c-.2-.12-.27-.37-.15-.58l1.05-1.82c.08-.14,.22-.21,.37-.21m0-.5c-.33,0-.63,.18-.8,.46l-1.05,1.82c-.12,.21-.16,.46-.09,.7,.06,.24,.22,.44,.43,.56l.55,.32c.14,.08,.3,.12,.46,.12,.33,0,.63-.18,.8-.46l1.05-1.82c.12-.21,.16-.46,.09-.7-.06-.24-.22-.44-.43-.56l-.55-.32c-.14-.08-.3-.12-.46-.12h0Z"/>
              </g>
              <g>
                <path class="cls-4" d="M81.76,137.12c-.12,0-.23-.03-.34-.09l-.55-.32c-.16-.09-.27-.24-.31-.41-.05-.17-.02-.35,.07-.51l1.05-1.82c.12-.21,.34-.34,.58-.34,.12,0,.23,.03,.34,.09l.55,.32c.32,.19,.43,.6,.25,.92l-1.05,1.82c-.12,.21-.34,.34-.58,.34Z"/>
                <path class="cls-14" d="M82.27,133.89c.07,0,.14,.02,.21,.06l.55,.32c.2,.12,.27,.37,.15,.58l-1.05,1.82c-.08,.14-.22,.21-.37,.21-.07,0-.14-.02-.21-.06l-.55-.32c-.2-.12-.27-.37-.15-.58l1.05-1.82c.08-.14,.22-.21,.37-.21m0-.5h0c-.33,0-.63,.18-.8,.46l-1.05,1.82c-.25,.44-.1,1,.34,1.26l.55,.32c.14,.08,.3,.12,.46,.12,.33,0,.63-.18,.8-.46l1.05-1.82c.12-.21,.16-.46,.09-.7s-.22-.44-.43-.56l-.55-.32c-.14-.08-.3-.12-.46-.12h0Z"/>
              </g>
              <g>
                <path class="cls-4" d="M82.36,139.17c-.12,0-.23-.03-.33-.09l-.55-.32c-.32-.19-.43-.6-.25-.92l1.05-1.82c.12-.21,.34-.34,.58-.34,.12,0,.23,.03,.33,.09l.55,.32c.32,.19,.43,.6,.25,.92l-1.05,1.82c-.12,.21-.34,.34-.58,.34Z"/>
                <path class="cls-14" d="M82.86,135.93c.07,0,.14,.02,.21,.06l.55,.32c.2,.12,.27,.37,.15,.58l-1.05,1.82c-.08,.14-.22,.21-.37,.21-.07,0-.14-.02-.21-.06l-.55-.32c-.2-.12-.27-.37-.15-.58l1.05-1.82c.08-.14,.22-.21,.37-.21m0-.5c-.33,0-.63,.18-.8,.46l-1.05,1.82c-.12,.21-.16,.46-.09,.7,.06,.24,.22,.44,.43,.56l.55,.32c.14,.08,.3,.12,.46,.12,.33,0,.63-.18,.8-.46l1.05-1.82c.25-.44,.1-1-.34-1.26l-.55-.32c-.14-.08-.3-.12-.46-.12h0Z"/>
              </g>
              <g>
                <path class="cls-4" d="M82.95,141.21c-.12,0-.23-.03-.33-.09l-.55-.32c-.16-.09-.27-.23-.31-.41-.05-.17-.02-.35,.07-.51l1.05-1.82c.12-.21,.34-.34,.58-.34,.12,0,.23,.03,.33,.09l.55,.32c.16,.09,.27,.24,.31,.41,.05,.17,.02,.35-.07,.51l-1.05,1.82c-.12,.21-.34,.34-.58,.34Z"/>
                <path class="cls-14" d="M83.46,137.98c.07,0,.14,.02,.21,.06l.55,.32c.2,.12,.27,.37,.15,.58l-1.05,1.82c-.08,.14-.22,.21-.37,.21-.07,0-.14-.02-.21-.06l-.55-.32c-.2-.12-.27-.37-.15-.58l1.05-1.82c.08-.14,.22-.21,.37-.21m0-.5h0c-.33,0-.63,.18-.8,.46l-1.05,1.82c-.12,.21-.16,.46-.09,.7,.06,.24,.22,.44,.43,.56l.55,.32c.14,.08,.3,.12,.46,.12,.33,0,.63-.18,.8-.46l1.05-1.82c.12-.21,.16-.46,.09-.7-.06-.24-.22-.44-.43-.56l-.55-.32c-.14-.08-.3-.12-.46-.12h0Z"/>
              </g>
            </g>
            <g>
              <g>
                <path class="cls-4" d="M75.29,131.54c-.12,0-.23-.03-.33-.09l-.55-.32c-.32-.18-.43-.6-.25-.92l1.05-1.82c.12-.21,.34-.34,.58-.34,.12,0,.23,.03,.33,.09l.55,.32c.32,.18,.43,.6,.25,.92l-1.05,1.82c-.12,.21-.34,.34-.58,.34Z"/>
                <path class="cls-14" d="M75.8,128.31c.07,0,.14,.02,.21,.06l.55,.32c.2,.12,.27,.37,.15,.58l-1.05,1.82c-.08,.14-.22,.21-.37,.21-.07,0-.14-.02-.21-.06l-.55-.32c-.2-.12-.27-.37-.15-.58l1.05-1.82c.08-.14,.22-.21,.37-.21m0-.5h0c-.33,0-.63,.18-.8,.46l-1.05,1.82c-.12,.21-.16,.46-.09,.7,.06,.24,.22,.44,.43,.56l.55,.32c.14,.08,.3,.12,.46,.12,.33,0,.63-.18,.8-.46l1.05-1.82c.12-.21,.16-.46,.09-.7-.06-.24-.22-.44-.43-.56l-.55-.32c-.14-.08-.3-.12-.46-.12h0Z"/>
              </g>
              <g>
                <path class="cls-4" d="M75.89,133.59c-.12,0-.23-.03-.33-.09l-.55-.32c-.16-.09-.27-.23-.31-.41-.05-.17-.02-.35,.07-.51l1.05-1.82c.12-.21,.34-.34,.58-.34,.12,0,.23,.03,.34,.09l.55,.32c.16,.09,.27,.23,.31,.41,.05,.17,.02,.35-.07,.51l-1.05,1.82c-.12,.21-.34,.34-.58,.34Z"/>
                <path class="cls-14" d="M76.39,130.36c.07,0,.14,.02,.21,.06l.55,.32c.2,.12,.27,.37,.15,.58l-1.05,1.82c-.08,.14-.22,.21-.37,.21-.07,0-.14-.02-.21-.06l-.55-.32c-.2-.12-.27-.37-.15-.58l1.05-1.82c.08-.14,.22-.21,.37-.21m0-.5h0c-.33,0-.63,.18-.8,.46l-1.05,1.82c-.12,.21-.16,.46-.09,.7,.06,.24,.22,.44,.43,.56l.55,.32c.14,.08,.3,.12,.46,.12,.33,0,.63-.18,.8-.46l1.05-1.82c.12-.21,.16-.46,.09-.7-.06-.24-.22-.44-.43-.56l-.55-.32c-.14-.08-.3-.12-.46-.12h0Z"/>
              </g>
              <g>
                <path class="cls-4" d="M76.48,135.64c-.12,0-.23-.03-.34-.09l-.55-.32c-.16-.09-.27-.23-.31-.41-.05-.17-.02-.35,.07-.51l1.05-1.82c.12-.21,.34-.34,.58-.34,.12,0,.23,.03,.33,.09l.55,.32c.16,.09,.27,.24,.31,.41,.05,.17,.02,.35-.07,.51l-1.05,1.82c-.12,.21-.34,.34-.58,.34Z"/>
                <path class="cls-14" d="M76.99,132.4c.07,0,.14,.02,.21,.06l.55,.32c.2,.12,.27,.37,.15,.58l-1.05,1.82c-.08,.14-.22,.21-.37,.21-.07,0-.14-.02-.21-.06l-.55-.32c-.2-.12-.27-.37-.15-.58l1.05-1.82c.08-.14,.22-.21,.37-.21m0-.5h0c-.33,0-.63,.18-.8,.46l-1.05,1.82c-.12,.21-.16,.46-.09,.7,.06,.24,.22,.44,.43,.56l.55,.32c.14,.08,.3,.12,.46,.12,.33,0,.63-.18,.8-.46l1.05-1.82c.12-.21,.16-.46,.09-.7-.06-.24-.22-.44-.43-.56l-.55-.32c-.14-.08-.3-.12-.46-.12h0Z"/>
              </g>
              <g>
                <path class="cls-4" d="M77.08,137.68c-.12,0-.23-.03-.33-.09l-.55-.32c-.32-.19-.43-.6-.25-.92l1.05-1.82c.12-.21,.34-.34,.58-.34,.12,0,.23,.03,.33,.09l.55,.32c.32,.19,.43,.6,.25,.92l-1.05,1.82c-.12,.21-.34,.34-.58,.34Z"/>
                <path class="cls-14" d="M77.59,134.45c.07,0,.14,.02,.21,.06l.55,.32c.2,.12,.27,.37,.15,.58l-1.05,1.82c-.08,.14-.22,.21-.37,.21-.07,0-.14-.02-.21-.06l-.55-.32c-.2-.12-.27-.37-.15-.58l1.05-1.82c.08-.14,.22-.21,.37-.21m0-.5c-.33,0-.63,.18-.8,.46l-1.05,1.82c-.25,.44-.1,1,.34,1.26l.55,.32c.14,.08,.3,.12,.46,.12,.33,0,.63-.18,.8-.46l1.05-1.82c.12-.21,.16-.46,.09-.7-.06-.24-.22-.44-.43-.56l-.55-.32c-.14-.08-.3-.12-.46-.12h0Z"/>
              </g>
            </g>
            <g>
              <path class="cls-4" d="M86.11,133.95c-2.2,0-4.57-.67-6.69-1.89-5.14-2.97-7.58-8.38-5.46-12.06,1.17-2.03,3.54-3.2,6.49-3.2,2.2,0,4.57,.67,6.69,1.89,5.14,2.96,7.58,8.38,5.46,12.06-1.17,2.03-3.54,3.2-6.49,3.2Zm-5.69-15.38c-2.26,0-4.04,.85-4.89,2.32-.78,1.35-.72,3.09,.17,4.89,.9,1.84,2.55,3.51,4.63,4.71,1.87,1.08,3.94,1.67,5.82,1.67,2.26,0,4.04-.85,4.89-2.32,.78-1.35,.72-3.09-.17-4.89-.9-1.84-2.55-3.51-4.63-4.71-1.87-1.08-3.94-1.67-5.82-1.67Z"/>
              <path class="cls-14" d="M80.45,117.05c2.09,0,4.39,.61,6.56,1.86,5.02,2.9,7.42,8.15,5.37,11.72-1.17,2.02-3.53,3.07-6.27,3.07-2.09,0-4.39-.61-6.56-1.86-5.02-2.9-7.42-8.15-5.37-11.72,1.17-2.02,3.53-3.07,6.27-3.07m5.69,15.37c2.26,0,4.18-.83,5.11-2.44,1.7-2.94-.49-7.41-4.89-9.94-1.98-1.15-4.08-1.71-5.95-1.71-2.26,0-4.18,.83-5.11,2.44-1.7,2.94,.49,7.41,4.89,9.94,1.98,1.15,4.08,1.71,5.95,1.71m-5.69-15.87h0c-3.04,0-5.48,1.21-6.7,3.32-2.2,3.8,.29,9.37,5.55,12.4,2.15,1.24,4.57,1.93,6.81,1.93,3.04,0,5.48-1.21,6.7-3.32,2.2-3.8-.29-9.37-5.55-12.4-2.15-1.24-4.57-1.93-6.81-1.93h0Zm5.69,15.37c-1.84,0-3.86-.58-5.7-1.64-4.16-2.4-6.27-6.55-4.71-9.26,.8-1.39,2.51-2.19,4.68-2.19,1.84,0,3.87,.58,5.7,1.64,4.16,2.4,6.27,6.55,4.71,9.26-.8,1.39-2.51,2.19-4.68,2.19h0Z"/>
            </g>
          </g>
        </g>
        <g>
          <path class="cls-18" d="M110.55,127.26c-.61-1.06-2-1.41-3.1-.77-.55,.32-.72,.86-.99,1.35l-11.95,6.9-11.95,6.9c-.56-.02-1.12-.14-1.67,.18-1.1,.64-1.5,2.01-.88,3.07,.06,.11,.1,.36,.21,.3,.96-.55,.05-2.17,1.04-2.74,.71-.41,1.53-.41,2.19-.08,2.98,2.72,7.59,3.29,11.4,1.09l3.52-2.03,3.52-2.03c3.8-2.2,5.62-6.47,4.75-10.42,.05-.74,.46-1.45,1.16-1.86,.99-.57,1.93,1.02,2.89,.47,.11-.06-.09-.23-.15-.33Zm-9.68,10.37l-3.52,2.03-3.52,2.03c-3.26,1.88-6.57,.34-10.05-.04l11.04-6.38,11.04-6.38c-1.41,3.2-1.73,6.84-4.99,8.72Z"/>
          <g>
            <polygon class="cls-8" points="95.86 138.68 98.27 137.28 92.18 123.39 87.11 126.31 95.86 138.68"/>
            <path class="cls-7" d="M87.21,122.37s-.04,.02-.06,.03c-1.32,.76-1.77,2.45-1.01,3.78s2.45,1.77,3.78,1.01h0s2.57-1.48,2.57-1.48l-2.23-5.1-3.05,1.76Z"/>
            <path class="cls-15" d="M95.67,138.5l2.41-1.39,2.54,2.11c.57,.47,.49,1.36-.15,1.73l-2.61,1.51c-.57,.33-1.29,.01-1.43-.62l-.76-3.33Z"/>
          </g>
        </g>
        <g>
          <g>
            <path class="cls-12" d="M138.06,93.41c-4.77-.38-10.33-3.34-14.78-7.93-4.6-4.75-7.37-10.63-7.22-15.35,.06-1.95,.62-3.61,1.64-4.87l12.43,12.83c-.59,.84-.92,1.88-.96,3.07-.09,2.79,1.42,6.07,4.03,8.77,1.48,1.53,3.16,2.72,4.85,3.48Z"/>
            <path class="cls-14" d="M117.85,66.85l11.03,11.38c-.43,.85-.67,1.82-.7,2.9-.1,3.06,1.52,6.61,4.32,9.49,.14,.15,.29,.29,.43,.43-3.08-1.31-6.21-3.48-8.92-6.28-4.42-4.56-7.08-10.17-6.94-14.62,.04-1.28,.3-2.38,.78-3.31m-.15-3.03c-4.93,4.48-2.74,14.49,4.88,22.35,5.14,5.3,11.43,8.27,16.5,8.27,2.45,0,4.61-.69,6.22-2.15-.8,.73-1.88,1.08-3.11,1.08-2.53,0-5.68-1.49-8.25-4.14-3.81-3.93-4.9-8.94-2.44-11.18l-13.8-14.24h0Z"/>
          </g>
          <g>
            <path class="cls-12" d="M128.38,78.13c-2.35,0-5.24-1.47-7.53-3.83-2.21-2.28-3.54-5.08-3.47-7.31,.03-1.05,.37-1.86,.99-2.43,.6-.54,1.42-.82,2.44-.82,2.36,0,5.24,1.47,7.53,3.83,2.21,2.28,3.54,5.08,3.47,7.31-.03,1.05-.37,1.86-.99,2.43-.6,.54-1.42,.82-2.44,.82Z"/>
            <path class="cls-12" d="M120.8,64.74c2.06,0,4.74,1.39,6.81,3.53,2.03,2.09,3.25,4.62,3.19,6.58-.02,.77-.25,1.35-.66,1.72-.41,.37-1,.56-1.76,.56-2.06,0-4.74-1.39-6.82-3.53-2.03-2.09-3.25-4.62-3.19-6.58,.02-.77,.25-1.35,.66-1.72,.41-.37,1-.56,1.76-.56m0-2c-1.22,0-2.31,.35-3.11,1.08-2.46,2.24-1.37,7.25,2.44,11.18,2.57,2.65,5.72,4.14,8.25,4.14,1.22,0,2.31-.35,3.11-1.08,2.46-2.24,1.37-7.25-2.44-11.18-2.57-2.65-5.72-4.14-8.25-4.14h0Z"/>
          </g>
        </g>
        <g>
          <path class="cls-7" d="M129.43,79.03c0,12.43-1.7,22.84-9.56,30.42-8.74,8.42-24.35,13.31-38.25,13.31-13.95,0-29.51-4.84-38.25-13.31-7.8-7.56-9.56-18.03-9.56-30.42,0-26.25,21.4-43.72,47.81-43.72,26.4,0,47.81,17.48,47.81,43.72Z"/>
          <path d="M129.05,79.03s.13,1.17,.27,2.99c.15,1.83,.27,4.32,.22,6.96-.05,2.64-.32,5.44-.81,7.83-.46,2.4-1.22,4.33-1.66,5.33-.97,1.98-1.6,2.89-1.88,3.37-.14,.24-.22,.35-.26,.41l-.04,.06c-1.47,2.2-3.28,4.21-5.29,5.9-2,1.7-4.15,3.2-6.4,4.49-4.51,2.56-9.34,4.44-14.3,5.74-2.48,.67-4.99,1.19-7.53,1.56-2.53,.4-5.1,.61-7.67,.72-2.57,.11-5.15,0-7.71-.2-2.56-.24-5.1-.58-7.62-1.08-5.02-1.02-9.98-2.52-14.65-4.73-2.35-1.08-4.62-2.35-6.77-3.84-2.15-1.47-4.2-3.14-6-5.11-3.63-3.92-5.99-8.89-7.23-13.95-1.26-5.07-1.61-10.23-1.66-15.31,.01-5.14,.57-10.4,2.19-15.37,1.66-4.96,4.21-9.61,7.5-13.66,3.3-4.04,7.28-7.54,11.77-10.17,4.48-2.65,9.35-4.58,14.37-5.83l3.8-.82,3.85-.49,.96-.12c.32-.03,.64-.03,.97-.05l1.93-.08,1.93-.08c.64-.02,1.29,.04,1.93,.05,5.16,.06,10.32,.94,15.27,2.45,4.94,1.54,9.75,3.68,14,6.73,4.26,3,8.04,6.73,11.03,11.03,2.37,3.82,3.85,8.1,4.84,12.35l.61,3.22c.12,1.08,.18,2.17,.28,3.25l.13,1.61-.04,1.62-.09,3.22-.36-3.27c-.06-.54-.1-1.09-.19-1.63l-.35-1.6c-.25-1.06-.42-2.14-.73-3.17l-1.02-3.08-.26-.76-.34-.74-.67-1.47-.67-1.46c-.22-.49-.54-.93-.8-1.39-.56-.91-1.07-1.85-1.66-2.72l-1.92-2.54c-2.85-3.92-6.43-7.31-10.46-10.03l-1.53-.99-.77-.5c-.26-.15-.54-.28-.81-.43-1.09-.55-2.15-1.14-3.25-1.67l-3.39-1.39c-1.14-.44-2.33-.74-3.49-1.12-4.71-1.31-9.59-2.05-14.51-2.07-4.91,.01-9.81,.58-14.55,1.8-9.41,2.56-18.15,7.88-24.01,15.63-2.9,3.88-5.06,8.28-6.38,12.93l-.47,1.75-.24,.88-.14,.9-.55,3.6c-.11,2.43-.3,4.84-.19,7.35,.12,4.96,.62,9.89,2,14.5,1.37,4.61,3.79,8.81,7.26,12.05,3.48,3.26,7.74,5.76,12.24,7.65,4.51,1.91,9.29,3.2,14.13,4.03,4.86,.77,9.78,1.07,14.68,.69,2.45-.18,4.89-.48,7.3-.95,2.42-.44,4.81-1.04,7.15-1.76,4.69-1.44,9.22-3.42,13.26-6.06,4.05-2.64,7.49-6.01,9.69-10.2,1.02-1.6,1.84-3.35,2.53-5.16,.7-1.81,1.24-3.72,1.66-5.66,.87-3.88,1.27-7.91,1.54-11.95Z"/>
        </g>
        <g>
          <path class="cls-7" d="M125,103.83s0,0,0,0h0c5.27-1.29,9.05-4.85,9.48-9.69s-2.61-9.71-7.47-12.94h0s0,0,0,0c0,0,0,0,0,0h0c-5.27,1.29-6.93,5.26-7.36,10.09-.43,4.83,5.73,8.28,5.35,12.53h0s0,0,0,0Z"/>
          <path d="M124.93,104.2h-.04s-.05-.03-.05-.03l-.03-.02h0s.58-.29,.58-.29h0s0,0,0,0l-.28,.33h0s0,0,0,0h0s0,0,0,0c0,0,.01-.01,.03-.02,.02-.02,.06-.05,.1-.09,.09-.08,.21-.2,.36-.33,.3-.27,.68-.67,1.05-1.06,.75-.82,1.4-1.73,1.69-1.92,.32-.17,.45-.29,.53-.34l.07-.05c1.49-1.02,2.68-2.39,3.31-3.99,.64-1.59,.77-3.38,.36-5.1-.77-3.48-3.42-6.54-6.57-8.61-.55-.36-.83-.98-.78-1.6v-.02s0,0,0,0l2.19,1.85h0c-.49,.14-1,.04-1.4-.22l-.04-.03h0s2.74-1.3,2.74-1.3h0c-.06,.75-.59,1.35-1.27,1.54l-.06,.02c-.77,.21-1.5,.48-2.16,.84-.64,.37-1.2,.83-1.68,1.38-.95,1.09-1.53,2.59-1.84,4.23-.08,.41-.14,.83-.2,1.25-.04,.42-.1,.91-.08,1.17,0,.62,.15,1.27,.48,1.95,.62,1.38,1.77,2.77,2.9,4.39,.22,.94,.45,1.9,.51,2.91,.03,.24,0,.51,0,.75,0,.24-.02,.48-.07,.73-.05,.24-.06,.46-.16,.69l-.12,.32-.06,.15-.03,.08-.02,.04v.02s-.01,0-.01,0h0s0,0,0,0c.31,.26,.07,.08,.13,.14h-.03s.03,0,.03,0c.15,.12-.17-.17-.14-.14h0s0,0,0,0h0s0-.03,0-.03v-.04s-.04-.08-.04-.08l-.05-.16-.09-.3c-.05-.2-.18-.38-.27-.56-.08-.18-.2-.35-.33-.51-.12-.16-.23-.32-.38-.47-.52-.61-1.18-1.13-1.83-1.67-.99-1.45-2.28-2.93-3.17-4.94-.45-.98-.77-2.16-.74-3.38-.01-.66,.07-1.06,.12-1.58,.07-.5,.14-.99,.24-1.49,.39-1.98,1.14-4.09,2.64-5.8,.74-.85,1.63-1.57,2.6-2.12,.97-.54,2-.9,3.02-1.18l-1.32,1.54h0c.08-.96,.92-1.67,1.87-1.59,.31,.03,.6,.14,.84,.3h0s-1.42-.25-1.42-.25h0c.91-.26,1.86,.27,2.12,1.18,.06,.2,.08,.41,.06,.61v.06s0,0,0,0l-.77-1.6c1.91,1.26,3.65,2.81,5.09,4.65,1.41,1.86,2.57,4.02,3.03,6.44,.47,2.4,.27,5.02-.81,7.32-1.05,2.3-2.86,4.16-4.89,5.44-.91,.25-1.8,.45-2.7,.53-.44,.06-.89,.06-1.32,.08-.21,.01-.43,0-.65,0h-.32s-.16-.01-.16-.01h-.08s-.04,0-.04,0h-.19Z"/>
        </g>
        <g>
          <path class="cls-7" d="M38.07,103.89s0,0,0,0h0c-5.21-1.51-8.84-5.22-9.07-10.07s3.01-9.59,8-12.62h0s0,0,0,0c0,0,0,0,0,0h0c5.21,1.51,6.71,5.54,6.93,10.39s-6.07,8.04-5.87,12.3h0s0,0,0,0Z"/>
          <path d="M38.02,103.52h-.05s-.06,.03-.06,.03l-.03,.02h0s.57,.31,.57,.31h0s0,0,0,0l-.27-.34h0s0,0,0,0h0s0,0,0,0c0,0-.02,0-.03,0-.03,0-.07,.01-.13,.03-.11,.02-.28,.05-.47,.09-.4,.08-.94,.13-1.54,.17-1.17,.05-2.52-.15-2.9-.41-.39-.24-.57-.39-.66-.46l-.09-.07c-1.88-1.37-3.48-3.3-4.31-5.59-.85-2.28-.92-4.81-.31-7.1,.58-2.31,1.78-4.36,3.24-6.11,1.47-1.75,3.23-3.19,5.13-4.37l-.84,1.58h0s0-.02,0-.02c-.05-.96,.69-1.78,1.65-1.83,.21-.01,.43,.02,.62,.08h0s-1.44,.19-1.44,.19h0c.81-.52,1.89-.29,2.41,.52,.17,.26,.26,.55,.27,.84v.04s0,0,0,0l-1.27-1.6c1.02,.31,2.04,.71,3,1.29,.96,.59,1.84,1.35,2.55,2.24,1.46,1.79,2.14,3.95,2.46,5.97,.09,.51,.14,1.01,.19,1.52,.03,.51,.09,.95,.05,1.63-.04,1.24-.4,2.44-.91,3.42-1.01,2-2.34,3.45-3.37,4.86-.72,.43-1.44,.86-2.05,1.39-.17,.13-.29,.27-.44,.42-.16,.15-.29,.31-.4,.48-.11,.17-.27,.35-.35,.55l-.14,.3-.07,.16-.03,.08-.02,.04v.02s-.01,.01-.01,.01h0s0,0,0,0c.32-.25,.07-.07,.14-.13h-.03s.03,0,.03,0c.15-.11-.17,.16-.14,.13h0s0,0,0,0h0s0-.03,0-.03v-.04s-.03-.08-.03-.08l-.04-.17-.08-.35c-.06-.24-.04-.47-.06-.72-.02-.25,0-.49,.03-.74,.03-.24,.05-.51,.11-.74,.19-.99,.54-1.89,.88-2.78,1.16-1.55,2.34-2.91,2.99-4.3,.34-.69,.52-1.35,.52-1.99,.03-.27-.03-.79-.06-1.2-.04-.43-.09-.85-.16-1.26-.27-1.65-.81-3.17-1.74-4.29-.46-.56-1.01-1.04-1.65-1.43-.64-.38-1.37-.67-2.13-.9h-.02c-.72-.23-1.2-.88-1.24-1.59h0s2.66,1.39,2.66,1.39h0c-.44,.28-.97,.33-1.43,.19h0s2.25-1.75,2.25-1.75h0c.03,.66-.3,1.24-.82,1.56h-.01c-3.3,2.02-6.05,5.1-6.86,8.61-.39,1.73-.3,3.54,.39,5.11,.67,1.58,1.87,2.93,3.37,3.95,.43,.58,.92,1.17,1.5,1.69,.28,.28,.59,.52,.89,.78,.15,.13,.32,.24,.48,.36l.25,.18,.12,.09,.06,.04,.03,.02h.02s0,.02,0,.02h0c-.06-.07,.51,.65,.27,.35h0c-1.13-.61-.27-.19-.5-.33,.03,0,.05-.02,.08-.02Z"/>
        </g>
        <path class="cls-10" d="M63.25,118.81c.1,.03,7.87,2.44,18.44,2.71,8.23,.21,18.3-2.67,18.3-2.67,0-8.86-9.66-15.09-18.52-15.09s-18.22,6.86-18.22,15.05Z"/>
        <ellipse class="cls-3" cx="81.6" cy="99.75" rx="9.9" ry="1.9"/>
        <path d="M79.73,111.84l-.44-.54c-1.29-1.58-.16-3.94,1.87-3.94h.88c2.04,0,3.16,2.36,1.87,3.94l-.44,.54c-.97,1.19-2.78,1.19-3.75,0Z"/>
        <g>
          <ellipse class="cls-3" cx="118.19" cy="99.19" rx="1.39" ry="1.33"/>
          <ellipse class="cls-3" cx="115.05" cy="103.21" rx=".99" ry=".95"/>
          <ellipse class="cls-3" cx="120.62" cy="103.2" rx=".89" ry=".86"/>
        </g>
        <g>
          <ellipse class="cls-4" cx="105.29" cy="89.83" rx="11.88" ry="15.21"/>
          <circle cx="105.29" cy="89.83" r="3.68"/>
        </g>
        <g>
          <path class="cls-12" d="M96.18,44.19l1.82-1.8c9.05-8.92,22.71-7.76,30.51,2.59,7.8,10.35,6.79,25.97-2.26,34.89l-1.82,1.79c-5.83-13.5-15.52-25.91-28.24-37.47Z"/>
          <path d="M96.55,44.18s.23-.27,.59-.87c.19-.3,.42-.7,.73-1.15,.31-.43,.64-.89,.97-1.36,.33-.49,.74-.93,1.15-1.36,.41-.42,.79-.89,1.22-1.21,.84-.67,1.54-1.28,2-1.44,1.77-.77,1.77-.76,1.77-.76,2.81-1.04,5.86-1.46,8.86-1.21,3,.24,5.93,1.16,8.55,2.61,5.26,2.93,9.1,7.88,11.21,13.36,2.06,5.53,2.39,11.62,1.06,17.35-.68,2.86-1.82,5.63-3.37,8.15l-.58,.95-.66,.89c-.44,.6-.87,1.2-1.4,1.74-1.01,1.15-1.99,2.09-2.98,3.06l-1.85,1.83-1.04-2.39c-4.74-10.87-11.87-20.61-20.1-29.22-.99-1.55-2.04-3.06-3.11-4.57-.55-.76-1.04-1.48-1.66-2.28-.6-.8-1.1-1.52-1.6-2.11,.82,.62,1.61,1.12,2.32,1.59,.71,.49,1.52,1.11,2.27,1.66,1.52,1.15,3.04,2.31,4.53,3.53,8.36,8.78,15.67,18.77,20.57,30.02l-2.77-.54,1.5-1.49c.52-.5,.9-.97,1.36-1.46,.46-.46,.82-1.01,1.22-1.53,.19-.26,.4-.52,.58-.79l.51-.84c1.36-2.24,2.34-4.72,2.94-7.29,1.17-5.15,.74-10.66-1.21-15.54-1.92-4.88-5.56-9.09-10.14-11.37-4.58-2.32-10.11-2.47-14.78-.39-1.56,.36-3.04,1.03-4.51,1.81-.73,.4-1.4,.89-2.13,1.35-.58,.4-1.25,.75-2,1.28Z"/>
        </g>
        <g>
          <g>
            <path class="cls-12" d="M99.63,43.49c-.18-.49-.25-1.05-.19-1.69,.21-2.34,2.01-5.13,4.7-7.29,1.65-1.33,3.5-2.3,5.25-2.8-.12,.09-.25,.18-.37,.28-1.68,1.35-2.76,3.1-2.9,4.68-.05,.53,.01,1.03,.17,1.47l-6.66,5.35Z"/>
            <path class="cls-14" d="M105.66,34.61c-.3,.66-.48,1.32-.54,1.97-.04,.41-.02,.8,.04,1.18l-4.68,3.76c.33-1.98,1.98-4.39,4.28-6.24,.29-.24,.59-.46,.9-.67m6.27-4.3c-2.53,0-5.65,1.19-8.42,3.41-4.53,3.64-6.38,8.68-4.13,11.25l8.2-6.59c-1.12-1.29-.2-3.81,2.07-5.63,1.38-1.11,2.95-1.7,4.21-1.7,.8,0,1.49,.24,1.93,.74-.87-1-2.24-1.48-3.85-1.48h0Z"/>
          </g>
          <ellipse class="cls-12" cx="103.48" cy="41.68" rx="5.26" ry="3.09" transform="translate(-3.96 71.71) rotate(-37.56)"/>
        </g>
        <g>
          <path class="cls-4" d="M160.23,64.53c-8.61,4.16-19.3,3.99-28.34-1.37l-36.12-21.43c-4.51-2.68-10.35-1.19-13.02,3.32h0c-2.68,4.51-1.19,10.35,3.32,13.02l33.7,19.99c14.44,8.57,32.99,4.24,41.22-9.63l1.14-1.92c.71-1.19-.64-2.61-1.9-2Z"/>
          <path d="M160.07,64.19s-.64,.43-1.67,1.07c-1.05,.6-2.52,1.41-4.18,2.02-3.29,1.35-7.33,1.83-8.77,1.71-1.45-.08-2.16-.22-2.52-.26l-.36-.05c-3.44-.53-6.79-1.63-9.89-3.22-1.57-.84-2.95-1.68-4.38-2.52l-4.27-2.52-17.07-10.09-8.53-5.04-2.13-1.26c-.7-.41-1.47-.88-2.02-1.15-1.22-.58-2.59-.84-3.94-.73-2.72,.19-5.23,1.92-6.4,4.37-1.2,2.42-.99,5.48,.56,7.71,.36,.57,.83,1.06,1.33,1.51,.26,.21,.51,.44,.81,.61,.25,.18,.61,.39,.98,.6l4.27,2.52,8.53,5.04,17.07,10.09,2.13,1.26,1.07,.63,1.04,.55c.7,.34,1.35,.78,2.09,1.04l2.16,.88c2.95,1,6.04,1.56,9.14,1.63,6.22,.21,12.45-1.82,17.4-5.49l1.72-1.04c.55-.38,1.07-.8,1.62-1.21,.27-.21,.55-.4,.8-.63l.74-.7c.48-.48,1.03-.91,1.47-1.44,.89-1.04,1.82-2.09,2.67-3.25l.32-.42c.1-.13,.17-.24,.22-.38,.1-.27,.07-.6-.07-.9-.27-.6-1.06-1.01-1.81-.73,.68-.43,1.73-.19,2.21,.55,.26,.35,.38,.84,.28,1.31-.12,.51-.32,.78-.47,1.11-.6,1.32-1.35,2.61-2.07,3.93-1.62,2.52-3.59,4.88-5.92,6.9-5.74,4.1-12.83,6.17-19.85,5.88-3.51-.16-6.98-.89-10.27-2.11-.81-.34-1.63-.65-2.43-1.01l-2.33-1.23c-1.5-.83-2.89-1.69-4.33-2.54l-17.21-10.18-8.61-5.09-2.15-1.27-1.08-.64c-.37-.22-.69-.39-1.12-.69-.84-.51-1.57-1.19-2.26-1.9-.64-.75-1.24-1.55-1.67-2.44-.91-1.75-1.31-3.75-1.22-5.72,.11-1.97,.73-3.92,1.83-5.56,2.13-3.36,6.16-5.34,10.12-5.08,.99,.05,1.96,.27,2.91,.56,.46,.18,.93,.34,1.37,.57,.44,.23,.89,.47,1.22,.67l4.3,2.54,8.61,5.09,17.21,10.18,4.3,2.54c1.47,.88,2.77,1.62,4.22,2.26,2.85,1.29,5.93,2.07,9.03,2.37,4.95,.96,10.29,.59,15.27-1.24Z"/>
        </g>
        <g>
          <path class="cls-4" d="M79.65,44.32c-2.99-4.31-8.92-5.38-13.23-2.38l-34.49,23.95c-8.63,6-19.29,6.93-28.17,3.4-1.3-.52-2.54,1-1.75,2.13l1.27,1.83c9.2,13.24,28,16.23,41.8,6.65l32.19-22.35c4.31-2.99,5.38-8.92,2.38-13.23h0Z"/>
          <path d="M79.95,44.1s-.15-.14-.41-.39c-.25-.26-.66-.57-1.15-.94-1-.71-2.53-1.37-4.14-1.58-1.62-.19-3.28,.08-4.51,.63-1.26,.52-2.05,1.21-2.58,1.56l-2.26,1.57-32.57,22.67c-5.78,3.9-12.88,5.82-19.85,5.37-1.74-.15-3.48-.35-5.18-.78-.86-.18-1.69-.46-2.53-.7l-1.24-.44-.31-.11-.08-.03h-.04s.09-.3,.04-.17c.01-.02,.02-.05,.03-.08,.03-.11,.01-.12,.02-.09,0,.07,.13,.2,.06,.14-.05-.07-.33-.06-.19-.07,0,0,.07-.03,.13-.07h.02c.08-.07-.17,.1,.19-.14l.04,.06,.09,.13,.35,.51,.71,1.02c.96,1.24,1.87,2.49,2.99,3.56,2.18,2.2,4.74,4.01,7.54,5.35,2.81,1.33,5.85,2.13,8.94,2.47,3.09,.32,6.24,.2,9.28-.47,3.04-.68,5.96-1.84,8.66-3.4l1.98-1.24,2.03-1.42,4.07-2.83,8.13-5.67,16.26-11.33,1.87-1c.52-.28,1.03-.6,1.49-1,.93-.79,1.7-1.81,2.23-3,1.05-2.37,1-5.37-.37-7.92,1.88,2.27,2.74,5.55,1.97,8.65-.37,1.54-1.08,3.04-2.14,4.31-.28,.3-.54,.63-.85,.9-.3,.27-.64,.58-.9,.79l-1.68,1.4-16.41,11.43-8.2,5.72c-2.77,1.89-5.35,3.85-8.45,5.66-6.16,3.35-13.4,4.8-20.38,3.78-6.94-1.01-13.67-4.3-18.41-9.61-.65-.61-1.13-1.36-1.69-2.04l-.81-1.05-.71-1.03-.36-.51-.2-.29c-.12-.2-.24-.39-.32-.62-.37-.92-.21-1.99,.26-2.74,.47-.75,1.22-1.33,2.16-1.52,.46-.1,.96-.08,1.4,.04l.33,.1,.18,.06,.28,.1c1.46,.57,2.98,.95,4.51,1.28,1.54,.27,3.1,.46,4.67,.48,3.13,.06,6.28-.39,9.26-1.36,1.5-.47,2.94-1.1,4.34-1.8,.69-.37,1.38-.75,2.04-1.16,.66-.43,1.31-.84,2-1.34l32.81-22.86,.88-.49,1.03-.54c.36-.16,.73-.3,1.09-.44,.37-.12,.75-.22,1.13-.32,1.52-.34,3.08-.34,4.55-.04,2.94,.59,5.48,2.47,6.85,4.91Z"/>
        </g>
        <g>
          <path class="cls-12" d="M98.37,39.05c.89-2.78-.74-5.72-3.65-6.57h0c-26.19-7.66-53.93,6.39-61.95,31.38-8.03,24.99,6.69,51.46,32.88,59.13l5.27,1.54c14.37-22.56,27.46-55.65,27.46-85.47Z"/>
          <path d="M98.74,39.1s0-.06,.02-.18c.01-.12,.05-.27,.05-.53,.04-.48,0-1.19-.26-1.96-.27-.76-.76-1.6-1.52-2.24-.75-.65-1.7-1.08-2.78-1.2-2.27-.25-4.58-.7-6.61-.69-1-.06-1.92-.11-2.69-.15-.78-.03-1.42,.01-1.86-.02-1.77-.08-2.65-.12-3.09-.14l-.44,.02c-11.5,.11-22.9,4.41-31.56,11.91-4.33,3.74-7.96,8.29-10.61,13.35-2.65,5.06-4.35,10.62-4.91,16.3-1.14,11.39,2.58,23.07,9.81,31.92,3.6,4.44,8.03,8.19,12.97,11.05l1.85,1.08c.64,.31,1.3,.6,1.95,.9,1.3,.59,2.58,1.24,3.96,1.65l2.03,.7c.67,.24,1.35,.47,2.08,.66l4.27,1.24-2.02,.76c6-9.54,11.11-19.65,15.32-30.11,2.14-5.22,3.94-10.57,5.6-15.95,1.63-5.4,2.92-10.88,4-16.4,2.02-7.15,3.51-14.54,4.17-22.03,.49,7.69,.13,15.53-.85,23.28-1.1,5.6-2.47,11.14-4.1,16.6-1.69,5.44-3.54,10.83-5.69,16.1-4.27,10.55-9.43,20.74-15.5,30.4l-.68,1.08-1.24-.36-4.35-1.26c-1.44-.4-2.94-.98-4.4-1.47-1.5-.45-2.88-1.18-4.31-1.81-.7-.34-1.43-.62-2.11-1.01l-2.02-1.18c-5.38-3.16-10.18-7.31-14.05-12.22-3.87-4.91-6.8-10.56-8.53-16.59-1.73-6.02-2.25-12.39-1.48-18.62,.77-6.22,2.73-12.3,5.84-17.75,3.1-5.45,7.27-10.28,12.15-14.19,9.77-7.84,22.39-11.92,34.88-11.47l2.74,.31c.91,.15,1.8,.37,2.7,.54,.9,.19,1.79,.37,2.68,.58l2.61,.82,1.3,.41c.44,.15,.84,.24,1.34,.46,.95,.41,1.79,1.06,2.42,1.85,.64,.79,1.04,1.74,1.21,2.72,.16,.95,.02,2.03-.3,2.81Z"/>
        </g>
        <g>
          <g>
            <path class="cls-12" d="M95.62,33.68c.43-.27,.81-.66,1.12-1.15,.84-1.34,1.06-3.34,.58-5.35-.04-.19-.09-.37-.15-.55,1.09,1.4,1.99,3.27,2.49,5.34,.76,3.2,.46,6.42-.79,8.41-.29,.46-.72,1-1.33,1.37l-1.92-8.07Z"/>
            <path class="cls-14" d="M98.37,31.08c.12,.36,.22,.73,.31,1.12,.69,2.89,.46,5.76-.59,7.54l-1.35-5.66c.32-.29,.6-.63,.84-1.02,.36-.57,.62-1.25,.79-1.98m-5.45-8.09c-.29,0-.58,.03-.86,.09,.14-.03,.29-.05,.43-.05,1.59,0,3.25,1.84,3.85,4.37,.66,2.76-.19,5.31-1.9,5.68l2.38,10.01c3.41-.75,5.11-5.84,3.79-11.36-1.21-5.07-4.53-8.74-7.7-8.74h0Z"/>
          </g>
          <ellipse class="cls-12" cx="95.64" cy="38.09" rx="3.16" ry="5.14" transform="translate(-6.38 24.31) rotate(-14.02)"/>
        </g>
        <g>
          <g>
            <path class="cls-12" d="M85.31,31.89c.91-2.81-1.03-7.16-4.76-10.36-1.3-1.11-2.67-1.97-4-2.5,3.5,.14,7.89,2.21,11.84,5.61,6.31,5.42,9.98,12.97,8.68,17.36l-11.76-10.1Z"/>
            <path class="cls-14" d="M82.14,21.64c1.86,.91,3.77,2.19,5.6,3.75,4.68,4.02,8.68,10.32,8.63,14.68l-9.94-8.54c.54-2.91-1.09-6.75-4.28-9.89m-5.97-3.62c-2.4,0-4.34,.87-5.42,2.69,.54-.91,1.51-1.34,2.71-1.34,1.83,0,4.21,1.02,6.43,2.93,3.68,3.17,5.56,7.59,4.2,9.88l13.34,11.46c2.73-4.58-1.03-13.42-8.4-19.75-4.45-3.82-9.2-5.86-12.87-5.86h0Z"/>
          </g>
          <ellipse class="cls-12" cx="90.77" cy="37.9" rx="4.73" ry="8.85" transform="translate(-.01 75.77) rotate(-45.31)"/>
        </g>
        <g>
          <g>
            <path class="cls-11" d="M83.11,17.22l2.11-.59c1-.28,1.59-1.28,1.32-2.24s-1.29-1.51-2.29-1.23l-.18,.05c-.33-.42-.91-.63-1.48-.47l-1.26,.35-1.19-2.76c.28-.13,.48-.37,.56-.65l2.36-.66c1-.28,1.59-1.28,1.32-2.24s-1.29-1.51-2.29-1.23L49.94,14.5c-1,.28-1.59,1.28-1.32,2.24s1.29,1.51,2.29,1.23l2.36-.66c.21,.2,.51,.3,.82,.27l.41,2.98-1.26,.35c-.57,.16-.96,.63-1.02,1.16l-.13,.04c-1,.28-1.59,1.28-1.32,2.24s1.29,1.51,2.29,1.23l2.06-.57,3.93,28.48c.18,1.93,2.12,3.19,4.06,2.65,1.53-.42,2.54-1.84,2.39-3.36l-4.04-29.54,15.31-4.26,11.8,27.38c.66,1.37,2.26,2.06,3.78,1.64,1.94-.54,2.95-2.63,2.11-4.37l-11.35-26.42Zm-21.59,1.39l-.68,.19-.41-2.99c.25-.14,.43-.36,.5-.62l12.1-3.37c.2,.18,.47,.29,.75,.27l1.2,2.77-.68,.19c-.57,.16-.96,.63-1.02,1.16l-10.29,2.86c-.33-.42-.91-.63-1.48-.47Z"/>
            <g>
              <path class="cls-1" d="M83.11,17.22l2.11-.59c1-.28,1.59-1.28,1.32-2.24s-1.29-1.51-2.29-1.23l-.18,.05c-.33-.42-.91-.63-1.48-.47l-1.26,.35-1.19-2.76c.28-.13,.48-.37,.56-.65l2.36-.66c1-.28,1.59-1.28,1.32-2.24s-1.29-1.51-2.29-1.23L49.94,14.5c-1,.28-1.59,1.28-1.32,2.24s1.29,1.51,2.29,1.23l2.36-.66c.21,.2,.51,.3,.82,.27l.41,2.98-1.26,.35c-.57,.16-.96,.63-1.02,1.16l-.13,.04c-1,.28-1.59,1.28-1.32,2.24s1.29,1.51,2.29,1.23l2.06-.57,3.93,28.48c.18,1.93,2.12,3.19,4.06,2.65,1.53-.42,2.54-1.84,2.39-3.36l-4.04-29.54,15.31-4.26,11.8,27.38c.66,1.37,2.26,2.06,3.78,1.64,1.94-.54,2.95-2.63,2.11-4.37l-11.35-26.42Zm-21.59,1.39l-.68,.19-.41-2.99c.25-.14,.43-.36,.5-.62l12.1-3.37c.2,.18,.47,.29,.75,.27l1.2,2.77-.68,.19c-.57,.16-.96,.63-1.02,1.16l-10.29,2.86c-.33-.42-.91-.63-1.48-.47Z"/>
              <path d="M61.47,18.42s-.26,.21-.6,.47l-.06,.05-.08-.14c-.39-.66-.94-1.65-.98-1.97l-.07-.5-.06-.43-.08-.55,.5-.28c.05-.03,.09-.08,.1-.13l.11-.43,.46-.13,12.09-3.42,.46-.13,.37,.33s.07,.04,.12,.04l.59-.05,.25,.58,1.21,2.77,.41,.93-.98,.28-.56,.16c-.12,.03-.15,.04-.18,.06-.03,.01-.07,.03-.1,.05-.12,.08-.2,.22-.21,.34l-.06,.59-.59,.17-8.85,2.5-1.55-.06-.46-.02-.03-.14c-.07-.39-.52-.8-1.13-.81,.51-.28,1.28-.26,1.85,.25l-.47-.16,1.41-.77,8.77-2.48-.62,.72c.08-.64,.44-1.22,.96-1.57,.13-.09,.27-.16,.41-.22,.15-.06,.3-.1,.38-.12l.56-.16-.56,1.17-1.21-2.77,.84,.53c-.5,.03-1.02-.15-1.4-.51l.84,.21-12.09,3.42,.65-.64c-.14,.52-.5,.95-.96,1.19l.48-.95,.11,.76-.26,2.31-.46-.3,.72-.02Z"/>
              <path d="M83.28,17.3s.21-.06,.59-.17c.38-.12,.92-.28,1.63-.58,.68-.32,1.23-1.26,.9-2.13-.29-.87-1.37-1.31-2.24-.9l-.17,.08-.18-.2c-.25-.27-.65-.38-.99-.29-.45,.15-.9,.31-1.35,.46l-.39,.13-.21-.42c-.47-.95-.92-1.86-1.34-2.7l-.25-.5,.58-.36c.1-.06,.15-.16,.16-.24l.03-.34,.46-.15c.67-.22,1.27-.41,1.79-.58,.13-.04,.25-.08,.37-.12l.17-.05,.1-.04c.12-.05,.22-.11,.29-.17,.38-.31,.43-.7,.39-.93-.04-.25-.14-.39-.22-.47-.15-.16-.17-.15-.17-.15-.2-.15-.47-.22-.73-.19-.07,0-.13,.02-.19,.03l-.32,.09-.65,.18-2.61,.73-5.21,1.45-10.43,2.91-10.43,2.91-2.57,.72c-.5,.15-.82,.7-.69,1.15,.09,.46,.61,.8,1.12,.72,.09,0,.33-.08,.55-.14l.65-.18,1.3-.36,.46-.13,.34,.33s.09,.05,.15,.04l.81-.1,.11,.82,.41,2.98,.1,.73-.71,.2-1.32,.37c-.19,.07-.32,.26-.34,.43l-.07,.61-.54,.1c-.91,.17-1.15,1.19-.59,1.66,.29,.23,.63,.33,1.09,.18l1.94-.54,.94-.26,.13,.96,2.35,16.99,1.18,8.5,.29,2.12,.14,1.02c.04,.27,.12,.5,.25,.72,.49,.9,1.67,1.37,2.7,1.05,1.03-.27,1.81-1.29,1.76-2.3,0-.09-.03-.3-.05-.47l-.07-.53-.15-1.06-.29-2.12-1.17-8.49-2.33-16.97-.11-.77,.75-.21,15.31-4.27,.76-.21,.31,.73,9.54,22.1,1.19,2.76,.6,1.38,.3,.69c.1,.23,.21,.48,.27,.59,.36,.6,1.04,1,1.76,1.05,.72,.05,1.48-.23,1.96-.76,.49-.53,.71-1.28,.56-1.95-.04-.17-.1-.32-.19-.53l-.31-.71-.61-1.42-2.42-5.69c-2.39-6.52-4.68-12.81-7.07-18.89,2.98,6.52,6.04,12.88,9.01,19.07l2.31,5.33,.58,1.34,.15,.34c.06,.14,.12,.28,.17,.42,.09,.3,.16,.61,.18,.93,.09,1.27-.48,2.53-1.44,3.31-.96,.79-2.25,1.13-3.47,.89-1.22-.22-2.33-1.06-2.86-2.22l-2.36-5.47-9.44-21.87,1,.48-15.31,4.27,.62-.94,2.34,16.99,1.17,8.5,.29,2.12,.15,1.06,.07,.53c.02,.18,.05,.33,.06,.6,.09,1.89-1.29,3.59-3.03,4.05-1.73,.52-3.8-.23-4.7-1.88-.23-.4-.38-.86-.45-1.29l-.16-1.1-.29-2.12-1.18-8.48-2.35-16.97,1.13,.74-1.94,.54c-.36,.12-.94,.19-1.4,.09-.48-.09-.95-.31-1.33-.65-.77-.66-1.09-1.81-.77-2.78,.15-.48,.44-.91,.81-1.23,.18-.17,.39-.3,.61-.41,.2-.1,.51-.2,.63-.23l-.65,.76c.1-.83,.67-1.54,1.42-1.84,.09-.04,.2-.07,.27-.09l.18-.05,.35-.1,.71-.2-.65,1-.41-2.98,1,.78c-.54,.06-1.12-.12-1.54-.51l.86,.21-1.37,.38-.69,.19-.36,.1c-.17,.04-.34,.07-.51,.08-.7,.05-1.41-.17-1.97-.62-.56-.45-.92-1.15-.96-1.87-.05-.73,.21-1.45,.68-1.97,.23-.26,.51-.48,.83-.64,.16-.08,.32-.14,.48-.19l.36-.1,2.74-.76,10.96-3.06,10.96-3.06,5.48-1.53,1.37-.38,.34-.1c.17-.04,.34-.08,.52-.09,.35-.03,.71,0,1.05,.1,.68,.19,1.3,.66,1.65,1.31,.35,.64,.42,1.43,.19,2.12-.18,.52-.52,.96-.94,1.28-.21,.16-.44,.29-.68,.38-.12,.05-.26,.08-.36,.11l-.26,.06-2.1,.5,.53-.53c-.15,.51-.53,.91-.99,1.11l.37-.96,1.08,2.81-.73-.35,.72-.17,.36-.08c.11-.02,.24-.06,.42-.09,.68-.09,1.39,.19,1.8,.75l-.53-.18c.72-.24,1.73-.1,2.33,.48,.64,.56,.87,1.51,.59,2.27-.25,.77-1,1.33-1.7,1.44-.6,.14-1.22,.24-1.88,.37Z"/>
            </g>
          </g>
          <ellipse class="cls-13" cx="62.27" cy="53.26" rx="5.9" ry="5.66" transform="translate(-12 18.64) rotate(-15.55)"/>
          <ellipse class="cls-13" cx="91.6" cy="45.1" rx="3.13" ry="3" transform="translate(-8.74 26.2) rotate(-15.55)"/>
          <path d="M65.54,7.05c-.11,.03-.21,.06-.32,.09-.11,.03-.21,.06-.32,.08-8.16,2.03-14.16,2.52-17.48,2.61-1.36,.04-2.25,1.42-1.67,2.6l.75,1.5c.39,.77,1.29,1.16,2.16,.92l17.37-4.83,17.37-4.83c.87-.24,1.44-1.04,1.37-1.9l-.14-1.67c-.11-1.31-1.59-2.04-2.77-1.37-2.89,1.64-8.28,4.31-16.32,6.79Z"/>
          <rect class="cls-9" x="64.45" y="11.31" width="6.25" height="8.4" rx="3.13" ry="3.13" transform="translate(-1.68 18.68) rotate(-15.55)"/>
        </g>
        <path class="cls-5" d="M59.94,76.4c-.55-.5-1.39-.42-1.86,.16-1.81,2.25-2.96,4.66-3.46,7.21-1.25-3.03-1.54-6.38-.88-10.14,.07-.41,0-.81-.16-1.16-.14-.64-.51-1.22-1.1-1.58-1.12-.69-2.56-.29-3.21,.88-1.9,3.41-3.11,6.86-3.65,10.33-1.24-4.5-1.38-9.4-.45-14.78,.31-1.79-.82-3.5-2.52-3.83-1.7-.33-3.33,.86-3.64,2.64-1.98,11.37,.24,21.42,6.59,29.88,.77,1.03,2.02,1.45,3.16,1.17,.44-.11,.86-.31,1.23-.62,.76-.63,1.15-1.55,1.18-2.48,0-.09,0-.19,0-.28,0-.03,0-.05,0-.08,0-.22-.04-.45-.11-.67-1.17-3.72-1.39-7.37-.68-11.01,.62,2.78,1.82,5.36,3.59,7.73,.44,.58,1.14,.81,1.78,.66,.25-.06,.48-.18,.69-.35,.23-.19,.39-.43,.5-.68,.03-.06,.06-.12,.08-.19,0,0,0-.01,0-.02,.03-.11,.06-.22,.07-.33,0,0,0-.01,0-.02,0-.01,0-.03,0-.04,.02-.2,0-.4-.04-.6-.41-3.59,.57-6.81,3.02-9.84,.47-.58,.4-1.46-.15-1.96Z"/>
        <g>
          <g>
            <path class="cls-12" d="M74.32,37.12c.1-3.44-4.17-7.35-10.33-9.25-2.16-.67-4.36-1.02-6.36-1.02-.26,0-.52,0-.77,.02,2.01-.73,4.54-1.13,7.43-1.13,3.71,0,7.8,.66,11.84,1.9,10.86,3.35,18.94,10.34,18.55,15.75l-20.34-6.28Z"/>
            <path class="cls-14" d="M64.28,26.74c3.61,0,7.6,.64,11.54,1.86,5.65,1.75,10.63,4.46,14,7.66,2.09,1.98,3.38,3.98,3.74,5.76l-18.28-5.64c-.44-3.7-4.74-7.52-11.01-9.46-.19-.06-.37-.11-.56-.17,.18,0,.37,0,.56,0m0-2c-6.91,0-12.16,2.21-13.31,6.22,.58-2,3.2-3.11,6.65-3.11,1.85,0,3.93,.31,6.07,.97,6.14,1.9,10.4,5.93,9.52,9l22.24,6.87c1.77-6.15-6.75-14.21-19.03-18-4.27-1.32-8.44-1.95-12.13-1.95h0Z"/>
          </g>
          <ellipse class="cls-12" cx="84.33" cy="41.25" rx="5.79" ry="11.64" transform="translate(19.6 109.25) rotate(-72.48)"/>
        </g>
        <g>
          <g>
            <path class="cls-12" d="M72.24,53.09c-1.32-3.83-5.11-6.33-9.78-6.33-1.57,0-3.17,.28-4.75,.82-3.13,1.07-5.77,3.07-7.6,5.48,2.3-7.45,8.96-14.33,17.67-17.32,2.85-.98,5.72-1.47,8.53-1.47,8.54,0,15.12,4.52,17.02,11.59l-21.09,7.23Z"/>
            <path class="cls-14" d="M76.31,35.26c7.7,0,13.7,3.85,15.78,9.96l-19.28,6.61c-1.71-3.71-5.62-6.08-10.36-6.08-1.68,0-3.39,.29-5.07,.87-1.58,.54-3.05,1.31-4.36,2.24,3.07-5.33,8.46-9.92,15.09-12.19,2.75-.94,5.51-1.42,8.2-1.42m0-2c-2.83,0-5.82,.49-8.85,1.53-12.68,4.35-21.12,16.64-18.85,27.46-1.13-5.41,3.09-11.56,9.43-13.73,1.51-.52,3.01-.76,4.42-.76,4.52,0,8.24,2.5,9.1,6.62l22.95-7.87c-1.72-8.24-9.16-13.24-18.2-13.24h0Z"/>
          </g>
          <ellipse class="cls-12" cx="83.04" cy="50.44" rx="12.31" ry="9.78" transform="translate(-14.11 51.65) rotate(-31.99)"/>
        </g>
        <g>
          <path class="cls-14" d="M22.28,90.41c.52,2.32,1.25,4.51,2.12,6.64,.89,2.11,1.88,4.17,3.06,6.12,.28,.5,.6,.97,.91,1.45l.46,.72c.17,.23,.34,.46,.5,.69l.98,1.41c.37,.44,.72,.9,1.07,1.36,.34,.47,.71,.91,1.09,1.34l1.12,1.33c.76,.89,1.59,1.71,2.34,2.66-1.03-.59-2.04-1.23-3-1.94-.91-.76-1.9-1.47-2.71-2.35-1.76-1.64-3.18-3.62-4.47-5.65-1.22-2.08-2.2-4.32-2.82-6.65-.62-2.32-.96-4.75-.64-7.13Z"/>
          <path class="cls-14" d="M20.01,97.88c.76,1.2,1.43,2.38,2.07,3.56l1.94,3.49c.64,1.16,1.3,2.29,1.98,3.44,.68,1.15,1.42,2.25,2.14,3.49-1.28-.62-2.42-1.5-3.38-2.54-.96-1.04-1.82-2.17-2.48-3.41-.68-1.23-1.23-2.53-1.63-3.87-.4-1.34-.67-2.73-.64-4.16Z"/>
        </g>
        <g>
          <rect class="cls-14" x="104.01" y="40.72" width="2.76" height="33.17" rx="1.38" ry="1.38"/>
          <rect class="cls-14" x="109.31" y="42.57" width="2.58" height="25.8" rx="1.29" ry="1.29"/>
          <rect class="cls-14" x="114.5" y="42.57" width="2.6" height="29.48" rx="1.3" ry="1.3"/>
        </g>
      </g>
    </g>
  </g>
</svg>