<?xml version="1.0" encoding="UTF-8"?>
<svg xmlns="http://www.w3.org/2000/svg" xmlns:xlink="http://www.w3.org/1999/xlink" viewBox="0 0 161.87 180.87">
  <defs>
    <style>
      .cls-1 {
        fill: none;
      }

      .cls-2 {
        clip-path: url(#clippath);
      }

      .cls-3 {
        fill: #f7941d;
      }

      .cls-4, .cls-5 {
        fill: #fff;
      }

      .cls-6 {
        fill: #f386ae;
      }

      .cls-7, .cls-8, .cls-9 {
        fill: #fbb040;
      }

      .cls-10 {
        fill: #fecd8a;
      }

      .cls-11 {
        fill: #be1e2d;
      }

      .cls-12, .cls-13, .cls-14, .cls-15 {
        fill: #da1c5c;
      }

      .cls-16, .cls-17 {
        fill: #231f20;
      }

      .cls-18 {
        fill: #1c75bc;
      }

      .cls-19, .cls-20 {
        fill: #754c29;
      }

      .cls-8, .cls-17, .cls-20, .cls-13 {
        stroke-width: 2px;
      }

      .cls-8, .cls-17, .cls-20, .cls-13, .cls-9 {
        stroke-miterlimit: 10;
      }

      .cls-8, .cls-20, .cls-9 {
        stroke: #231f20;
      }

      .cls-17 {
        stroke: #000;
      }

      .cls-13 {
        stroke: #da1c5c;
      }

      .cls-21 {
        fill: #949498;
        mix-blend-mode: multiply;
        opacity: .75;
      }

      .cls-22 {
        isolation: isolate;
      }

      .cls-14 {
        opacity: .6;
      }

      .cls-5 {
        opacity: .5;
      }

      .cls-15 {
        opacity: .8;
      }
    </style>
    <clipPath id="clippath">
      <circle class="cls-1" cx="82.43" cy="75.4" r="58.96"/>
    </clipPath>
  </defs>
  <g class="cls-22">
    <g id="Layer_1" data-name="Layer 1">
      <circle class="cls-6" cx="82.43" cy="75.4" r="58.96"/>
      <g id="sagittarius">
        <g class="cls-2">
          <ellipse class="cls-21" cx="81.02" cy="175.34" rx="33.17" ry="5.53"/>
          <path class="cls-16" d="M72.88,138.58s-6.82-10.83-13.54,15.49l4.17,1.14s2.11-23.35,8.4-15.49l.98-1.14Z"/>
          <g>
            <path class="cls-20" d="M75.03,147.97l-.09-.02c-.68-1.74-2.21-3.1-4.19-3.45-3.01-.53-5.87,1.48-6.4,4.48s1.48,5.87,4.48,6.4c.18,.03,.35,.05,.53,.07l-1.24,12.76,2.74,.48,4.85-19.68c.12-.48-.2-.96-.68-1.05Z"/>
            <path class="cls-19" d="M75.11,144.19l-3.09-.54h0s-.02,0-.03,0c-3.08-.54-6.01,1.51-6.55,4.59-.54,3.08,1.51,6.01,4.59,6.55,0,0,.02,0,.03,0h0s1.15,.2,1.15,.2c.37,.32,.81,.55,1.32,.64,.02,0,.03,0,.05,0h0s2.53,.45,2.53,.45l.1-.39h.02s2.11-8.3,2.11-8.3c.31-1.47-.68-2.93-2.22-3.2Z"/>
            <path class="cls-17" d="M70.18,168.2h-1.47c-.38,0-.73,.24-.86,.6l-.99,2.69c-.22,.6,.22,1.23,.86,1.23h3.29c.62,0,1.06-.6,.88-1.19l-.83-2.69c-.12-.38-.47-.65-.88-.65Z"/>
          </g>
          <g>
            <path class="cls-20" d="M87,147.97l.09-.02c.68-1.74,2.21-3.1,4.19-3.45,3.01-.53,5.87,1.48,6.4,4.48s-1.48,5.87-4.48,6.4c-.18,.03-.35,.05-.53,.07l1.24,12.76-2.74,.48-4.85-19.68c-.12-.48,.2-.96,.68-1.05Z"/>
            <path class="cls-19" d="M86.92,144.19l3.09-.54h0s.02,0,.03,0c3.08-.54,6.01,1.51,6.55,4.59,.54,3.08-1.51,6.01-4.59,6.55,0,0-.02,0-.03,0h0s-1.15,.2-1.15,.2c-.37,.32-.81,.55-1.32,.64-.02,0-.03,0-.05,0h0s-2.53,.45-2.53,.45l-.1-.39h-.02s-2.11-8.3-2.11-8.3c-.31-1.47,.68-2.93,2.22-3.2Z"/>
            <path class="cls-17" d="M91.86,168.2h1.47c.38,0,.73,.24,.86,.6l.99,2.69c.22,.6-.22,1.23-.86,1.23h-3.29c-.62,0-1.06-.6-.88-1.19l.83-2.69c.12-.38,.47-.65,.88-.65Z"/>
          </g>
          <g>
            <path class="cls-7" d="M94.16,132.68c-2.64-12.5-8.29-21.78-13.15-22.1h0s0,0,0,0c0,0,0,0,0,0h0c-4.86,.33-10.5,9.61-13.15,22.1-1.32,6.26-2.38,15.21-.81,20.59,1.94,6.65,7.28,11.31,13.95,12.2h0s0,0,0,0c0,0,0,0,0,0h0c6.67-.88,12.02-5.55,13.95-12.2,1.57-5.38,.51-14.33-.81-20.59Z"/>
            <path d="M94.16,132.68s-.12-.53-.31-1.34c-.17-.82-.48-1.91-.85-3.05-.74-2.29-2.22-4.53-2.72-5.33-.46-.83-.74-1.21-.85-1.42l-.12-.2c-.3-.51-.63-.99-.96-1.48-.31-.5-.65-.96-.98-1.44-.32-.48-.68-.92-.97-1.41-.28-.5-.61-.94-.93-1.4-.68-.86-1.41-1.69-2.21-2.3-.78-.62-1.64-1.06-2.34-1.1-.87-.04-1.54-.76-1.55-1.62v-.03s0,0,0,0l1.78,1.65h0c-.08,.01-.17,0-.25,0h0s1.78-1.65,1.78-1.65h0c0,.87-.67,1.58-1.51,1.65h-.03c-.83,.07-1.83,.63-2.72,1.42-.89,.82-1.71,1.82-2.46,2.88-1.47,2.17-2.65,4.62-3.64,7.13-1.97,5.06-3.16,10.45-3.83,15.89-.32,2.72-.51,5.45-.42,8.12,.04,1.33,.17,2.65,.41,3.89,.24,1.22,.66,2.43,1.19,3.58,1.06,2.29,2.7,4.28,4.7,5.78,2.01,1.49,4.41,2.41,6.89,2.75h0c.91,.13,1.56,.9,1.56,1.79h0s-2.08-1.79-2.08-1.79h0c.18-.03,.36-.03,.52,0h.01s0,0,0,0l-2.08,1.79h0c0-.91,.68-1.67,1.56-1.79h.02c2.11-.3,4.15-1.02,5.94-2.15,1.79-1.13,3.33-2.66,4.49-4.44,.57-.9,1.09-1.84,1.46-2.84,.22-.49,.35-1.01,.52-1.52,.12-.51,.26-1.01,.33-1.55,.08-.53,.09-1.09,.2-1.63,.09-.55,.21-1.1,.28-1.67,.18-1.13,.34-2.28,.47-3.45,.45-1.94,.62-3.94,.53-5.91-.09-1.97-.44-3.91-.84-5.84,.41,1.98,.76,3.96,1.19,5.95,.43,1.99,.95,3.97,1.47,6.01,.18,1.2,.36,2.41,.41,3.65,.03,.61,.04,1.24,.01,1.87-.06,.63-.17,1.25-.31,1.88-.24,1.27-.6,2.53-1.1,3.7-.47,1.2-1.09,2.34-1.8,3.41-1.43,2.16-3.33,4.01-5.53,5.38-2.2,1.38-4.71,2.25-7.27,2.61l1.47-1.67h0v.04c0,.92-.74,1.66-1.66,1.66-.09,0-.19,0-.28-.02h0s.5,0,.5,0h0c-.9,.16-1.75-.44-1.91-1.34-.02-.09-.02-.19-.03-.28v-.05s0,0,0,0l1.47,1.67c-3.05-.41-6.02-1.56-8.51-3.41-2.48-1.85-4.5-4.32-5.79-7.11-.64-1.4-1.15-2.85-1.45-4.38-.3-1.51-.43-2.99-.48-4.46-.1-2.94,.11-5.81,.45-8.66,.7-5.68,1.94-11.33,4.05-16.75,1.07-2.7,2.33-5.35,4.01-7.84,.87-1.23,1.83-2.43,3.02-3.52,1.21-1.04,2.73-2.09,4.8-2.28l-1.72,1.84h0v-.09c0-.97,.79-1.76,1.76-1.76,.07,0,.15,0,.21,.01h0s-.28,0-.28,0h0c.96-.12,1.84,.56,1.96,1.52,0,.07,.01,.14,.01,.21v.1s0,0,0,0l-1.72-1.84c1.94,.16,3.41,1.1,4.56,2.07,1.16,.99,2.12,2.09,2.95,3.23,.45,.55,.85,1.13,1.2,1.74,.34,.61,.59,1.26,.87,1.89,.51,1.28,.92,2.59,1.25,3.91,.29,1.94,.63,3.8,.99,5.65l1.21,5.46Z"/>
          </g>
          <g>
            <polygon class="cls-8" points="85.05 172.99 87.84 172.99 89.51 157.9 83.66 157.9 85.05 172.99"/>
            <ellipse class="cls-7" cx="86.54" cy="153.68" rx="4.61" ry="8.29"/>
            <path class="cls-17" d="M85.06,172.74h2.79s1.14,3.1,1.14,3.1c.26,.69-.26,1.43-.99,1.43h-3.01c-.65,0-1.12-.63-.93-1.26l1.01-3.27Z"/>
          </g>
          <g>
            <polygon class="cls-8" points="74 172.99 76.78 172.99 78.45 157.9 72.6 157.9 74 172.99"/>
            <ellipse class="cls-7" cx="75.49" cy="153.68" rx="4.61" ry="8.29"/>
            <path class="cls-17" d="M74.01,172.74h2.79s1.14,3.1,1.14,3.1c.26,.69-.26,1.43-.99,1.43h-3.01c-.65,0-1.12-.63-.93-1.26l1.01-3.27Z"/>
          </g>
          <g>
            <g>
              <g>
                <path class="cls-4" d="M86.73,136.69c-.12,0-.23-.03-.34-.09l-.55-.31c-.32-.19-.43-.6-.25-.92l1.05-1.82c.12-.21,.34-.33,.58-.33,.12,0,.23,.03,.34,.09l.55,.32c.16,.09,.27,.23,.31,.41,.05,.17,.02,.35-.07,.51l-1.05,1.82c-.12,.21-.34,.33-.58,.33Z"/>
                <path class="cls-16" d="M87.24,133.45c.07,0,.14,.02,.21,.06l.55,.32c.2,.12,.27,.37,.15,.58l-1.05,1.82c-.08,.14-.22,.21-.37,.21-.07,0-.14-.02-.21-.06l-.55-.32c-.2-.12-.27-.37-.15-.58l1.05-1.82c.08-.14,.22-.21,.37-.21m0-.5h0c-.33,0-.63,.18-.8,.46l-1.05,1.82c-.12,.21-.16,.46-.09,.7,.06,.24,.22,.44,.43,.56l.55,.32c.14,.08,.3,.12,.46,.12,.33,0,.63-.18,.8-.46l1.05-1.82c.12-.21,.16-.46,.09-.7-.06-.24-.22-.44-.43-.56l-.55-.32c-.14-.08-.3-.12-.46-.12h0Z"/>
              </g>
              <g>
                <path class="cls-4" d="M87.33,138.73c-.12,0-.23-.03-.33-.09l-.55-.32c-.16-.09-.27-.23-.31-.41-.05-.17-.02-.35,.07-.51l1.05-1.82c.12-.21,.34-.34,.58-.34,.12,0,.23,.03,.33,.09l.55,.32c.16,.09,.27,.23,.31,.41,.05,.17,.02,.35-.07,.51l-1.05,1.82c-.12,.21-.34,.34-.58,.34Z"/>
                <path class="cls-16" d="M87.84,135.5c.07,0,.14,.02,.21,.06l.55,.32c.2,.12,.27,.37,.15,.58l-1.05,1.82c-.08,.14-.22,.21-.37,.21-.07,0-.14-.02-.21-.06l-.55-.32c-.2-.12-.27-.37-.15-.58l1.05-1.82c.08-.14,.22-.21,.37-.21m0-.5h0c-.33,0-.63,.18-.8,.46l-1.05,1.82c-.12,.21-.16,.46-.09,.7,.06,.24,.22,.44,.43,.56l.55,.32c.14,.08,.3,.12,.46,.12,.33,0,.63-.18,.8-.46l1.05-1.82c.12-.21,.16-.46,.09-.7-.06-.24-.22-.44-.43-.56l-.55-.32c-.14-.08-.3-.12-.46-.12h0Z"/>
              </g>
              <g>
                <path class="cls-4" d="M87.93,140.78c-.12,0-.23-.03-.33-.09l-.55-.32c-.16-.09-.27-.23-.31-.41-.05-.17-.02-.35,.07-.51l1.05-1.82c.12-.21,.34-.34,.58-.34,.12,0,.23,.03,.33,.09l.55,.32c.16,.09,.27,.23,.31,.41,.05,.17,.02,.35-.07,.51l-1.05,1.82c-.12,.21-.34,.34-.58,.34Z"/>
                <path class="cls-16" d="M88.43,137.55c.07,0,.14,.02,.21,.06l.55,.32c.2,.12,.27,.37,.15,.58l-1.05,1.82c-.08,.14-.22,.21-.37,.21-.07,0-.14-.02-.21-.06l-.55-.32c-.2-.12-.27-.37-.15-.58l1.05-1.82c.08-.14,.22-.21,.37-.21m0-.5c-.33,0-.63,.18-.8,.46l-1.05,1.82c-.12,.21-.16,.46-.09,.7,.06,.24,.22,.44,.43,.56l.55,.32c.14,.08,.3,.12,.46,.12,.33,0,.63-.18,.8-.46l1.05-1.82c.25-.44,.1-1-.34-1.26l-.55-.32c-.14-.08-.3-.12-.46-.12h0Z"/>
              </g>
              <g>
                <path class="cls-4" d="M88.52,142.83c-.12,0-.23-.03-.33-.09l-.55-.32c-.32-.19-.43-.6-.25-.92l1.05-1.82c.12-.21,.34-.34,.58-.34,.12,0,.23,.03,.33,.09l.55,.32c.32,.19,.43,.6,.25,.92l-1.05,1.82c-.12,.21-.34,.34-.58,.34Z"/>
                <path class="cls-16" d="M89.03,139.59c.07,0,.14,.02,.21,.06l.55,.32c.2,.12,.27,.37,.15,.58l-1.05,1.82c-.08,.14-.22,.21-.37,.21-.07,0-.14-.02-.21-.06l-.55-.32c-.2-.12-.27-.37-.15-.58l1.05-1.82c.08-.14,.22-.21,.37-.21m0-.5h0c-.33,0-.63,.18-.8,.46l-1.05,1.82c-.12,.21-.16,.46-.09,.7,.06,.24,.22,.44,.43,.56l.55,.32c.14,.08,.3,.12,.46,.12,.33,0,.63-.18,.8-.46l1.05-1.82c.12-.21,.16-.46,.09-.7-.06-.24-.22-.44-.43-.56l-.55-.32c-.14-.08-.3-.12-.46-.12h0Z"/>
              </g>
            </g>
            <g>
              <g>
                <path class="cls-4" d="M80.58,135.85c-.12,0-.23-.03-.33-.09l-.55-.32c-.16-.09-.27-.23-.31-.41-.05-.17-.02-.35,.07-.51l1.05-1.82c.12-.21,.34-.34,.58-.34,.12,0,.23,.03,.34,.09l.55,.32c.16,.09,.27,.23,.31,.41,.05,.17,.02,.35-.07,.51l-1.05,1.82c-.12,.21-.34,.34-.58,.34Z"/>
                <path class="cls-16" d="M81.09,132.61c.07,0,.14,.02,.21,.06l.55,.32c.2,.12,.27,.37,.15,.58l-1.05,1.82c-.08,.14-.22,.21-.37,.21-.07,0-.14-.02-.21-.06l-.55-.32c-.2-.12-.27-.37-.15-.58l1.05-1.82c.08-.14,.22-.21,.37-.21m0-.5h0c-.33,0-.63,.18-.8,.46l-1.05,1.82c-.12,.21-.16,.46-.09,.7,.06,.24,.22,.44,.43,.56l.55,.32c.14,.08,.3,.12,.46,.12,.33,0,.63-.18,.8-.46l1.05-1.82c.12-.21,.16-.46,.09-.7-.06-.24-.22-.44-.43-.56l-.55-.32c-.14-.08-.3-.12-.46-.12h0Z"/>
              </g>
              <g>
                <path class="cls-4" d="M81.18,137.89c-.12,0-.23-.03-.34-.09l-.55-.32c-.16-.09-.27-.23-.31-.41-.05-.17-.02-.35,.07-.51l1.05-1.82c.12-.21,.34-.34,.58-.34,.12,0,.23,.03,.33,.09l.55,.32c.32,.19,.43,.6,.25,.92l-1.05,1.82c-.12,.21-.34,.34-.58,.34Z"/>
                <path class="cls-16" d="M81.68,134.66c.07,0,.14,.02,.21,.06l.55,.32c.2,.12,.27,.37,.15,.58l-1.05,1.82c-.08,.14-.22,.21-.37,.21-.07,0-.14-.02-.21-.06l-.55-.32c-.2-.12-.27-.37-.15-.58l1.05-1.82c.08-.14,.22-.21,.37-.21m0-.5h0c-.33,0-.63,.18-.8,.46l-1.05,1.82c-.12,.21-.16,.46-.09,.7,.06,.24,.22,.44,.43,.56l.55,.32c.14,.08,.3,.12,.46,.12,.33,0,.63-.18,.8-.46l1.05-1.82c.12-.21,.16-.46,.09-.7-.06-.24-.22-.44-.43-.56l-.55-.32c-.14-.08-.3-.12-.46-.12h0Z"/>
              </g>
              <g>
                <path class="cls-4" d="M81.77,139.94c-.12,0-.23-.03-.33-.09l-.55-.32c-.32-.18-.43-.6-.25-.92l1.05-1.82c.12-.21,.34-.34,.58-.34,.12,0,.23,.03,.33,.09l.55,.32c.32,.19,.43,.6,.25,.92l-1.05,1.82c-.12,.21-.34,.34-.58,.34Z"/>
                <path class="cls-16" d="M82.28,136.71c.07,0,.14,.02,.21,.06l.55,.32c.2,.12,.27,.37,.15,.58l-1.05,1.82c-.08,.14-.22,.21-.37,.21-.07,0-.14-.02-.21-.06l-.55-.32c-.2-.12-.27-.37-.15-.58l1.05-1.82c.08-.14,.22-.21,.37-.21m0-.5c-.33,0-.63,.18-.8,.46l-1.05,1.82c-.12,.21-.16,.46-.09,.7,.06,.24,.22,.44,.43,.56l.55,.32c.14,.08,.3,.12,.46,.12,.33,0,.63-.18,.8-.46l1.05-1.82c.25-.44,.1-1-.34-1.26l-.55-.32c-.14-.08-.3-.12-.46-.12h0Z"/>
              </g>
              <g>
                <path class="cls-4" d="M82.37,141.99c-.12,0-.23-.03-.34-.09l-.55-.31c-.16-.09-.27-.24-.31-.41-.05-.17-.02-.35,.07-.51l1.05-1.82c.12-.21,.34-.33,.58-.33,.12,0,.23,.03,.33,.09l.55,.32c.32,.19,.43,.6,.25,.92l-1.05,1.82c-.12,.21-.34,.33-.58,.33Z"/>
                <path class="cls-16" d="M82.88,138.75c.07,0,.14,.02,.21,.06l.55,.32c.2,.12,.27,.37,.15,.58l-1.05,1.82c-.08,.14-.22,.21-.37,.21-.07,0-.14-.02-.21-.06l-.55-.32c-.2-.12-.27-.37-.15-.58l1.05-1.82c.08-.14,.22-.21,.37-.21m0-.5h0c-.33,0-.63,.18-.8,.46l-1.05,1.82c-.12,.21-.16,.46-.09,.7,.06,.24,.22,.44,.43,.56l.55,.32c.14,.08,.3,.12,.46,.12,.33,0,.63-.18,.8-.46l1.05-1.82c.12-.21,.16-.46,.09-.7-.06-.24-.22-.44-.43-.56l-.55-.32c-.14-.08-.3-.12-.46-.12h0Z"/>
              </g>
            </g>
            <g>
              <g>
                <path class="cls-4" d="M74.7,132.32c-.12,0-.23-.03-.33-.09l-.55-.32c-.32-.19-.43-.6-.25-.92l1.05-1.82c.12-.21,.34-.34,.58-.34,.12,0,.23,.03,.33,.09l.55,.32c.32,.18,.43,.6,.25,.92l-1.05,1.82c-.12,.21-.34,.34-.58,.34Z"/>
                <path class="cls-16" d="M75.21,129.09c.07,0,.14,.02,.21,.06l.55,.32c.2,.12,.27,.37,.15,.58l-1.05,1.82c-.08,.14-.22,.21-.37,.21-.07,0-.14-.02-.21-.06l-.55-.32c-.2-.12-.27-.37-.15-.58l1.05-1.82c.08-.14,.22-.21,.37-.21m0-.5h0c-.33,0-.63,.18-.8,.46l-1.05,1.82c-.12,.21-.16,.46-.09,.7,.06,.24,.22,.44,.43,.56l.55,.32c.14,.08,.3,.12,.46,.12,.33,0,.63-.18,.8-.46l1.05-1.82c.12-.21,.16-.46,.09-.7-.06-.24-.22-.44-.43-.56l-.55-.32c-.14-.08-.3-.12-.46-.12h0Z"/>
              </g>
              <g>
                <path class="cls-4" d="M75.3,134.37c-.12,0-.23-.03-.33-.09l-.55-.32c-.16-.09-.27-.23-.31-.41-.05-.17-.02-.35,.07-.51l1.05-1.82c.12-.21,.34-.34,.58-.34,.12,0,.23,.03,.34,.09l.55,.32c.16,.09,.27,.23,.31,.41,.05,.17,.02,.35-.07,.51l-1.05,1.82c-.12,.21-.34,.34-.58,.34Z"/>
                <path class="cls-16" d="M75.81,131.13c.07,0,.14,.02,.21,.06l.55,.32c.2,.12,.27,.37,.15,.58l-1.05,1.82c-.08,.14-.22,.21-.37,.21-.07,0-.14-.02-.21-.06l-.55-.32c-.2-.12-.27-.37-.15-.58l1.05-1.82c.08-.14,.22-.21,.37-.21m0-.5h0c-.33,0-.63,.18-.8,.46l-1.05,1.82c-.12,.21-.16,.46-.09,.7,.06,.24,.22,.44,.43,.56l.55,.32c.14,.08,.3,.12,.46,.12,.33,0,.63-.18,.8-.46l1.05-1.82c.25-.44,.1-1-.34-1.26l-.55-.32c-.14-.08-.3-.12-.46-.12h0Z"/>
              </g>
              <g>
                <path class="cls-4" d="M75.9,136.41c-.12,0-.23-.03-.34-.09l-.55-.32c-.16-.09-.27-.23-.31-.41-.05-.17-.02-.35,.07-.51l1.05-1.82c.12-.21,.34-.34,.58-.34,.12,0,.23,.03,.33,.09l.55,.32c.16,.09,.27,.23,.31,.41,.05,.17,.02,.35-.07,.51l-1.05,1.82c-.12,.21-.34,.34-.58,.34Z"/>
                <path class="cls-16" d="M76.4,133.18c.07,0,.14,.02,.21,.06l.55,.32c.2,.12,.27,.37,.15,.58l-1.05,1.82c-.08,.14-.22,.21-.37,.21-.07,0-.14-.02-.21-.06l-.55-.32c-.2-.12-.27-.37-.15-.58l1.05-1.82c.08-.14,.22-.21,.37-.21m0-.5h0c-.33,0-.63,.18-.8,.46l-1.05,1.82c-.12,.21-.16,.46-.09,.7,.06,.24,.22,.44,.43,.56l.55,.32c.14,.08,.3,.12,.46,.12,.33,0,.63-.18,.8-.46l1.05-1.82c.12-.21,.16-.46,.09-.7-.06-.24-.22-.44-.43-.56l-.55-.32c-.14-.08-.3-.12-.46-.12h0Z"/>
              </g>
              <g>
                <path class="cls-4" d="M76.49,138.46c-.12,0-.23-.03-.33-.09l-.55-.32c-.16-.09-.27-.23-.31-.41-.05-.17-.02-.35,.07-.51l1.05-1.82c.12-.21,.34-.34,.58-.34,.12,0,.23,.03,.33,.09l.55,.32c.16,.09,.27,.23,.31,.41,.05,.17,.02,.35-.07,.51l-1.05,1.82c-.12,.21-.34,.34-.58,.34Z"/>
                <path class="cls-16" d="M77,135.23c.07,0,.14,.02,.21,.06l.55,.32c.2,.12,.27,.37,.15,.58l-1.05,1.82c-.08,.14-.22,.21-.37,.21-.07,0-.14-.02-.21-.06l-.55-.32c-.2-.12-.27-.37-.15-.58l1.05-1.82c.08-.14,.22-.21,.37-.21m0-.5c-.33,0-.63,.18-.8,.46l-1.05,1.82c-.12,.21-.16,.46-.09,.7,.06,.24,.22,.44,.43,.56l.55,.32c.14,.08,.3,.12,.46,.12,.33,0,.63-.18,.8-.46l1.05-1.82c.12-.21,.16-.46,.09-.7-.06-.24-.22-.44-.43-.56l-.55-.32c-.14-.08-.3-.12-.46-.12h0Z"/>
              </g>
            </g>
            <g>
              <path class="cls-4" d="M85.52,134.72c-2.2,0-4.57-.67-6.69-1.89-5.14-2.97-7.58-8.38-5.46-12.06,1.17-2.03,3.54-3.2,6.49-3.2,2.2,0,4.57,.67,6.69,1.89,2.47,1.43,4.4,3.46,5.44,5.72,1.05,2.29,1.06,4.54,.02,6.34-1.17,2.03-3.54,3.2-6.49,3.2Zm-5.69-15.38c-2.26,0-4.04,.85-4.89,2.32-1.63,2.82,.52,7.13,4.8,9.6,1.87,1.08,3.94,1.67,5.82,1.67,2.26,0,4.04-.85,4.89-2.32,.78-1.35,.72-3.09-.17-4.89-.9-1.84-2.55-3.51-4.63-4.71-1.87-1.08-3.94-1.67-5.82-1.67Z"/>
              <path class="cls-16" d="M79.86,117.82c2.09,0,4.39,.61,6.56,1.86,5.02,2.9,7.42,8.15,5.37,11.72-1.17,2.02-3.53,3.07-6.27,3.07-2.09,0-4.39-.61-6.56-1.86-5.02-2.9-7.42-8.15-5.37-11.72,1.17-2.02,3.53-3.07,6.27-3.07m5.69,15.37c2.26,0,4.18-.83,5.11-2.44,1.7-2.94-.49-7.41-4.89-9.94-1.98-1.15-4.08-1.71-5.95-1.71-2.26,0-4.18,.83-5.11,2.44-1.7,2.94,.49,7.41,4.89,9.94,1.98,1.15,4.08,1.71,5.95,1.71m-5.69-15.87h0c-3.04,0-5.48,1.21-6.7,3.32-2.2,3.8,.29,9.37,5.55,12.4,2.15,1.24,4.57,1.93,6.81,1.93,3.04,0,5.48-1.21,6.7-3.32,2.2-3.8-.29-9.37-5.55-12.4-2.15-1.24-4.57-1.93-6.81-1.93h0Zm5.69,15.37c-1.84,0-3.86-.58-5.7-1.64-4.16-2.4-6.27-6.55-4.71-9.26,.8-1.39,2.51-2.19,4.68-2.19,1.84,0,3.87,.58,5.7,1.64,4.16,2.4,6.27,6.55,4.71,9.26-.8,1.39-2.51,2.19-4.68,2.19h0Z"/>
            </g>
          </g>
        </g>
        <g>
          <path class="cls-8" d="M72.23,123.28l-.71-.71-6.58,6.93c-.44,.46-1.21,.1-1.14-.53l.72-6.6h-3.11l-1.39,10.75c-.13,.97,.63,1.83,1.61,1.83s1.93-.26,2.76-.76l9.36-5.58c-1.12-1.76-1.64-3.62-1.53-5.32Z"/>
          <path class="cls-7" d="M72.52,122.13l-2.55,3.51,1.59,3.02,.18,.26c.61,.61,1.69,1.36,2.79,.25-1.65-2.31-2.34-4.82-2.02-7.04Z"/>
        </g>
        <g>
          <path class="cls-8" d="M85.8,127.19l11.74,7c.83,.5,1.79,.76,2.76,.76h0c.98,0,1.74-.86,1.61-1.83l-1.39-10.75h-3.11s.72,6.6,.72,6.6c.07,.63-.7,.99-1.14,.53l-6.58-6.93-4.62,4.62Z"/>
          <path class="cls-7" d="M85.31,123.85s-.04,.03-.06,.05c-1.21,1.21-1.21,3.16,0,4.37s3.16,1.21,4.37,0h0s2.34-2.34,2.34-2.34l-3.68-5.06-2.98,2.98Z"/>
        </g>
        <g>
          <g>
            <path class="cls-12" d="M129.82,97.28c-4.34-1.8-8.74-6.3-11.59-12.16-2.89-5.95-3.69-12.4-2.07-16.84,.67-1.83,1.72-3.24,3.07-4.11l7.81,16.07c-.83,.61-1.46,1.5-1.87,2.62-.96,2.62-.54,6.21,1.1,9.59,.94,1.94,2.18,3.59,3.55,4.84Z"/>
            <path class="cls-16" d="M118.87,65.72l6.93,14.26c-.67,.67-1.21,1.52-1.57,2.53-1.04,2.87-.62,6.75,1.14,10.37,.08,.17,.16,.33,.25,.49-2.49-2.19-4.8-5.21-6.49-8.69-2.78-5.71-3.56-11.87-2.03-16.06,.44-1.2,1.03-2.17,1.78-2.9m.8-2.93c-6.08,2.72-7.13,12.91-2.34,22.76,3.98,8.2,10.76,13.58,16.42,13.58,1.14,0,2.23-.22,3.25-.67-.51,.23-1.06,.34-1.63,.34-2.83,0-6.22-2.69-8.21-6.79-2.39-4.92-1.87-10.02,1.17-11.38l-8.67-17.83h0Z"/>
          </g>
          <g>
            <path class="cls-12" d="M126.71,79.96c-2.48,0-5.56-2.62-7.31-6.22-1.39-2.86-1.78-5.93-1.02-8.03,.36-.98,.93-1.66,1.7-2,.37-.17,.78-.25,1.22-.25,2.48,0,5.56,2.62,7.31,6.22,1.39,2.86,1.78,5.93,1.02,8.03-.36,.98-.93,1.66-1.7,2-.37,.17-.78,.25-1.22,.25Z"/>
            <path class="cls-12" d="M121.3,64.46c1.77,0,4.62,1.98,6.41,5.66,1.27,2.62,1.65,5.4,.98,7.25-.26,.72-.65,1.2-1.17,1.43-.24,.11-.51,.16-.81,.16-1.77,0-4.63-1.98-6.41-5.66-1.27-2.62-1.65-5.4-.98-7.25,.26-.72,.65-1.2,1.17-1.43,.24-.11,.51-.16,.81-.16m0-2c-.57,0-1.12,.11-1.63,.34-3.04,1.36-3.56,6.46-1.17,11.38,1.99,4.1,5.38,6.79,8.21,6.79,.57,0,1.12-.11,1.63-.34,3.04-1.36,3.56-6.46,1.17-11.38-1.99-4.1-5.38-6.79-8.21-6.79h0Z"/>
          </g>
        </g>
        <g>
          <path class="cls-7" d="M128.84,79.8c0,12.43-1.7,22.84-9.56,30.42-8.74,8.42-24.35,13.31-38.25,13.31-13.95,0-29.51-4.84-38.25-13.31-7.8-7.56-9.56-18.03-9.56-30.42,0-26.25,21.4-43.72,47.81-43.72,26.4,0,47.81,17.48,47.81,43.72Z"/>
          <path d="M128.47,79.8s.13,1.17,.27,2.99c.15,1.83,.27,4.32,.22,6.96-.05,2.64-.32,5.44-.81,7.83-.46,2.4-1.22,4.33-1.66,5.33-.97,1.98-1.6,2.89-1.88,3.37-.14,.24-.22,.35-.26,.41l-.04,.06c-1.47,2.2-3.28,4.21-5.29,5.9-2,1.7-4.15,3.2-6.4,4.49-4.51,2.56-9.34,4.44-14.3,5.74-2.48,.67-4.99,1.19-7.53,1.56-2.53,.4-5.1,.61-7.67,.72-2.57,.11-5.15,0-7.71-.2-2.56-.24-5.1-.58-7.62-1.08-5.02-1.02-9.98-2.52-14.65-4.73-2.35-1.08-4.62-2.35-6.77-3.84-2.15-1.47-4.2-3.14-6-5.11-3.63-3.92-5.99-8.89-7.23-13.95-1.26-5.07-1.61-10.23-1.66-15.31,.01-5.14,.57-10.4,2.19-15.37,1.66-4.96,4.21-9.61,7.5-13.66,3.3-4.04,7.28-7.54,11.77-10.17,4.48-2.65,9.35-4.58,14.37-5.83l3.8-.82,3.85-.49,.96-.12c.32-.03,.64-.03,.97-.05l1.93-.08,1.93-.08c.64-.02,1.29,.04,1.93,.05,5.16,.06,10.32,.94,15.27,2.45,4.94,1.54,9.75,3.68,14,6.73,4.26,3,8.04,6.73,11.03,11.03,2.37,3.82,3.85,8.1,4.84,12.35l.61,3.22c.12,1.08,.18,2.17,.28,3.25l.13,1.61-.04,1.62-.09,3.22-.36-3.27c-.06-.54-.1-1.09-.19-1.63l-.35-1.6c-.25-1.06-.42-2.14-.73-3.17l-1.02-3.08-.26-.76-.34-.74-.67-1.47-.67-1.46c-.22-.49-.54-.93-.8-1.39-.56-.91-1.07-1.85-1.66-2.72l-1.92-2.54c-2.85-3.92-6.43-7.31-10.46-10.03l-1.53-.99-.77-.5c-.26-.15-.54-.28-.81-.43-1.09-.55-2.15-1.14-3.25-1.67l-3.39-1.39c-1.14-.44-2.33-.74-3.49-1.12-4.71-1.31-9.59-2.05-14.51-2.07-4.91,.01-9.81,.58-14.55,1.8-9.41,2.56-18.15,7.88-24.01,15.63-2.9,3.88-5.06,8.28-6.38,12.93l-.47,1.75-.24,.88-.14,.9-.55,3.6c-.11,2.43-.3,4.84-.19,7.35,.12,4.96,.62,9.89,2,14.5,1.37,4.61,3.79,8.81,7.26,12.05,3.48,3.26,7.74,5.76,12.24,7.65,4.51,1.91,9.29,3.2,14.13,4.03,4.86,.77,9.78,1.07,14.68,.69,2.45-.18,4.89-.48,7.3-.95,2.42-.44,4.81-1.04,7.15-1.76,4.69-1.44,9.22-3.42,13.26-6.06,4.05-2.64,7.49-6.01,9.69-10.2,1.02-1.6,1.84-3.35,2.53-5.16,.7-1.81,1.24-3.72,1.66-5.66,.87-3.88,1.27-7.91,1.54-11.95Z"/>
        </g>
        <g>
          <path class="cls-7" d="M148.53,76.75s0,0,0,0h0c-2.88-4.59-7.45-7.06-12.18-5.94s-8.39,5.53-9.93,11.17h0s0,0,0,0c0,0,0,0,0,0h0c2.88,4.59,7.17,4.92,11.9,3.8,4.72-1.12,6.05-8.05,10.21-9.03h0s0,0,0,0Z"/>
          <path d="M148.9,76.69v.05s0,.06,0,.06v.04s0,0,0,0l-.45-.46h0s0,0,0,0l.4,.16h0s0,0,0,0h0s0,0,0,0c0,0-.02,0-.03-.02-.03-.02-.07-.04-.12-.07-.1-.06-.25-.14-.43-.24-.35-.2-.85-.43-1.34-.67-1.02-.46-2.08-.78-2.35-1-.26-.25-.42-.34-.49-.4l-.07-.05c-1.44-1.09-3.12-1.79-4.83-1.88-1.71-.11-3.45,.34-4.96,1.26-3.06,1.83-5.13,5.31-6.1,8.95-.17,.64-.67,1.1-1.27,1.24h-.02s0,0,0,0l1.07-2.66h0c.29,.43,.36,.94,.23,1.4v.04s-.01,0-.01,0l-2.09-2.19h0c.73-.18,1.46,.13,1.86,.73l.03,.05c.44,.67,.93,1.28,1.48,1.78,.56,.49,1.17,.88,1.84,1.15,1.34,.56,2.93,.63,4.59,.41,.41-.05,.83-.13,1.25-.21,.41-.09,.89-.19,1.13-.29,.59-.2,1.15-.54,1.7-1.07,1.11-1.03,2.08-2.55,3.26-4.13,.82-.51,1.66-1.03,2.6-1.4,.22-.1,.48-.16,.71-.24,.23-.08,.47-.13,.71-.16,.24-.02,.46-.09,.7-.06l.35,.02h.17s.08,.02,.08,.02h.04s.02,0,.02,0h.01s0,0,0,0h0c.15-.38,.05-.09,.09-.17v.03s0-.03,0-.03c.07-.18-.11,.21-.09,.17h0s0,0,0,0h0s-.02,.02-.02,.02l-.03,.02-.07,.05-.13,.09-.26,.18c-.17,.11-.31,.29-.45,.43-.15,.14-.27,.3-.38,.47-.12,.17-.23,.31-.33,.51-.41,.68-.7,1.47-1,2.27-1.07,1.4-2.07,3.08-3.69,4.57-.79,.74-1.81,1.41-2.97,1.76-.62,.22-1.02,.27-1.53,.39-.49,.09-.98,.18-1.49,.24-2,.25-4.24,.21-6.33-.68-1.04-.43-2-1.06-2.83-1.8-.82-.75-1.48-1.61-2.07-2.49l1.88,.77h0c-.93,.23-1.87-.35-2.1-1.28-.07-.3-.06-.62,.02-.89h0s.21,1.42,.21,1.42h0c-.53-.78-.33-1.85,.45-2.38,.17-.12,.36-.2,.56-.25h.06s0-.01,0-.01l-1.28,1.24c.6-2.21,1.51-4.35,2.81-6.3,1.32-1.93,3-3.7,5.16-4.9,2.13-1.2,4.68-1.84,7.2-1.54,2.52,.27,4.85,1.4,6.71,2.93,.53,.79,.99,1.57,1.35,2.39,.19,.4,.34,.82,.49,1.22,.08,.2,.14,.41,.2,.62l.09,.31,.05,.15,.02,.08v.04s.07,.18,.07,.18Z"/>
        </g>
        <g>
          <path class="cls-7" d="M14.31,76.75s0,0,0,0h0c2.88-4.59,7.45-7.06,12.18-5.94s8.39,5.53,9.93,11.17h0s0,0,0,0c0,0,0,0,0,0h0c-2.88,4.59-7.17,4.92-11.9,3.8s-6.05-8.05-10.21-9.03h0s0,0,0,0Z"/>
          <path d="M14.68,76.8v-.05s0-.06,0-.06v-.04s0,0,0,0l-.45,.46h0s0,0,0,0l.4-.16h0s0,0,0,0h0s0,0,0,0c0,0,0-.02,0-.03,0-.03,0-.07,.01-.13,.01-.11,.03-.28,.05-.48,.03-.41,.14-.94,.26-1.52,.27-1.14,.84-2.38,1.2-2.68,.34-.31,.54-.44,.62-.51l.09-.07c1.83-1.43,4.13-2.44,6.56-2.6,2.43-.19,4.88,.44,6.91,1.66,2.06,1.2,3.7,2.91,4.98,4.8,1.27,1.9,2.18,3.99,2.79,6.14l-1.29-1.25h0s.01,0,.01,0c.94,.22,1.52,1.15,1.3,2.09-.05,.21-.14,.41-.25,.57h0s.21-1.44,.21-1.44h0c.28,.92-.25,1.9-1.17,2.17-.3,.09-.6,.1-.89,.03h-.04s0,0,0,0l1.89-.78c-.58,.9-1.25,1.76-2.06,2.53-.83,.76-1.81,1.39-2.86,1.84-2.12,.91-4.39,.97-6.42,.72-.51-.06-1.01-.15-1.51-.23-.5-.11-.94-.17-1.58-.4-1.18-.38-2.24-1.06-3.04-1.82-1.64-1.52-2.67-3.2-3.75-4.58-.22-.81-.43-1.62-.77-2.36-.08-.2-.18-.35-.28-.54-.1-.19-.21-.36-.35-.52-.13-.15-.26-.36-.43-.49l-.25-.22-.13-.11-.07-.06-.03-.03h-.02s0-.02,0-.02h0s0,0,0,0c.15,.38,.05,.09,.09,.17v-.03s0,.03,0,.03c.07,.18-.11-.21-.09-.17h0s0,0,0,0h.01s.02,0,.02,0h.04s.09,0,.09,0h.17s.36,.03,.36,.03c.25,0,.47,.09,.71,.14,.25,.05,.48,.14,.7,.23,.23,.09,.47,.18,.68,.31,.9,.45,1.67,1.04,2.43,1.61,1.17,1.54,2.15,3.06,3.3,4.06,.57,.52,1.15,.87,1.77,1.05,.25,.11,.77,.19,1.17,.28,.42,.07,.84,.15,1.26,.19,1.66,.19,3.27,.1,4.6-.49,.67-.29,1.28-.69,1.83-1.19,.54-.52,1.02-1.13,1.45-1.8h0c.41-.65,1.17-.93,1.87-.77h0s-2.08,2.17-2.08,2.17h0c-.15-.5-.05-1.02,.21-1.43h0s1.06,2.64,1.06,2.64h0c-.64-.15-1.11-.63-1.28-1.22v-.02c-1.03-3.72-3.24-7.22-6.38-8.96-1.55-.85-3.32-1.26-5.02-1.04-1.7,.21-3.34,.99-4.73,2.15-.67,.26-1.38,.56-2.04,.97-.34,.19-.66,.42-.99,.65-.17,.11-.32,.24-.48,.36l-.24,.19-.12,.1-.06,.05-.03,.02h-.02s0,.02,0,.02h0c.09-.03-.77,.32-.41,.17h0c.9-.92,.26-.21,.46-.39,0,.03,0,.06,0,.08Z"/>
        </g>
        <path class="cls-10" d="M62.67,119.59c.1,.03,7.87,2.44,18.44,2.71,8.23,.21,18.3-2.67,18.3-2.67,0-8.86-9.66-15.09-18.52-15.09s-18.22,6.86-18.22,15.05Z"/>
        <ellipse class="cls-3" cx="81.02" cy="100.52" rx="9.9" ry="1.9"/>
        <g>
          <path class="cls-12" d="M83.58,118.59c-1.01-.17-1.85-.73-2.42-1.49-.47,.76-1.17,1.32-2,1.49-.6,.13-1.18,.05-1.7-.16,0,.06-.01,.12-.01,.17,0,1.53,1.65,2.76,3.69,2.76s3.67-1.23,3.68-2.75c-.4,.05-.81,.05-1.23-.02Z"/>
          <path class="cls-16" d="M83.58,118.59c-.47-.1-1-.01-1.65-.04-.31-.02-.64-.08-.92-.22-.33-.09-.45-.41-.65-.63l1.65-.07c-.47,.75-1.17,1.44-2.1,1.79-.92,.35-1.95,.31-2.84-.06l1.38-.84c-.05,.44,.21,.92,.73,1.28,.51,.36,1.19,.56,1.87,.57,.69,.01,1.38-.15,1.91-.49,.26-.17,.5-.36,.61-.6,.18-.18,.57-.29,.83-.65l.46,.41c-.48-.2-.88-.37-1.28-.43Zm0,0c.41,.08,.84-.08,1.18-.38l.18-.16,.28,.57c.25,.5,.35,1.24,.05,1.77-.37,.48-.77,.88-1.24,1.17-.93,.58-1.99,.81-3.02,.8-1.03-.02-2.08-.3-2.99-.94-.45-.32-.87-.74-1.17-1.27-.3-.53-.45-1.18-.4-1.81l.12-1.39,1.26,.55c.43,.19,.94,.19,1.36,.03,.42-.15,.82-.51,1.1-.97l.9-1.44,.75,1.37c.09,.17,.31,.21,.33,.45,.07,.19,.14,.43,.23,.66,.18,.48,.57,.92,1.06,.99Z"/>
        </g>
        <g>
          <path class="cls-16" d="M78.56,117.22c-.53,0-1.07-.35-1.13-.4-.51-.37-.68-.85-.74-1.03h0c-.66,0-1.05,.91-.62,1.5,.72,.99,1.86,1.55,3.09,1.29,.83-.17,1.52-.73,2-1.49,.57,.76,1.41,1.32,2.42,1.49,1.5,.26,2.88-.3,3.75-1.29,.52-.59,.05-1.5-.76-1.5-.38,.84-1.25,1.43-2.27,1.43-1.36,0-2.48-1.07-2.48-2.38h0v-3.11s0,0,0,0c0-.38-.27-.69-.6-.69h-.03s-.03,0-.04,.01c-.02,0-.03-.01-.05-.01h-.04c-.4,0-.72,.31-.72,.69v3.15c0,1.46-1.03,2.33-1.78,2.33Z"/>
          <path d="M79.14,112.61l-.44-.54c-1.29-1.58-.16-3.94,1.87-3.94h.88c2.04,0,3.16,2.36,1.87,3.94l-.44,.54c-.97,1.19-2.78,1.19-3.75,0Z"/>
        </g>
        <g>
          <ellipse class="cls-3" cx="117.61" cy="99.97" rx="1.39" ry="1.33"/>
          <ellipse class="cls-3" cx="114.46" cy="103.99" rx=".99" ry=".95"/>
          <ellipse class="cls-3" cx="120.03" cy="103.97" rx=".89" ry=".86"/>
        </g>
        <g>
          <ellipse class="cls-4" cx="104.71" cy="90.6" rx="13.32" ry="17.05"/>
          <ellipse class="cls-18" cx="103.22" cy="90.6" rx="11.1" ry="12.79"/>
          <ellipse cx="103.06" cy="90.6" rx="7.35" ry="9.4"/>
          <ellipse class="cls-4" cx="108.78" cy="82.52" rx="4.9" ry="4.7"/>
          <ellipse class="cls-4" cx="99.9" cy="96.33" rx="4.9" ry="4.7"/>
          <ellipse class="cls-4" cx="109.5" cy="91.62" rx="3.1" ry="2.97"/>
        </g>
        <g>
          <path class="cls-12" d="M95.59,44.96l1.82-1.8c9.05-8.92,22.71-7.76,30.51,2.59,7.8,10.35,6.79,25.97-2.26,34.89l-1.82,1.79c-5.83-13.5-15.52-25.91-28.24-37.47Z"/>
          <path d="M95.97,44.96s.23-.27,.59-.87c.19-.3,.42-.7,.73-1.15,.31-.43,.64-.89,.97-1.36,.33-.49,.74-.93,1.15-1.36,.41-.42,.79-.89,1.22-1.21,.84-.67,1.54-1.28,2-1.44,1.77-.77,1.77-.76,1.77-.76,2.81-1.04,5.86-1.46,8.86-1.21,3,.24,5.93,1.16,8.55,2.61,5.26,2.93,9.1,7.88,11.21,13.36,2.06,5.53,2.39,11.62,1.06,17.35-.68,2.86-1.82,5.63-3.37,8.15l-.58,.95-.66,.89c-.44,.6-.87,1.2-1.4,1.74-1.01,1.15-1.99,2.09-2.98,3.06l-1.85,1.83-1.04-2.39c-4.74-10.87-11.87-20.61-20.1-29.22-.99-1.55-2.04-3.06-3.11-4.57-.55-.76-1.04-1.48-1.66-2.28-.6-.8-1.1-1.52-1.6-2.11,.82,.62,1.61,1.12,2.32,1.59,.71,.49,1.52,1.11,2.27,1.66,1.52,1.15,3.04,2.31,4.53,3.53,8.36,8.78,15.67,18.77,20.57,30.02l-2.77-.54,1.5-1.49c.52-.5,.9-.97,1.36-1.46,.46-.46,.82-1.01,1.22-1.53,.19-.26,.4-.52,.58-.79l.51-.84c1.36-2.24,2.34-4.72,2.94-7.29,1.17-5.15,.74-10.66-1.21-15.54-1.92-4.88-5.56-9.09-10.14-11.37-4.58-2.32-10.11-2.47-14.78-.39-1.56,.36-3.04,1.03-4.51,1.81-.73,.4-1.4,.89-2.13,1.35-.58,.4-1.25,.75-2,1.28Z"/>
        </g>
        <g>
          <g>
            <path class="cls-12" d="M99.05,44.26c-.18-.49-.25-1.05-.19-1.69,.21-2.34,2.01-5.13,4.7-7.29,1.65-1.33,3.5-2.3,5.25-2.8-.12,.09-.25,.18-.37,.28-1.68,1.35-2.76,3.1-2.9,4.68-.05,.53,.01,1.03,.17,1.47l-6.66,5.35Z"/>
            <path class="cls-16" d="M105.08,35.38c-.3,.66-.48,1.32-.54,1.97-.04,.41-.02,.8,.04,1.18l-4.68,3.76c.33-1.98,1.98-4.39,4.28-6.24,.29-.24,.59-.46,.9-.67m6.27-4.3c-2.53,0-5.65,1.19-8.42,3.41-4.53,3.64-6.38,8.68-4.13,11.25l8.2-6.59c-1.12-1.29-.2-3.81,2.07-5.63,1.38-1.11,2.95-1.7,4.21-1.7,.8,0,1.49,.24,1.93,.74-.87-1-2.24-1.48-3.85-1.48h0Z"/>
          </g>
          <ellipse class="cls-12" cx="102.89" cy="42.46" rx="5.26" ry="3.09" transform="translate(-4.56 71.52) rotate(-37.56)"/>
        </g>
        <g>
          <path class="cls-4" d="M132.51,41.21H29.52c-10.51,0-19.79-5.31-25.07-13.28-.77-1.17-2.66-.63-2.66,.75v2.23c0,16.12,13.74,29.31,30.54,29.31h97.38c16.79,0,30.54-13.19,30.54-29.31v-2.23c0-1.38-1.88-1.92-2.66-.75-5.28,7.97-14.56,13.28-25.07,13.28Z"/>
          <path d="M132.51,40.83s-23.36,2-28.56,2h-5.19l-37.43,.03-18.71,.02h-9.36c-1.58,0-3.07,.04-4.73-.02-1.64-.02-3.28-.24-4.9-.51-3.24-.59-6.38-1.71-9.29-3.24-2.9-1.56-5.56-3.57-7.86-5.93-1.12-1.21-2.21-2.46-3.13-3.83l-.18-.25-.09-.13-.04-.06c-.12,.04,.1-.13,.1-.11,.09-.06,.14-.13,.13-.12-.01-.01-.04,.2-.02,.18,.02,0-.11-.2-.16-.2,.01,0,0,.01,.15,.03h.04c-.15,0,.25,0,.21,.03v.15s0,.29,0,.29c-.03,1.6,.08,3.03,.15,4.5,.23,1.44,.41,2.9,.85,4.3,.81,2.8,1.99,5.53,3.69,7.94,1.67,2.41,3.71,4.57,6.01,6.4,4.67,3.58,10.4,5.8,16.29,6.09,.75,.03,1.45,.09,2.23,.09h2.34s4.68,0,4.68,0h9.36s18.71-.02,18.71-.02l37.43-.03,18.71-.02h4.68s1.16,0,1.16,0l1.1-.06c.73-.06,1.47-.03,2.2-.15,2.93-.3,5.77-1.15,8.46-2.29,2.71-1.13,5.18-2.78,7.39-4.69,2.2-1.92,4.16-4.15,5.62-6.68,1.49-2.51,2.58-5.24,3.23-8.08,.22-1.44,.51-2.87,.52-4.33l.06-1.09v-1.16s0-.58,0-.58v-.29s0-.15,0-.15v-.07c.16-.02-.36-.06,.36-.06,.29-.01,.21-.07,.12,.05-.08,.09-.08,.17-.07,.1,.01-.06-.05-.2-.03-.15,.05,.06,0,0,.25,.23l-.33,.42-.66,.83c-.45,.54-.94,1.05-1.41,1.57-.5,.49-1,.99-1.51,1.46-2.08,1.87-4.39,3.44-6.85,4.68-4.91,2.48-10.41,3.57-15.72,3.23,5.46-.25,10.77-2,15.2-4.95,2.22-1.47,4.22-3.24,5.92-5.24,.42-.51,.85-1,1.22-1.54l.58-.79,.53-.82,.26-.41,.13-.21c.09-.14,.2-.28,.31-.41,.47-.53,1.17-.87,1.86-.94,.69-.07,1.38,.07,1.98,.45,.6,.37,1.11,1.03,1.29,1.77,.06,.21,.06,.42,.08,.63v.32s0,.59,0,.59v1.18c-.02,.81-.08,1.66-.12,2.48,0,.83-.18,1.65-.3,2.48-.12,.82-.25,1.65-.5,2.44-.23,.8-.39,1.62-.69,2.4l-.89,2.33c-.73,1.49-1.45,3-2.39,4.37-1.82,2.77-4.03,5.3-6.62,7.37-2.59,2.07-5.48,3.74-8.56,4.98-3.08,1.24-6.36,1.91-9.65,2.19l-2.48,.12h-2.36s-4.72,0-4.72,0l-18.88,.02-37.75,.03-18.88,.02h-9.44s-4.72,.01-4.72,.01c-.77,.02-1.64-.06-2.45-.09-.83-.03-1.66-.07-2.48-.22-3.3-.37-6.52-1.36-9.54-2.74-3.02-1.38-5.85-3.2-8.29-5.47-2.45-2.25-4.57-4.86-6.25-7.75-1.63-2.92-2.78-6.1-3.4-9.38-.12-.83-.29-1.65-.37-2.48L.02,31.33c-.04-.83-.01-1.59-.02-2.38v-.34c.02-.22,.02-.44,.09-.66,.1-.45,.32-.88,.61-1.24,.59-.71,1.4-1.11,2.24-1.18,.83-.09,1.78,.18,2.45,.79,.34,.28,.61,.73,.67,.79l.32,.45c.41,.61,.88,1.19,1.35,1.76,.95,1.13,1.98,2.2,3.1,3.15,1.1,.99,2.32,1.83,3.56,2.64,1.27,.75,2.57,1.48,3.94,2.03,2.72,1.17,5.63,1.87,8.58,2.14,.74,.09,1.48,.09,2.22,.12,.74,.03,1.56,0,2.33,.01h4.72s9.44-.01,9.44-.01l18.88-.02,37.75-.03,30.29,1.5Z"/>
        </g>
        <g>
          <path class="cls-12" d="M97.78,39.82c.89-2.78-.74-5.72-3.65-6.57h0c-26.19-7.66-53.93,6.39-61.95,31.38s6.69,51.46,32.88,59.13l5.27,1.54c14.37-22.56,27.46-55.65,27.46-85.47Z"/>
          <path d="M98.16,39.88s0-.06,.02-.18c.01-.12,.05-.27,.05-.53,.04-.48,0-1.19-.26-1.96-.27-.76-.76-1.6-1.52-2.24-.75-.65-1.7-1.08-2.78-1.2-2.27-.25-4.58-.7-6.61-.69-1-.06-1.92-.11-2.69-.15-.78-.03-1.42,.01-1.86-.02-1.77-.08-2.65-.12-3.09-.14l-.44,.02c-11.5,.11-22.9,4.41-31.56,11.91-4.33,3.74-7.96,8.29-10.61,13.35-2.65,5.06-4.35,10.62-4.91,16.3-1.14,11.39,2.58,23.07,9.81,31.92,3.6,4.44,8.03,8.19,12.97,11.05l1.85,1.08c.64,.31,1.3,.6,1.95,.9,1.3,.59,2.58,1.24,3.96,1.65l2.03,.7c.67,.24,1.35,.47,2.08,.66l4.27,1.24-2.02,.76c6-9.54,11.11-19.65,15.32-30.11,2.14-5.22,3.94-10.57,5.6-15.95,1.63-5.4,2.92-10.88,4-16.4,2.02-7.15,3.51-14.54,4.17-22.03,.49,7.69,.13,15.53-.85,23.28-1.1,5.6-2.47,11.14-4.1,16.6-1.69,5.44-3.54,10.83-5.69,16.1-4.27,10.55-9.43,20.74-15.5,30.4l-.68,1.08-1.24-.36-4.35-1.26c-1.44-.4-2.94-.98-4.4-1.47-1.5-.45-2.88-1.18-4.31-1.81-.7-.34-1.43-.62-2.11-1.01l-2.02-1.18c-5.38-3.16-10.18-7.31-14.05-12.22-3.87-4.91-6.8-10.56-8.53-16.59-1.73-6.02-2.25-12.39-1.48-18.62,.77-6.22,2.73-12.3,5.84-17.75,3.1-5.45,7.27-10.28,12.15-14.19,9.77-7.84,22.39-11.92,34.88-11.47l2.74,.31c.91,.15,1.8,.37,2.7,.54,.9,.19,1.79,.37,2.68,.58l2.61,.82,1.3,.41c.44,.15,.84,.24,1.34,.46,.95,.41,1.79,1.06,2.42,1.85,.64,.79,1.04,1.74,1.21,2.72,.16,.95,.02,2.03-.3,2.81Z"/>
        </g>
        <g>
          <g>
            <path class="cls-12" d="M95.04,34.45c.43-.27,.81-.66,1.12-1.15,.84-1.34,1.06-3.34,.58-5.35-.04-.19-.09-.37-.15-.55,1.09,1.4,1.99,3.27,2.49,5.34,.76,3.2,.46,6.42-.79,8.42-.29,.46-.72,1-1.33,1.37l-1.92-8.07Z"/>
            <path class="cls-16" d="M97.79,31.85c.12,.36,.22,.73,.31,1.12,.69,2.89,.46,5.76-.59,7.54l-1.35-5.66c.32-.29,.6-.63,.84-1.02,.36-.57,.62-1.25,.79-1.98m-5.45-8.09c-.29,0-.58,.03-.86,.09,.14-.03,.29-.05,.43-.05,1.59,0,3.25,1.84,3.85,4.37,.66,2.76-.19,5.31-1.9,5.68l2.38,10.01c3.41-.75,5.11-5.84,3.79-11.36-1.21-5.07-4.53-8.74-7.7-8.74h0Z"/>
          </g>
          <ellipse class="cls-12" cx="95.06" cy="38.87" rx="3.16" ry="5.14" transform="translate(-6.59 24.2) rotate(-14.02)"/>
        </g>
        <g>
          <g>
            <path class="cls-12" d="M84.72,32.67c.91-2.81-1.03-7.16-4.76-10.36-1.3-1.11-2.67-1.97-4-2.5,3.5,.14,7.89,2.21,11.84,5.61,6.31,5.42,9.98,12.97,8.68,17.36l-11.76-10.1Z"/>
            <path class="cls-16" d="M81.56,22.41c1.86,.91,3.77,2.19,5.6,3.75,4.68,4.02,8.68,10.32,8.63,14.68l-9.94-8.54c.54-2.91-1.09-6.75-4.28-9.89m-5.97-3.62c-2.4,0-4.34,.87-5.42,2.69,.54-.91,1.51-1.34,2.71-1.34,1.83,0,4.21,1.02,6.43,2.93,3.68,3.17,5.56,7.59,4.2,9.88l13.34,11.46c2.73-4.58-1.03-13.42-8.4-19.75-4.45-3.82-9.2-5.86-12.87-5.86h0Z"/>
          </g>
          <ellipse class="cls-12" cx="90.18" cy="38.67" rx="4.73" ry="8.85" transform="translate(-.74 75.58) rotate(-45.31)"/>
        </g>
        <g>
          <g>
            <path class="cls-11" d="M90.31,16.74h2.19c1.04,0,1.88-.81,1.88-1.8s-.84-1.8-1.88-1.8h-.19c-.21-.5-.71-.85-1.3-.85h-1.3l-.4-2.98c.31-.05,.57-.23,.72-.48h2.45c1.04,0,1.88-.81,1.88-1.8s-.84-1.8-1.88-1.8H59.08c-1.04,0-1.88,.81-1.88,1.8s.84,1.8,1.88,1.8h2.45c.15,.25,.41,.43,.72,.48l-.4,2.98h-1.3c-.59,0-1.09,.35-1.3,.85h-.13c-1.04,0-1.88,.81-1.88,1.8s.84,1.8,1.88,1.8h2.13l-3.85,28.49c-.34,1.9,1.19,3.64,3.2,3.64,1.58,0,2.94-1.1,3.2-2.59l4.03-29.54h15.89l4.03,29.54c.27,1.5,1.62,2.59,3.2,2.59,2.01,0,3.54-1.74,3.2-3.64l-3.85-28.49Zm-21.17-4.45h-.7l.41-2.99c.28-.06,.51-.23,.65-.47h12.56c.14,.23,.37,.4,.65,.47l.41,2.99h-.7c-.59,0-1.09,.35-1.3,.85h-10.68c-.21-.5-.71-.85-1.3-.85Z"/>
            <g>
              <path class="cls-1" d="M90.31,16.74h2.19c1.04,0,1.88-.81,1.88-1.8s-.84-1.8-1.88-1.8h-.19c-.21-.5-.71-.85-1.3-.85h-1.3l-.4-2.98c.31-.05,.57-.23,.72-.48h2.45c1.04,0,1.88-.81,1.88-1.8s-.84-1.8-1.88-1.8H59.08c-1.04,0-1.88,.81-1.88,1.8s.84,1.8,1.88,1.8h2.45c.15,.25,.41,.43,.72,.48l-.4,2.98h-1.3c-.59,0-1.09,.35-1.3,.85h-.13c-1.04,0-1.88,.81-1.88,1.8s.84,1.8,1.88,1.8h2.13l-3.85,28.49c-.34,1.9,1.19,3.64,3.2,3.64,1.58,0,2.94-1.1,3.2-2.59l4.03-29.54h15.89l4.03,29.54c.27,1.5,1.62,2.59,3.2,2.59,2.01,0,3.54-1.74,3.2-3.64l-3.85-28.49Zm-21.17-4.45h-.7l.41-2.99c.28-.06,.51-.23,.65-.47h12.56c.14,.23,.37,.4,.65,.47l.41,2.99h-.7c-.59,0-1.09,.35-1.3,.85h-10.68c-.21-.5-.71-.85-1.3-.85Z"/>
              <path d="M69.14,12.1s-.3,.13-.7,.3l-.07,.03-.04-.15c-.2-.74-.46-1.84-.42-2.16l.07-.5,.06-.43,.07-.55,.55-.13c.06-.01,.11-.06,.13-.1l.22-.39h.48s12.56-.06,12.56-.06h.48s.27,.42,.27,.42c.02,.03,.06,.06,.1,.06l.59,.11,.09,.62,.42,2.99,.14,1h-1.02s-.59,0-.59,0c-.12,0-.15,0-.19,0-.04,0-.07,.01-.11,.03-.14,.05-.25,.15-.29,.27l-.21,.55h-.62s-9.2,.04-9.2,.04l-1.48-.47-.44-.14v-.14c.05-.4-.27-.92-.86-1.09,.57-.14,1.31,.1,1.71,.74l-.41-.28,1.56-.37,9.12-.04-.79,.53c.25-.6,.76-1.06,1.35-1.26,.15-.05,.3-.09,.46-.1,.16-.02,.32-.02,.4-.02h.59s-.85,.97-.85,.97l-.42-2.99,.67,.73c-.49-.11-.94-.42-1.21-.86l.75,.42-12.56,.05,.8-.45c-.28,.46-.74,.78-1.24,.89l.72-.78-.1,.76-.87,2.15-.36-.42,.7,.18Z"/>
              <path d="M90.45,16.86s.22,0,.61,0c.4-.02,.96-.02,1.73-.12,.75-.13,1.52-.89,1.44-1.81-.05-.92-.97-1.63-1.92-1.46l-.18,.03-.12-.24c-.17-.33-.52-.54-.87-.55-.48,.03-.95,.05-1.42,.08l-.41,.02-.09-.46c-.2-1.04-.39-2.04-.56-2.96l-.1-.55,.66-.19c.11-.03,.19-.11,.22-.19l.12-.32,.48-.02c.7-.03,1.34-.05,1.88-.08,.14,0,.27,0,.39-.01h.18s.1-.01,.1-.01c.13-.02,.24-.05,.33-.09,.45-.2,.6-.56,.63-.79,.03-.25-.04-.41-.08-.51-.11-.2-.12-.19-.12-.19-.16-.2-.39-.34-.65-.38-.06-.01-.13-.02-.2-.02h-.33s-.68,0-.68,0h-2.71s-5.41,0-5.41,0h-10.83s-10.83,.01-10.83,.01h-2.66c-.52,.02-.97,.46-.98,.93-.04,.47,.37,.94,.89,.99,.09,.02,.34,.01,.57,.01h.68s1.35,0,1.35,0h.48s.24,.4,.24,.4c.02,.04,.07,.07,.13,.08l.81,.12-.11,.82-.4,2.98-.1,.73h-.74s-1.38,0-1.38,0c-.2,.02-.38,.16-.45,.32l-.23,.57-.55-.05c-.93-.08-1.43,.84-1.01,1.44,.22,.3,.51,.49,1.01,.47h2.01s.97,0,.97,0l-.13,.97-2.29,17-1.14,8.5-.29,2.13-.13,1.02c-.04,.27-.02,.51,.04,.76,.23,1,1.25,1.77,2.32,1.74,1.07,.02,2.09-.75,2.31-1.74,.03-.08,.05-.29,.08-.46l.07-.53,.14-1.06,.29-2.12,1.15-8.49,2.3-16.98,.1-.77h.78s15.89-.01,15.89-.01h.79s.11,.78,.11,.78l3.27,23.84,.41,2.98,.2,1.49,.1,.75c.03,.25,.07,.52,.1,.64,.19,.67,.73,1.24,1.41,1.49,.68,.24,1.49,.18,2.09-.21,.61-.38,1.03-1.04,1.06-1.73,0-.18,0-.33-.04-.56l-.1-.76-.21-1.53-.81-6.13c-.56-6.92-1.08-13.59-1.75-20.1,1.13,7.09,2.37,14.03,3.57,20.79l.8,5.75,.2,1.44,.05,.36c.02,.15,.04,.3,.05,.45,.01,.32,0,.63-.07,.94-.25,1.25-1.14,2.3-2.27,2.81-1.13,.51-2.47,.49-3.58-.07-1.11-.54-1.96-1.65-2.16-2.9l-.81-5.9-3.23-23.6,.84,.73h-15.89s.85-.73,.85-.73l-2.3,17-1.15,8.5-.29,2.12-.14,1.06-.07,.53c-.03,.18-.04,.33-.1,.59-.42,1.84-2.21,3.12-4.01,3.09-1.8,.04-3.59-1.24-4.02-3.07-.12-.44-.14-.93-.08-1.37l.15-1.1,.29-2.12,1.14-8.49,2.28-16.98,.89,1.02h-2.01c-.37,.02-.95-.07-1.37-.29-.44-.22-.83-.55-1.1-.98-.57-.85-.56-2.04,0-2.88,.27-.42,.66-.76,1.11-.97,.22-.11,.46-.18,.7-.23,.22-.04,.54-.06,.67-.05l-.83,.56c.32-.77,1.06-1.3,1.86-1.39,.1-.01,.21-.02,.29-.02h.18s.37,0,.37,0h.74s-.9,.78-.9,.78l.4-2.98,.75,1.02c-.54-.09-1.05-.41-1.35-.9l.78,.44h-1.42s-.71,0-.71,0h-.37c-.17,0-.35-.03-.52-.06-.68-.14-1.32-.54-1.73-1.13-.41-.58-.58-1.35-.43-2.06,.14-.71,.59-1.34,1.18-1.72,.29-.19,.63-.33,.97-.4,.17-.03,.34-.05,.52-.06h.38s2.84,0,2.84,0h11.38s11.38-.01,11.38-.01h5.69s1.42,0,1.42,0h.36c.17,0,.35,.02,.52,.05,.35,.06,.68,.19,.98,.38,.6,.37,1.07,.99,1.24,1.7,.17,.71,.02,1.49-.38,2.09-.31,.45-.76,.79-1.25,.98-.25,.09-.5,.16-.76,.18-.12,.02-.27,.01-.38,.01h-.27s-2.15-.09-2.15-.09l.66-.37c-.28,.45-.76,.74-1.26,.8l.61-.82,.29,3-.61-.54,.74,.03h.37c.11,.02,.25,.02,.43,.04,.68,.09,1.29,.56,1.53,1.2l-.47-.31c.76-.04,1.69,.37,2.11,1.09,.47,.71,.43,1.68-.04,2.35-.45,.68-1.32,1.01-2.02,.93-.61-.03-1.24-.09-1.91-.14Z"/>
            </g>
          </g>
          <ellipse class="cls-13" cx="60.57" cy="45.87" rx="3.13" ry="3"/>
          <ellipse class="cls-13" cx="91.01" cy="45.87" rx="3.13" ry="3"/>
          <path d="M76.11,2.23c-.11,0-.22,0-.33,0-.11,0-.22,0-.33,0-8.41-.23-14.32-1.36-17.54-2.17-1.32-.33-2.55,.77-2.3,2.06l.32,1.65c.16,.85,.93,1.46,1.83,1.46h36.05c.9,0,1.67-.62,1.83-1.46l.32-1.65c.25-1.29-.98-2.39-2.3-2.06-3.22,.8-9.14,1.93-17.54,2.17Z"/>
          <rect class="cls-9" x="72.68" y="6.73" width="6.25" height="8.4" rx="3.13" ry="3.13"/>
        </g>
        <path class="cls-5" d="M59.35,77.18c-.55-.5-1.39-.42-1.86,.16-1.81,2.25-2.96,4.66-3.46,7.21-1.25-3.03-1.54-6.38-.88-10.14,.07-.41,0-.81-.16-1.16-.14-.64-.51-1.22-1.1-1.58-1.12-.69-2.56-.29-3.21,.88-1.9,3.41-3.11,6.86-3.65,10.33-1.24-4.5-1.38-9.4-.45-14.78,.31-1.79-.82-3.5-2.52-3.83-1.7-.33-3.33,.86-3.64,2.64-1.98,11.37,.24,21.42,6.59,29.88,.77,1.03,2.02,1.45,3.16,1.17,.44-.11,.86-.31,1.23-.62,.76-.63,1.15-1.55,1.18-2.48,0-.09,0-.19,0-.28,0-.03,0-.05,0-.08,0-.22-.04-.45-.11-.67-1.17-3.72-1.39-7.37-.68-11.01,.62,2.78,1.82,5.36,3.59,7.73,.44,.58,1.14,.81,1.78,.66,.25-.06,.48-.18,.69-.35,.23-.19,.39-.43,.5-.68,.03-.06,.06-.12,.08-.19,0,0,0-.01,0-.02,.03-.11,.06-.22,.07-.33,0,0,0-.01,0-.02,0-.01,0-.03,0-.04,.02-.2,0-.4-.04-.6-.41-3.59,.57-6.81,3.02-9.84,.47-.58,.4-1.46-.15-1.96Z"/>
        <g>
          <g>
            <path class="cls-12" d="M73.74,37.89c.1-3.44-4.17-7.35-10.33-9.25-2.16-.67-4.36-1.02-6.36-1.02-.26,0-.52,0-.77,.02,2.01-.73,4.54-1.13,7.43-1.13,3.71,0,7.8,.66,11.84,1.9,10.86,3.35,18.94,10.34,18.55,15.75l-20.34-6.28Z"/>
            <path class="cls-16" d="M63.7,27.51c3.61,0,7.6,.64,11.54,1.86,5.65,1.75,10.63,4.46,14,7.66,2.09,1.98,3.38,3.98,3.74,5.76l-18.28-5.64c-.44-3.7-4.74-7.52-11.01-9.46-.19-.06-.37-.11-.56-.17,.18,0,.37,0,.56,0m0-2c-6.91,0-12.16,2.21-13.31,6.22,.58-2,3.2-3.11,6.65-3.11,1.85,0,3.93,.31,6.07,.97,6.14,1.9,10.4,5.93,9.52,9l22.24,6.87c1.77-6.15-6.75-14.21-19.03-18-4.27-1.32-8.44-1.95-12.13-1.95h0Z"/>
          </g>
          <ellipse class="cls-12" cx="83.75" cy="42.03" rx="5.79" ry="11.64" transform="translate(18.46 109.24) rotate(-72.48)"/>
        </g>
        <g>
          <g>
            <path class="cls-12" d="M71.66,53.86c-1.32-3.83-5.11-6.33-9.78-6.33-1.57,0-3.17,.28-4.75,.82-3.13,1.07-5.77,3.07-7.6,5.48,2.3-7.45,8.96-14.33,17.67-17.32,2.85-.98,5.72-1.47,8.53-1.47,8.54,0,15.12,4.52,17.02,11.59l-21.09,7.23Z"/>
            <path class="cls-16" d="M75.72,36.04c7.7,0,13.7,3.85,15.78,9.96l-19.28,6.61c-1.71-3.71-5.62-6.08-10.36-6.08-1.68,0-3.39,.29-5.07,.87-1.58,.54-3.05,1.31-4.36,2.24,3.07-5.33,8.46-9.92,15.09-12.19,2.75-.94,5.51-1.42,8.2-1.42m0-2c-2.83,0-5.83,.49-8.85,1.53-12.68,4.35-21.12,16.64-18.85,27.46-1.13-5.41,3.09-11.56,9.43-13.73,1.51-.52,3.01-.76,4.42-.76,4.52,0,8.24,2.5,9.1,6.62l22.95-7.87c-1.72-8.24-9.16-13.24-18.2-13.24h0Z"/>
          </g>
          <ellipse class="cls-12" cx="82.45" cy="51.22" rx="12.31" ry="9.78" transform="translate(-14.61 51.46) rotate(-31.99)"/>
        </g>
        <path class="cls-17" d="M61.38,122.67l3.01,.81,2.13-3.01c.48-.67,.14-1.61-.66-1.83l-3.25-.87c-.71-.19-1.39,.36-1.37,1.09l.14,3.82Z"/>
        <path class="cls-17" d="M100.37,122.67l-3.01,.81-2.13-3.01c-.48-.67-.14-1.61,.66-1.83l3.25-.87c.71-.19,1.39,.36,1.37,1.09l-.14,3.82Z"/>
        <g>
          <path class="cls-12" d="M126.25,32.51c-2.11,.94-4.39,1.09-6.57,1.9-.1-2.1-1.17-3.37-2.28-5.06-1.48-2.26-2.09-7.53,2.01-7.21,1.09,.09,1.99,.91,2.62,1.81,.59,.85,1.01,1.8,1.26,2.8,1.03-2.01,3.5-3.16,5.71-2.66,.39,.09,.78,.23,1.09,.48,.29,.23,.49,.55,.64,.89,.62,1.41,.21,3.13-.74,4.35-.95,1.22-2.28,2.08-3.73,2.71Z"/>
          <path class="cls-15" d="M138.37,19.71c-1.58,.7-3.29,.82-4.93,1.42-.07-1.57-.88-2.53-1.71-3.79-1.11-1.7-1.57-5.65,1.51-5.41,.82,.06,1.5,.68,1.97,1.36,.44,.63,.76,1.35,.94,2.1,.77-1.51,2.63-2.37,4.28-2,.29,.07,.58,.17,.82,.36,.22,.18,.37,.42,.48,.67,.46,1.06,.16,2.35-.55,3.26-.71,.91-1.71,1.56-2.8,2.03Z"/>
          <path class="cls-14" d="M143,9.21c-1.05,.47-2.2,.55-3.29,.95-.05-1.05-.59-1.69-1.14-2.53-.74-1.13-1.05-3.77,1.01-3.61,.55,.04,1,.45,1.31,.9,.29,.42,.51,.9,.63,1.4,.52-1,1.75-1.58,2.85-1.33,.19,.04,.39,.11,.54,.24,.14,.12,.25,.28,.32,.45,.31,.71,.11,1.57-.37,2.17-.48,.61-1.14,1.04-1.86,1.35Z"/>
        </g>
      </g>
      <g id="angry_bird" data-name="angry bird">
        <path d="M143.73,124.52l.52,5.91c.02,.22-.1,.43-.3,.53-.68,.33-1.11,1.04-1.05,1.87l-.02,1.47c0,.32,.27,.6,.6,.6,.28,0,.5-.21,.5-.49l.02-1.49v-.03c-.01-.34,.13-.67,.38-.86l.2,2.33c.03,.3,.29,.55,.59,.55,.3,0,.52-.24,.5-.54l-.2-2.34c.29,.18,.51,.49,.54,.84l.29,1.55c.05,.28,.31,.49,.59,.5,.32,0,.55-.28,.49-.6l-.27-1.47c-.09-.86-.68-1.59-1.45-1.9-.18-.07-.29-.25-.31-.44l-.53-6.05c-.02-.28-.26-.49-.54-.5h0c-.32,0-.57,.27-.54,.59Z"/>
        <path d="M137.79,124.52l-.52,5.91c-.02,.22,.1,.43,.3,.53,.68,.33,1.11,1.04,1.05,1.87l.02,1.47c0,.32-.27,.6-.6,.6-.28,0-.5-.21-.5-.49l-.02-1.49v-.03c.01-.34-.13-.67-.38-.86l-.2,2.33c-.03,.3-.29,.55-.59,.55-.3,0-.52-.24-.5-.54l.2-2.34c-.29,.18-.51,.49-.54,.84l-.29,1.55c-.05,.28-.31,.49-.59,.5-.32,0-.55-.28-.49-.6l.27-1.47c.09-.86,.68-1.59,1.45-1.9,.18-.07,.29-.25,.31-.44l.53-6.05c.02-.28,.26-.49,.54-.5h0c.32,0,.57,.27,.54,.59Z"/>
        <path d="M146.5,92.56c-1.39-1.2-3.53-1.01-4.78,.44-.62,.72-.6,1.58-.73,2.41l-.03,.03c-.21-.72-.35-1.47-1-2.03-1.44-1.25-3.59-1.13-4.79,.26-.12,.14-.46,.33-.32,.45,1.26,1.08,3.1-1,4.39,.12,.93,.8,1.33,1.97,1.19,3.07-.33,.76-.57,1.54-.76,2.34l1.63-1.89,.69,.6,.38,1.1c.04-.23,.06-.47,.08-.7l.44,.38c-.12-.32-.26-.63-.41-.93,0-.19,.02-.39,.01-.58,.21-.81,.81-1.51,1.68-1.81,1.21-.42,1.92,1.54,3.1,1.13,.13-.05-.05-.27-.1-.4-.45-1.3-1.92-1.98-3.27-1.51-.68,.24-.98,.8-1.38,1.29h-.04s-.61,.74-.61,.74c-.03-.04-.05-.09-.07-.13-.3-1.07-.07-2.28,.73-3.21,1.12-1.3,3.25,.5,4.33-.76,.12-.14-.24-.27-.38-.4Z"/>
        <path d="M145.59,130.33l-9.71-.02c-6.84-.01-12.2-5.55-11.62-11.98l.78-8.55c.65-7.15,6.99-12.64,14.59-12.62h2.38c7.6,.02,13.92,5.54,14.53,12.69l.73,8.56c.55,6.44-4.84,11.95-11.68,11.93Z"/>
        <path class="cls-12" d="M143.16,119.42c0,2.26-1.07,4.09-2.4,4.09s-2.4-1.83-2.4-4.09,1.07-3.66,2.4-3.66,2.4,1.4,2.4,3.66Z"/>
        <path class="cls-7" d="M140.56,115.48c-1.16,0-2.1,1.12-2.1,2.51l1.86,2.68c.12,.17,.36,.18,.49,.02l2.26-2.7c0-1.39-1.12-2.52-2.51-2.52Z"/>
        <g>
          <ellipse class="cls-4" cx="148.07" cy="110.92" rx="5.04" ry="6.45"/>
          <ellipse class="cls-18" cx="148.15" cy="110.92" rx="4.2" ry="4.84"/>
          <ellipse class="cls-4" cx="150.26" cy="107.87" rx="1.85" ry="1.78"/>
          <ellipse class="cls-4" cx="146.9" cy="113.09" rx="1.85" ry="1.78"/>
          <ellipse class="cls-4" cx="150.53" cy="111.31" rx="1.17" ry="1.12"/>
        </g>
        <g>
          <ellipse class="cls-4" cx="134.14" cy="110.89" rx="5.04" ry="6.45"/>
          <ellipse class="cls-18" cx="134.22" cy="110.89" rx="4.2" ry="4.84"/>
          <ellipse class="cls-4" cx="136.33" cy="107.84" rx="1.85" ry="1.78"/>
          <ellipse class="cls-4" cx="132.97" cy="113.06" rx="1.85" ry="1.78"/>
          <ellipse class="cls-4" cx="136.6" cy="111.28" rx="1.17" ry="1.12"/>
        </g>
        <path d="M150.9,107.19s0,0,0,0c0,0,0,0,0,0h0c2.23,1.53,4.17,4.82,4.97,8.88,.19,.95,.3,1.88,.34,2.79,.63,1.78,.96,3.53,1.03,5.13,.88,2.42,1.11,4.75,.69,6.55h0s0,0,0,0c0,0,0,0,0,0h0c-2.61-.68-4.89-3.52-7.03-7.05-2.14-3.54-1.1-6.39-2.98-9.5h0s0,0,0,0c0,0,0,0,0,0h0c.72,.19,1.48,.52,2.23,.96,.03-1.48,.05-2.92-.58-4.53h0s0,0,0,0c0,0,0,0,0,0h0c.41,.19,.82,.43,1.23,.71,.23-1.24,.38-2.48,.1-3.93h0Z"/>
        <path d="M130.63,107.3s0,0,0,0c0,0,0,0,0,0h0c-2.23,1.53-4.17,4.82-4.97,8.88-.19,.95-.3,1.88-.34,2.79-.63,1.78-.96,3.53-1.03,5.13-.88,2.42-1.11,4.75-.69,6.55h0s0,0,0,0c0,0,0,0,0,0h0c2.61-.68,4.89-3.52,7.03-7.05,2.14-3.54,1.1-6.39,2.98-9.5h0s0,0,0,0c0,0,0,0,0,0h0c-.72,.19-1.48,.52-2.23,.96-.03-1.48-.05-2.92,.58-4.53h0s0,0,0,0c0,0,0,0,0,0h0c-.41,.19-.82,.43-1.23,.71-.23-1.24-.38-2.48-.1-3.93h0Z"/>
      </g>
    </g>
  </g>
</svg>