<svg xmlns="http://www.w3.org/2000/svg" xmlns:xlink="http://www.w3.org/1999/xlink" viewBox="0 0 249.17 277.07"><defs><style>.cls-1{fill:none;}.cls-2{isolation:isolate;}.cls-3{fill:#f087b0;}.cls-4{fill:#131309;}.cls-14,.cls-20,.cls-5{fill:#f9b233;}.cls-21,.cls-6{fill:#fff;}.cls-7{clip-path:url(#clip-path);}.cls-8{fill:#9b999b;opacity:0.75;mix-blend-mode:multiply;}.cls-12,.cls-9{fill:#1d1d1b;}.cls-10,.cls-11{fill:#7d4e24;}.cls-10,.cls-14,.cls-15,.cls-20{stroke:#1d1d1b;}.cls-10,.cls-12,.cls-14,.cls-15,.cls-19,.cls-20{stroke-miterlimit:10;}.cls-10,.cls-12,.cls-14,.cls-19{stroke-width:2px;}.cls-12{stroke:#131309;}.cls-13{fill:#be1622;}.cls-15{fill:#1d71b8;}.cls-16,.cls-19{fill:#d60b52;}.cls-17{fill:#fdd28e;}.cls-18{fill:#f39200;}.cls-19{stroke:#d60b52;}.cls-21{opacity:0.5;}</style><clipPath id="clip-path" transform="translate(-168.28 -266.96)"><circle class="cls-1" cx="293.55" cy="382.03" r="90.71"/></clipPath></defs><title>maniaj</title><g class="cls-2"><g id="Layer_1" data-name="Layer 1"><circle class="cls-3" cx="125.27" cy="115.06" r="90.71"/><g id="angry_bird" data-name="angry bird"><path class="cls-4" d="M375.12,355.4,372,364a.8.8,0,0,1-.75.54,2.9,2.9,0,0,0-2.68,1.92l-1,2a.94.94,0,0,0,.44,1.23.76.76,0,0,0,1-.36l1-2.07v0a1.6,1.6,0,0,1,1.1-1l-1.24,3.38a.93.93,0,0,0,.47,1.14.76.76,0,0,0,1.05-.43l1.25-3.4a1.72,1.72,0,0,1,.19,1.53l-.6,2.34a1,1,0,0,0,.49,1.08.76.76,0,0,0,1.08-.52l.58-2.23a3.62,3.62,0,0,0-.79-3.6.79.79,0,0,1-.14-.82l3.2-8.78a.84.84,0,0,0-.43-1h0A.83.83,0,0,0,375.12,355.4Z" transform="translate(-168.28 -266.96)"/><path class="cls-4" d="M366.84,351.54l-4.56,7.9a.8.8,0,0,0,.07.92,2.92,2.92,0,0,1,.25,3.29l-.92,2.06a1,1,0,0,1-1.23.45.75.75,0,0,1-.38-1l.94-2.1,0,0a1.61,1.61,0,0,0,0-1.45l-1.79,3.12a.93.93,0,0,1-1.18.37.75.75,0,0,1-.34-1.08l1.8-3.13a1.71,1.71,0,0,0-1.3.82l-1.4,2a1,1,0,0,1-1.15.31.76.76,0,0,1-.29-1.16l1.33-1.88a3.6,3.6,0,0,1,3.27-1.7.82.82,0,0,0,.72-.42l4.67-8.1a.83.83,0,0,1,1.07-.34h0A.84.84,0,0,1,366.84,351.54Z" transform="translate(-168.28 -266.96)"/><path class="cls-4" d="M342.93,343.6h0c.76-4.09,4.17-8.88,9.37-12.54a29.41,29.41,0,0,1,3.71-2.23,27,27,0,0,1,6.57-4.65,18.43,18.43,0,0,1,8.77-5.07h0c.69,4.1-1.87,9.08-5.51,14.3s-8.29,5.53-11.49,10.13h0a13.65,13.65,0,0,1-.05-3.74,17.32,17.32,0,0,0-6,3.65h0a12.92,12.92,0,0,1,.23-2.17,15.24,15.24,0,0,0-5.58,2.32Z" transform="translate(-168.28 -266.96)"/><path d="M399.75,312.63a5.22,5.22,0,0,0-6.94-2.5c-1.35.6-1.87,1.82-2.59,2.88l-.06,0a5.76,5.76,0,0,0-.08-3.48,5.22,5.22,0,0,0-6.85-2.75c-.26.11-.86.15-.74.41,1.05,2.33,5,.62,6.05,3a5.35,5.35,0,0,1-.33,5.05,21.77,21.77,0,0,0-2.58,2.77l3.51-1.58.58,1.29-.18,1.78c.2-.3.38-.61.56-.93l.37.82c0-.52,0-1.05,0-1.57.13-.27.27-.53.39-.81a4,4,0,0,1,3.52-1.43c2,.21,1.68,3.4,3.58,3.6.22,0,.1-.41.12-.63a3.9,3.9,0,0,0-3.57-4.22,4.91,4.91,0,0,0-2.76.9h-.06l-1.33.61c0-.07,0-.15,0-.22a5.32,5.32,0,0,1,3.11-4c2.4-1.08,4.2,2.81,6.53,1.76C400.29,313.31,399.87,312.89,399.75,312.63Z" transform="translate(-168.28 -266.96)"/><path class="cls-4" d="M373.93,364.71l-13.53-6.34C350.88,353.9,347,342.7,352,334.1l6.64-11.42c5.56-9.55,18-13.07,28.56-8.11l3.31,1.55c10.58,5,15.81,16.76,12,27.14L398,355.67C394.56,365,383.46,369.18,373.93,364.71Z" transform="translate(-168.28 -266.96)"/><path class="cls-5" d="M376.57,340.73c-1.61-.76-3.65.19-4.56,2.13l.85,4.95a.47.47,0,0,0,.67.35l4.9-2.29A3.85,3.85,0,0,0,376.57,340.73Z" transform="translate(-168.28 -266.96)"/><ellipse class="cls-6" cx="389.52" cy="338.07" rx="10.88" ry="8.5" transform="translate(-249.78 281.26) rotate(-65)"/><circle class="cls-4" cx="389.52" cy="338.07" r="2.25" transform="translate(-249.78 281.26) rotate(-65)"/><ellipse class="cls-6" cx="370.38" cy="329.48" rx="10.88" ry="8.5" transform="translate(-253.05 258.95) rotate(-65)"/><circle class="cls-4" cx="370.38" cy="329.48" r="2.25" transform="translate(-253.05 258.95) rotate(-65)"/><path class="cls-4" d="M396.56,331.09h0c2.64,3.21,4.12,8.9,3.59,15.24a30,30,0,0,1-.68,4.27,26.91,26.91,0,0,1-.66,8,18.3,18.3,0,0,1-1.76,10h0c-3.58-2.11-5.74-7.28-7.41-13.41s1.09-9.92-.37-15.32h0a13.75,13.75,0,0,1,2.89,2.36,17.14,17.14,0,0,0,1.07-6.95h0a12.06,12.06,0,0,1,1.52,1.58,15.46,15.46,0,0,0,1.81-5.78Z" transform="translate(-168.28 -266.96)"/></g><g id="sagittarius"><g class="cls-7"><ellipse class="cls-8" cx="124.59" cy="268.57" rx="51.02" ry="8.5"/><path class="cls-9" d="M280.36,479s-10.5-16.67-20.83,23.83l6.42,1.75s3.25-35.91,12.91-23.83Z" transform="translate(-168.28 -266.96)"/><path class="cls-10" d="M283.67,493.42l-.13,0a8.5,8.5,0,1,0-9.4,11.44,7.6,7.6,0,0,0,.8.1L273,524.57l4.22.75L284.72,495A1.33,1.33,0,0,0,283.67,493.42Z" transform="translate(-168.28 -266.96)"/><path class="cls-11" d="M283.79,487.6l-4.75-.84h0a8.7,8.7,0,0,0-3,17.14h0l1.77.31a4.2,4.2,0,0,0,2,1h.08l3.89.68.14-.59h0l3.24-12.77A4.17,4.17,0,0,0,283.79,487.6Z" transform="translate(-168.28 -266.96)"/><path class="cls-12" d="M276.2,524.54h-2.26a1.41,1.41,0,0,0-1.32.92l-1.53,4.14a1.41,1.41,0,0,0,1.32,1.9h5.06a1.41,1.41,0,0,0,1.35-1.83l-1.27-4.14A1.41,1.41,0,0,0,276.2,524.54Z" transform="translate(-168.28 -266.96)"/><path class="cls-10" d="M302.08,493.42l.13,0a8.5,8.5,0,1,1,9.4,11.44,7.6,7.6,0,0,1-.8.1l1.91,19.63-4.22.75L301,495A1.33,1.33,0,0,1,302.08,493.42Z" transform="translate(-168.28 -266.96)"/><path class="cls-11" d="M302,487.6l4.75-.84h.05a8.7,8.7,0,1,1,3,17.14h0l-1.78.31a4.2,4.2,0,0,1-2,1h-.07l-3.89.68-.15-.59h0l-3.24-12.77A4.17,4.17,0,0,1,302,487.6Z" transform="translate(-168.28 -266.96)"/><path class="cls-12" d="M309.55,524.54h2.26a1.41,1.41,0,0,1,1.32.92l1.53,4.14a1.41,1.41,0,0,1-1.32,1.9h-5.06a1.41,1.41,0,0,1-1.35-1.83l1.27-4.14A1.41,1.41,0,0,1,309.55,524.54Z" transform="translate(-168.28 -266.96)"/><path class="cls-5" d="M313.1,469.89c-4.06-19.23-12.75-33.5-20.22-34h0c-7.47.51-16.16,14.78-20.22,34-2,9.63-3.66,23.4-1.25,31.68a25.78,25.78,0,0,0,21.47,18.77h0a25.78,25.78,0,0,0,21.47-18.77C316.76,493.29,315.14,479.52,313.1,469.89Z" transform="translate(-168.28 -266.96)"/><path class="cls-4" d="M313.1,469.89l-.46-2.07c-.29-1.25-.72-2.95-1.29-4.7a40.71,40.71,0,0,0-2-5c-.73-1.49-1.4-2.69-1.74-3.34-.67-1.3-1-1.92-1.21-2.24l-.17-.32c-.9-1.59-1.83-3.15-2.82-4.66s-1.92-3-3-4.42a21.62,21.62,0,0,0-3.55-3.71,7.91,7.91,0,0,0-4.1-1.85,1.65,1.65,0,0,1-1.55-1.64v0h0l1.78,1.65h0a1,1,0,0,1-.25,0h0l1.78-1.65h0a1.65,1.65,0,0,1-1.53,1.65h0a8.61,8.61,0,0,0-4.72,2.39,26.12,26.12,0,0,0-3.93,4.59,56.9,56.9,0,0,0-5.71,11.15,102.37,102.37,0,0,0-6,24.68A82.6,82.6,0,0,0,272,493a36.4,36.4,0,0,0,.65,6.14,25.45,25.45,0,0,0,1.9,5.72,23.74,23.74,0,0,0,18.57,13.69h0a1.82,1.82,0,0,1,1.56,1.8h0l-2.08-1.79h0a1.57,1.57,0,0,1,.53,0h0l-2.08,1.79h0a1.8,1.8,0,0,1,1.53-1.79h0a26.22,26.22,0,0,0,5-1.21,24.25,24.25,0,0,0,4.58-2.23,23.77,23.77,0,0,0,7.21-7.12,24.19,24.19,0,0,0,2.35-4.55c.35-.78.56-1.62.84-2.43a24.39,24.39,0,0,0,.54-2.49l.67-5.21c.21-1.77.35-3.57.46-5.38a43.65,43.65,0,0,0,.23-9.07,69.5,69.5,0,0,0-1.38-9c.64,3,1.17,6.1,1.75,9.16l1.76,9.27c.2,1.83.38,3.68.4,5.55,0,.93,0,1.87-.06,2.81a32.32,32.32,0,0,1-2.08,8.35,27.49,27.49,0,0,1-2.7,5.08,27.17,27.17,0,0,1-8.24,8,28.12,28.12,0,0,1-5.21,2.52A30.29,30.29,0,0,1,293.1,522l1.47-1.67h0v0a1.66,1.66,0,0,1-1.66,1.65l-.28,0h.49a1.65,1.65,0,0,1-1.91-1.34,1.41,1.41,0,0,1,0-.28v0h0l1.47,1.67a27.26,27.26,0,0,1-21.28-15.68,29,29,0,0,1-2.16-6.52,40.48,40.48,0,0,1-.72-6.71,87.6,87.6,0,0,1,.7-13.18,106.19,106.19,0,0,1,6.17-25.53,60.11,60.11,0,0,1,6.09-11.85,29.14,29.14,0,0,1,4.5-5.23,15.21,15.21,0,0,1,3-2.11,9.65,9.65,0,0,1,3.8-1.15L291,435.88h0v-.09a1.76,1.76,0,0,1,1.76-1.76l.22,0h-.27a1.75,1.75,0,0,1,2,1.52,1.49,1.49,0,0,1,0,.21v.1h0L293,434.05a11.5,11.5,0,0,1,6.45,2.94,27.36,27.36,0,0,1,4.37,4.8,22.8,22.8,0,0,1,1.78,2.62,30.53,30.53,0,0,1,1.39,2.81,48,48,0,0,1,2.16,5.82l2,8.48C311.82,464.31,312.51,467.09,313.1,469.89Z" transform="translate(-168.28 -266.96)"/><path class="cls-12" d="M269.32,480.87l-2.88-1.56-2.92,2.56a1.26,1.26,0,0,0,.23,2l3.12,1.68a1.14,1.14,0,0,0,1.66-.78Z" transform="translate(-168.28 -266.96)"/><path class="cls-13" d="M253.67,475.93a.47.47,0,0,1,.47-.81L278,488.51l-.89,1.51Z" transform="translate(-168.28 -266.96)"/><path class="cls-9" d="M253.91,475.31a.2.2,0,0,1,.11,0L277.7,488.6l-.64,1.08-23.26-14a.21.21,0,0,1-.08-.29.23.23,0,0,1,.19-.11m0-.5a.72.72,0,0,0-.37,1.33l23.7,14.23,1.14-2L254.27,474.9a.8.8,0,0,0-.36-.09Z" transform="translate(-168.28 -266.96)"/><path class="cls-13" d="M254.49,474.51a.48.48,0,0,1-.21-.63.47.47,0,0,1,.42-.26.46.46,0,0,1,.2.05l24.77,11.69-.78,1.57Z" transform="translate(-168.28 -266.96)"/><path class="cls-9" d="M254.7,473.87l.1,0,24.54,11.58-.56,1.13L254.6,474.29a.22.22,0,0,1-.09-.29.22.22,0,0,1,.19-.13m0-.5a.72.72,0,0,0-.64.4.71.71,0,0,0,.32,1L279,487.27l1-2-25-11.8a.82.82,0,0,0-.31-.07Z" transform="translate(-168.28 -266.96)"/><polygon class="cls-14" points="98.92 211.27 102.63 213.41 116.46 194.6 108.66 190.1 98.92 211.27"/><circle class="cls-5" cx="113.62" cy="190.52" r="5.81"/><path class="cls-12" d="M267.29,477.84,271,480l-.86,5a1.63,1.63,0,0,1-2.42,1.14l-4-2.32a1.49,1.49,0,0,1-.27-2.39Z" transform="translate(-168.28 -266.96)"/><polygon class="cls-14" points="130.8 264.94 135.09 264.94 137.66 241.74 128.66 241.74 130.8 264.94"/><ellipse class="cls-5" cx="133.1" cy="235.24" rx="7.09" ry="12.76"/><path class="cls-12" d="M299.1,531.52h4.29l1.76,4.77a1.63,1.63,0,0,1-1.53,2.19H299a1.5,1.5,0,0,1-1.43-1.93Z" transform="translate(-168.28 -266.96)"/><polygon class="cls-14" points="113.79 264.94 118.08 264.94 120.65 241.74 111.65 241.74 113.79 264.94"/><ellipse class="cls-5" cx="116.09" cy="235.24" rx="7.09" ry="12.76"/><path class="cls-12" d="M282.09,531.52h4.29l1.76,4.77a1.63,1.63,0,0,1-1.53,2.19H282a1.49,1.49,0,0,1-1.43-1.93Z" transform="translate(-168.28 -266.96)"/><path class="cls-6" d="M301.75,476a.66.66,0,0,1-.33-.09l-1.24-.71a.67.67,0,0,1-.24-.92l1.84-3.2a.68.68,0,0,1,.59-.34.78.78,0,0,1,.33.09l1.24.72a.66.66,0,0,1,.24.91l-1.85,3.2A.67.67,0,0,1,301.75,476Z" transform="translate(-168.28 -266.96)"/><path class="cls-9" d="M302.37,471a.42.42,0,0,1,.21.06l1.23.71a.42.42,0,0,1,.15.58l-1.84,3.2a.44.44,0,0,1-.37.21.42.42,0,0,1-.21-.06l-1.23-.71a.44.44,0,0,1-.16-.58l1.85-3.2a.44.44,0,0,1,.37-.21m0-.5a.93.93,0,0,0-.8.46l-1.85,3.2a1,1,0,0,0-.09.7.9.9,0,0,0,.43.56l1.23.71a.94.94,0,0,0,.46.13.93.93,0,0,0,.8-.46l1.85-3.2a.93.93,0,0,0-.34-1.26l-1.23-.71a.94.94,0,0,0-.46-.13Z" transform="translate(-168.28 -266.96)"/><path class="cls-6" d="M302.67,479.16a.63.63,0,0,1-.33-.09l-1.24-.72a.66.66,0,0,1-.24-.91l1.84-3.2a.67.67,0,0,1,.92-.25l1.23.72a.67.67,0,0,1,.25.91l-1.85,3.2A.67.67,0,0,1,302.67,479.16Z" transform="translate(-168.28 -266.96)"/><path class="cls-9" d="M303.28,474.15a.37.37,0,0,1,.21.06l1.24.71a.42.42,0,0,1,.15.58L303,478.7a.44.44,0,0,1-.37.21.42.42,0,0,1-.21-.06l-1.23-.71a.43.43,0,0,1-.16-.58l1.85-3.2a.43.43,0,0,1,.36-.21m0-.5h0a.92.92,0,0,0-.79.46l-1.85,3.2a.9.9,0,0,0-.09.7.87.87,0,0,0,.43.56l1.23.71a.94.94,0,0,0,.46.13.93.93,0,0,0,.8-.46l1.85-3.2a1,1,0,0,0,.09-.7.94.94,0,0,0-.43-.56l-1.24-.71a.91.91,0,0,0-.46-.13Z" transform="translate(-168.28 -266.96)"/><path class="cls-6" d="M303.59,482.3a.69.69,0,0,1-.34-.09L302,481.5a.62.62,0,0,1-.31-.41.65.65,0,0,1,.06-.51l1.85-3.19a.67.67,0,0,1,.92-.25l1.23.71a.68.68,0,0,1,.25.92l-1.85,3.2A.66.66,0,0,1,303.59,482.3Z" transform="translate(-168.28 -266.96)"/><path class="cls-9" d="M304.2,477.3a.39.39,0,0,1,.21.06l1.24.71a.42.42,0,0,1,.15.58L304,481.84a.4.4,0,0,1-.36.21.41.41,0,0,1-.21-.05l-1.24-.71a.42.42,0,0,1-.15-.58l1.85-3.2a.42.42,0,0,1,.36-.21m0-.5h0a.94.94,0,0,0-.8.46l-1.84,3.2a.92.92,0,0,0,.33,1.26l1.24.71a.93.93,0,0,0,.46.12.92.92,0,0,0,.8-.46l1.84-3.19a.91.91,0,0,0,.1-.7.94.94,0,0,0-.43-.56l-1.24-.72a.93.93,0,0,0-.46-.12Z" transform="translate(-168.28 -266.96)"/><path class="cls-6" d="M304.51,485.45a.67.67,0,0,1-.34-.09l-1.23-.71a.68.68,0,0,1-.25-.92l1.85-3.19a.67.67,0,0,1,.58-.34.69.69,0,0,1,.34.09l1.23.71a.68.68,0,0,1,.25.92l-1.85,3.2A.68.68,0,0,1,304.51,485.45Z" transform="translate(-168.28 -266.96)"/><path class="cls-9" d="M305.12,480.45a.42.42,0,0,1,.21.06l1.23.71a.41.41,0,0,1,.16.57l-1.85,3.2a.41.41,0,0,1-.36.21.5.5,0,0,1-.21-.05l-1.24-.72a.41.41,0,0,1-.15-.57l1.84-3.2a.42.42,0,0,1,.37-.21m0-.5a.94.94,0,0,0-.8.46l-1.85,3.2a.94.94,0,0,0-.09.7,1,1,0,0,0,.43.56l1.24.71a.93.93,0,0,0,.46.12.9.9,0,0,0,.79-.46l1.85-3.2a.91.91,0,0,0-.34-1.25l-1.23-.72a.93.93,0,0,0-.46-.12Z" transform="translate(-168.28 -266.96)"/><path class="cls-6" d="M292.29,474.71a.67.67,0,0,1-.34-.09l-1.23-.71a.66.66,0,0,1-.32-.41.67.67,0,0,1,.07-.5l1.85-3.2a.67.67,0,0,1,.58-.34.63.63,0,0,1,.33.09l1.24.71a.71.71,0,0,1,.31.41.66.66,0,0,1-.07.51l-1.84,3.2A.66.66,0,0,1,292.29,474.71Z" transform="translate(-168.28 -266.96)"/><path class="cls-9" d="M292.9,469.71a.42.42,0,0,1,.21.06l1.23.71a.43.43,0,0,1,.16.58l-1.85,3.19a.41.41,0,0,1-.36.21.36.36,0,0,1-.21,0l-1.24-.72a.41.41,0,0,1-.15-.57l1.84-3.2a.44.44,0,0,1,.37-.21m0-.5h0a.93.93,0,0,0-.8.46l-1.85,3.2a.94.94,0,0,0-.09.7,1,1,0,0,0,.43.56l1.24.71a.92.92,0,0,0,1.25-.34l1.85-3.19a.91.91,0,0,0,.09-.7.87.87,0,0,0-.43-.56l-1.23-.72a.93.93,0,0,0-.46-.12Z" transform="translate(-168.28 -266.96)"/><path class="cls-6" d="M293.2,477.86a.66.66,0,0,1-.33-.09l-1.24-.71a.68.68,0,0,1-.31-.41.66.66,0,0,1,.07-.51l1.85-3.2a.67.67,0,0,1,.58-.33.66.66,0,0,1,.33.09l1.24.71a.71.71,0,0,1,.31.41.66.66,0,0,1-.07.51l-1.84,3.2A.7.7,0,0,1,293.2,477.86Z" transform="translate(-168.28 -266.96)"/><path class="cls-9" d="M293.82,472.86a.42.42,0,0,1,.21.06l1.23.71a.42.42,0,0,1,.16.57l-1.85,3.2a.42.42,0,0,1-.37.21.54.54,0,0,1-.21-.05l-1.23-.72a.42.42,0,0,1-.16-.57l1.85-3.2a.42.42,0,0,1,.37-.21m0-.5h0a.93.93,0,0,0-.8.46l-1.85,3.2a.94.94,0,0,0-.09.7,1,1,0,0,0,.43.56l1.23.71a.93.93,0,0,0,.46.12.91.91,0,0,0,.8-.46l1.85-3.2a.94.94,0,0,0,.09-.7.91.91,0,0,0-.43-.55l-1.23-.72a.93.93,0,0,0-.46-.12Z" transform="translate(-168.28 -266.96)"/><path class="cls-6" d="M294.12,481a.63.63,0,0,1-.33-.09l-1.24-.71a.71.71,0,0,1-.31-.41.66.66,0,0,1,.07-.51l1.84-3.2a.69.69,0,0,1,.58-.33.67.67,0,0,1,.34.09l1.23.71a.67.67,0,0,1,.25.92l-1.85,3.2A.68.68,0,0,1,294.12,481Z" transform="translate(-168.28 -266.96)"/><path class="cls-9" d="M294.73,476a.46.46,0,0,1,.21.05l1.24.72a.41.41,0,0,1,.15.57l-1.84,3.2a.42.42,0,0,1-.37.21.42.42,0,0,1-.21-.06l-1.23-.71a.42.42,0,0,1-.16-.57l1.85-3.2a.41.41,0,0,1,.36-.21m0-.5a.9.9,0,0,0-.79.46l-1.85,3.2a.9.9,0,0,0-.09.7.87.87,0,0,0,.43.55l1.23.72a.93.93,0,0,0,1.26-.34l1.85-3.2a.94.94,0,0,0,.09-.7,1,1,0,0,0-.43-.56l-1.24-.71a.9.9,0,0,0-.46-.12Z" transform="translate(-168.28 -266.96)"/><path class="cls-6" d="M295,484.16a.69.69,0,0,1-.34-.09l-1.23-.71a.68.68,0,0,1-.25-.92l1.85-3.2A.68.68,0,0,1,296,479l1.23.71a.68.68,0,0,1,.25.92l-1.85,3.19A.67.67,0,0,1,295,484.16Z" transform="translate(-168.28 -266.96)"/><path class="cls-9" d="M295.65,479.16a.38.38,0,0,1,.21,0l1.24.72a.41.41,0,0,1,.15.57l-1.85,3.2a.41.41,0,0,1-.57.15l-1.24-.71a.41.41,0,0,1-.15-.57l1.85-3.2a.41.41,0,0,1,.36-.21m0-.5h0a.92.92,0,0,0-.8.46l-1.84,3.2a.84.84,0,0,0-.09.69.89.89,0,0,0,.42.56l1.24.72a.93.93,0,0,0,.46.12.94.94,0,0,0,.8-.46l1.84-3.2a.9.9,0,0,0,.1-.7,1,1,0,0,0-.43-.56l-1.24-.71a.93.93,0,0,0-.46-.12Z" transform="translate(-168.28 -266.96)"/><path class="cls-6" d="M283.25,469.29a.82.82,0,0,1-.34-.09l-1.23-.72a.67.67,0,0,1-.25-.91l1.85-3.2a.67.67,0,0,1,.58-.34.69.69,0,0,1,.34.09l1.23.71a.69.69,0,0,1,.25.92l-1.85,3.2A.67.67,0,0,1,283.25,469.29Z" transform="translate(-168.28 -266.96)"/><path class="cls-9" d="M283.86,464.28a.39.39,0,0,1,.21.06l1.24.71a.42.42,0,0,1,.15.58l-1.85,3.2a.42.42,0,0,1-.36.21A.39.39,0,0,1,283,469l-1.24-.71a.42.42,0,0,1-.15-.58l1.85-3.2a.42.42,0,0,1,.36-.21m0-.5a.94.94,0,0,0-.8.46l-1.84,3.2a.9.9,0,0,0-.1.7.94.94,0,0,0,.43.56l1.24.71a.91.91,0,0,0,1.26-.33l1.84-3.2a.91.91,0,0,0,.1-.7.94.94,0,0,0-.43-.56l-1.24-.71a.94.94,0,0,0-.46-.13Z" transform="translate(-168.28 -266.96)"/><path class="cls-6" d="M284.17,472.43a.67.67,0,0,1-.34-.09l-1.23-.71a.67.67,0,0,1-.25-.91l1.85-3.2a.67.67,0,0,1,.58-.34.63.63,0,0,1,.33.09l1.24.71a.67.67,0,0,1,.31.41.65.65,0,0,1-.07.51l-1.84,3.2A.66.66,0,0,1,284.17,472.43Z" transform="translate(-168.28 -266.96)"/><path class="cls-9" d="M284.78,467.43a.42.42,0,0,1,.21.06l1.23.71a.43.43,0,0,1,.16.58L284.53,472a.41.41,0,0,1-.36.21.36.36,0,0,1-.21-.05l-1.24-.71a.42.42,0,0,1-.15-.58l1.84-3.2a.44.44,0,0,1,.37-.21m0-.5h0a.94.94,0,0,0-.8.46l-1.85,3.2a.93.93,0,0,0,.34,1.26l1.24.71a.93.93,0,0,0,.46.12.9.9,0,0,0,.79-.46l1.85-3.19a.91.91,0,0,0,.09-.7.87.87,0,0,0-.43-.56l-1.23-.72a.93.93,0,0,0-.46-.12Z" transform="translate(-168.28 -266.96)"/><path class="cls-6" d="M285.08,475.58a.66.66,0,0,1-.33-.09l-1.24-.71a.68.68,0,0,1-.31-.41.7.7,0,0,1,.07-.51l1.85-3.19a.66.66,0,0,1,.91-.25l1.24.71a.71.71,0,0,1,.31.41.66.66,0,0,1-.07.51l-1.84,3.2A.68.68,0,0,1,285.08,475.58Z" transform="translate(-168.28 -266.96)"/><path class="cls-9" d="M285.7,470.58a.42.42,0,0,1,.21.06l1.23.71a.43.43,0,0,1,.16.57l-1.85,3.2a.42.42,0,0,1-.37.21.41.41,0,0,1-.21-.05l-1.23-.72a.41.41,0,0,1-.15-.57l1.84-3.2a.44.44,0,0,1,.37-.21m0-.5h0a.93.93,0,0,0-.8.46l-1.85,3.2a.94.94,0,0,0-.09.7.93.93,0,0,0,.43.56l1.23.71a.93.93,0,0,0,.46.12.91.91,0,0,0,.8-.46l1.85-3.2a.93.93,0,0,0,.09-.69.9.9,0,0,0-.43-.56l-1.23-.72a.93.93,0,0,0-.46-.12Z" transform="translate(-168.28 -266.96)"/><path class="cls-6" d="M286,478.73a.63.63,0,0,1-.33-.09l-1.24-.71a.68.68,0,0,1-.31-.41.66.66,0,0,1,.07-.51l1.84-3.2a.69.69,0,0,1,.58-.33.67.67,0,0,1,.34.09l1.23.71a.67.67,0,0,1,.25.92l-1.85,3.2A.68.68,0,0,1,286,478.73Z" transform="translate(-168.28 -266.96)"/><path class="cls-9" d="M286.61,473.73a.54.54,0,0,1,.22,0l1.23.72a.41.41,0,0,1,.15.57l-1.84,3.2a.42.42,0,0,1-.37.21.54.54,0,0,1-.21-.05l-1.23-.72a.42.42,0,0,1-.16-.57l1.85-3.2a.41.41,0,0,1,.36-.21m0-.5h0a.9.9,0,0,0-.79.46l-1.85,3.2a.9.9,0,0,0-.09.7.92.92,0,0,0,.43.56l1.23.71a.93.93,0,0,0,.46.12.91.91,0,0,0,.8-.46l1.85-3.2a.94.94,0,0,0,.09-.7,1,1,0,0,0-.43-.56l-1.23-.71a.94.94,0,0,0-.47-.12Z" transform="translate(-168.28 -266.96)"/><path class="cls-6" d="M299.81,472.91a20.84,20.84,0,0,1-10.22-2.9c-7.84-4.53-11.59-12.77-8.35-18.37,1.78-3.09,5.38-4.86,9.86-4.86a20.84,20.84,0,0,1,10.22,2.9c7.84,4.53,11.58,12.77,8.35,18.37C307.89,471.14,304.29,472.91,299.81,472.91Zm-8.76-23.66c-3.53,0-6.31,1.33-7.65,3.64-2.54,4.41.79,11.12,7.44,14.95a18.49,18.49,0,0,0,9,2.6c3.52,0,6.31-1.33,7.64-3.64,2.55-4.41-.78-11.12-7.43-15A18.48,18.48,0,0,0,291.05,449.25Z" transform="translate(-168.28 -266.96)"/><path class="cls-9" d="M291.1,447a20.48,20.48,0,0,1,10.1,2.87c7.72,4.45,11.42,12.54,8.25,18-1.8,3.11-5.43,4.73-9.64,4.73a20.48,20.48,0,0,1-10.1-2.87c-7.72-4.46-11.42-12.54-8.25-18,1.79-3.11,5.43-4.73,9.64-4.73m8.76,23.66c3.48,0,6.42-1.28,7.86-3.76,2.62-4.53-.76-11.4-7.52-15.3a18.72,18.72,0,0,0-9.15-2.63c-3.48,0-6.43,1.28-7.86,3.76-2.62,4.53.76,11.39,7.52,15.3a18.66,18.66,0,0,0,9.15,2.63m-8.76-24.16h0c-4.58,0-8.25,1.82-10.08,5-3.3,5.73.48,14.12,8.44,18.71a21.18,21.18,0,0,0,10.35,2.94c4.57,0,8.25-1.82,10.07-5,3.31-5.73-.48-14.12-8.43-18.72a21.17,21.17,0,0,0-10.35-2.93Zm8.76,23.66a18.24,18.24,0,0,1-8.9-2.56c-6.52-3.77-9.82-10.33-7.34-14.62,1.29-2.23,4-3.51,7.43-3.51a18.24,18.24,0,0,1,8.9,2.56c6.52,3.77,9.81,10.32,7.34,14.62-1.29,2.23-4,3.51-7.43,3.51Z" transform="translate(-168.28 -266.96)"/></g><path class="cls-15" d="M337.41,462.74a3.49,3.49,0,0,0-4.78-1.18,4.44,4.44,0,0,0-1.52,2.08l-18.38,10.61-18.38,10.61a4.44,4.44,0,0,0-2.56.28,3.48,3.48,0,0,0-1.37,4.73c.1.16.16.56.33.46,1.47-.85.08-3.34,1.6-4.22a3.55,3.55,0,0,1,3.37-.12,14.93,14.93,0,0,0,17.53,1.68l5.42-3.12,5.42-3.13a15,15,0,0,0,7.31-16,3.58,3.58,0,0,1,1.79-2.86c1.53-.88,3,1.58,4.45.72C337.81,463.16,337.5,462.91,337.41,462.74Zm-14.89,15.95-5.42,3.13L311.68,485c-5,2.9-10.11.53-15.46-.05l17-9.81,17-9.81C328,470.2,327.54,475.8,322.52,478.69Z" transform="translate(-168.28 -266.96)"/><polygon class="cls-14" points="146.53 213.35 150.24 211.21 140.87 189.82 133.07 194.32 146.53 213.35"/><circle class="cls-5" cx="135.91" cy="190.25" r="5.81"/><path class="cls-12" d="M314.52,480l3.72-2.15,3.9,3.25a1.63,1.63,0,0,1-.22,2.67l-4,2.32a1.49,1.49,0,0,1-2.2-1Z" transform="translate(-168.28 -266.96)"/><path class="cls-16" d="M381.29,411.27c-7.79,0-17.25-4.77-24.67-12.43-7.18-7.41-11.5-16.61-11.27-24a12.58,12.58,0,0,1,3-8.27l19.86,20.49a7.88,7.88,0,0,0-1.65,4.79c-.13,4.15,2.14,9,6.06,13.09a22.56,22.56,0,0,0,10.25,6.25c-.53.05-1.07.08-1.62.08Z" transform="translate(-168.28 -266.96)"/><path class="cls-9" d="M348.45,368.07,367,387.16a9.13,9.13,0,0,0-1.35,4.65c-.13,4.42,2.23,9.59,6.34,13.83a26.3,26.3,0,0,0,5.25,4.21c-6.59-1.3-13.88-5.54-19.85-11.71-7-7.22-11.21-16.14-11-23.27a12.21,12.21,0,0,1,2.1-6.8m-.05-2.93c-7.58,6.9-4.22,22.3,7.5,34.4,7.9,8.15,17.59,12.73,25.39,12.73a13.84,13.84,0,0,0,9.56-3.32,6.94,6.94,0,0,1-4.78,1.66c-3.9,0-8.74-2.29-12.69-6.37-5.87-6-7.54-13.74-3.75-17.19L348.4,365.14Z" transform="translate(-168.28 -266.96)"/><path class="cls-16" d="M364.84,387.7c-3.76,0-8.35-2.32-12-6.06s-5.61-8.07-5.49-11.63a5.65,5.65,0,0,1,1.69-4.13,6,6,0,0,1,4.11-1.39c3.77,0,8.35,2.32,12,6.06s5.6,8.07,5.49,11.64a5.65,5.65,0,0,1-1.7,4.12A6,6,0,0,1,364.84,387.7Z" transform="translate(-168.28 -266.96)"/><path class="cls-16" d="M353.18,365.49h0c3.5,0,7.82,2.2,11.26,5.75s5.31,7.61,5.21,10.91a4.64,4.64,0,0,1-1.37,3.42,5,5,0,0,1-3.44,1.13c-3.5,0-7.81-2.2-11.25-5.75s-5.32-7.61-5.21-10.91a4.58,4.58,0,0,1,1.37-3.42,4.93,4.93,0,0,1,3.43-1.13m0-2a6.94,6.94,0,0,0-4.78,1.65c-3.79,3.45-2.11,11.15,3.75,17.2,4,4.08,8.8,6.36,12.69,6.36a7,7,0,0,0,4.79-1.65c3.79-3.45,2.11-11.15-3.75-17.2-4-4.08-8.8-6.36-12.7-6.36Z" transform="translate(-168.28 -266.96)"/><path class="cls-5" d="M366.45,388.54c0,19.12-2.62,35.15-14.71,46.8-13.43,12.94-37.45,20.47-58.84,20.47s-45.39-7.44-58.83-20.47c-12-11.64-14.71-27.75-14.71-46.8,0-40.38,32.93-67.27,73.55-67.27S366.45,348.16,366.45,388.54Z" transform="translate(-168.28 -266.96)"/><path class="cls-4" d="M366.08,388.54l.07,1.25c0,.8.14,2,.18,3.36.13,2.81.18,6.63,0,10.67a68.37,68.37,0,0,1-1.59,11.89,42.78,42.78,0,0,1-2.67,8,49.46,49.46,0,0,1-2.84,5.08,4.38,4.38,0,0,1-.4.61l-.06.09a42.82,42.82,0,0,1-8,8.9,64.38,64.38,0,0,1-9.71,6.8A91,91,0,0,1,319.26,454c-1.88.55-3.81.91-5.71,1.36s-3.84.77-5.78,1a99.9,99.9,0,0,1-23.44.78,113.62,113.62,0,0,1-11.62-1.66,106,106,0,0,1-11.37-2.94l-1.41-.44-1.38-.5c-.92-.34-1.85-.66-2.76-1-1.82-.76-3.65-1.47-5.41-2.34s-3.52-1.76-5.27-2.68-3.41-2-5-3.15a51.26,51.26,0,0,1-9.06-7.74,43.75,43.75,0,0,1-6.8-9.88,53.27,53.27,0,0,1-4.09-11.19,100.87,100.87,0,0,1-2.52-23.33A71.6,71.6,0,0,1,221,366.9a65,65,0,0,1,11.34-20.74,68.92,68.92,0,0,1,17.91-15.39,78.14,78.14,0,0,1,21.85-8.85,80.3,80.3,0,0,1,11.63-2,89,89,0,0,1,11.77-.43,87.87,87.87,0,0,1,23.25,3.72,76.48,76.48,0,0,1,21.24,10.29,66.59,66.59,0,0,1,16.74,16.7,60.16,60.16,0,0,1,4.66,9c.34.77.66,1.55.93,2.34s.59,1.58.85,2.38c.49,1.61,1,3.2,1.37,4.84a69.05,69.05,0,0,1,1.84,19.75,68.11,68.11,0,0,0-3.67-19.76,58.08,58.08,0,0,0-4-9.13,57.14,57.14,0,0,0-5.43-8.29c-8.83-12.36-22.3-21.06-36.92-25.19a77.18,77.18,0,0,0-11.16-2.37,87.06,87.06,0,0,0-11.4-.84,90.77,90.77,0,0,0-11.42.64,87,87,0,0,0-11.21,2.16,74.41,74.41,0,0,0-20.81,9.08,64.46,64.46,0,0,0-16.65,15.27,60.73,60.73,0,0,0-10,20.18,68.88,68.88,0,0,0-2.13,11.14,94.31,94.31,0,0,0-.3,11.43,86.25,86.25,0,0,0,3.11,22.56,46.53,46.53,0,0,0,4.45,10.28,40.72,40.72,0,0,0,6.95,8.69,64.47,64.47,0,0,0,19.12,12,99,99,0,0,0,44.77,7.36,94.47,94.47,0,0,0,11.35-1.47A97.82,97.82,0,0,0,322,449.53a81.63,81.63,0,0,0,20.67-9.43,51,51,0,0,0,8.7-7.09,39.53,39.53,0,0,0,6.55-9,44.14,44.14,0,0,0,3.78-8.19c.54-1.42.93-2.89,1.37-4.36s.75-3,1-4.48A122.16,122.16,0,0,0,366.08,388.54Z" transform="translate(-168.28 -266.96)"/><path class="cls-5" d="M359.64,426.7h0c8.1-2,13.92-7.46,14.57-14.9s-4-14.93-11.49-19.91h0c-8.1,2-10.66,8.09-11.32,15.53s8.82,12.74,8.24,19.28Z" transform="translate(-168.28 -266.96)"/><path class="cls-4" d="M359.58,427.07h0l-.08,0,0,0,.58-.28h0l-.29.33.82-.55c.49-.32,1.11-.81,1.74-1.29,1.27-1,2.44-2.19,2.92-2.5s.74-.47.86-.54l.12-.09a14.54,14.54,0,0,0,5.42-6.52,14,14,0,0,0,.62-8.38,19.74,19.74,0,0,0-3.84-7.82,28.67,28.67,0,0,0-6.64-6,1.77,1.77,0,0,1-.77-1.62h0l2.19,1.85h0a1.68,1.68,0,0,1-1.4-.23l0,0h0l2.74-1.3h0a1.76,1.76,0,0,1-1.28,1.54h-.05a16,16,0,0,0-3.56,1.38,10.86,10.86,0,0,0-2.84,2.33,14.5,14.5,0,0,0-3.06,6.95c-.14.65-.22,1.32-.32,2a12.44,12.44,0,0,0-.13,1.92,7.81,7.81,0,0,0,.81,3.41c1,2.29,2.84,4.47,4.53,6.92a23.18,23.18,0,0,1,1.18,4.09,9.29,9.29,0,0,1,.12,1.06l0,.52,0,.54a5,5,0,0,1-.12,1l-.12.49-.06.24,0,.12,0,.06v0h0c.31.26.07.07.13.13h0c.15.12-.17-.16-.14-.13h0v-.1l0-.12-.05-.24-.1-.48a5.14,5.14,0,0,0-.31-.91,4.47,4.47,0,0,0-.42-.85,5.51,5.51,0,0,0-.5-.79,19.48,19.48,0,0,0-2.53-2.88c-1.56-2.27-3.48-4.53-4.78-7.46a15.33,15.33,0,0,1-.8-2.31,11.05,11.05,0,0,1-.25-2.52,16.44,16.44,0,0,1,.18-2.32c.1-.74.2-1.48.36-2.23A23.4,23.4,0,0,1,351.6,399a15.67,15.67,0,0,1,2.53-4.06,14.56,14.56,0,0,1,3.76-3.06,19.9,19.9,0,0,1,4.42-1.71L361,391.73h0a1.74,1.74,0,0,1,1.87-1.59,1.84,1.84,0,0,1,.84.3h0l-1.42-.24h0a1.72,1.72,0,0,1,2.12,1.18,2.07,2.07,0,0,1,.06.6v0h0l-.77-1.61a37.56,37.56,0,0,1,4.07,3.16,31.7,31.7,0,0,1,3.52,3.8,22.94,22.94,0,0,1,4.47,9.51,17.42,17.42,0,0,1-1.19,10.66,18.77,18.77,0,0,1-7.16,7.93,24.51,24.51,0,0,1-7.67,1.57l.29-.33h0l-.58.28h0Z" transform="translate(-168.28 -266.96)"/><path class="cls-5" d="M225.91,426.79h0c-8-2.31-13.6-8-14-15.49s4.63-14.75,12.31-19.42h0c8,2.32,10.31,8.52,10.67,16s-9.34,12.37-9,18.93Z" transform="translate(-168.28 -266.96)"/><path class="cls-4" d="M225.86,426.42h0l-.08,0h0l.57.31h0v-.09a.26.26,0,0,0-.26-.25l-1,0a20.58,20.58,0,0,1-2.22-.09,11.88,11.88,0,0,1-4.1-1.06,9.4,9.4,0,0,1-1-.68l-.14-.1a17.82,17.82,0,0,1-6.31-8.21,17.32,17.32,0,0,1-.44-10.39,23.13,23.13,0,0,1,4.81-9,32.08,32.08,0,0,1,7.68-6.52l-.84,1.59h0v0a1.73,1.73,0,0,1,1.64-1.82,1.79,1.79,0,0,1,.62.08h0l-1.44.19h0a1.74,1.74,0,0,1,2.68,1.37v0h0l-1.27-1.6a19,19,0,0,1,4.39,1.88,14.48,14.48,0,0,1,3.67,3.23,15.79,15.79,0,0,1,2.4,4.21,23.77,23.77,0,0,1,1.17,4.53c.13.75.2,1.51.28,2.26a16.32,16.32,0,0,1,.08,2.38,11.55,11.55,0,0,1-1.31,4.86c-1.46,2.9-3.48,5.1-5.1,7.32a20.47,20.47,0,0,0-2.78,2.55c-.22.23-.37.48-.57.73l-.28.39-.21.42a4.7,4.7,0,0,0-.41.88l-.15.47-.07.25,0,.12,0,.06v.05h0c.32-.25.07-.07.13-.13h0c.16-.11-.16.16-.13.13h0v-.11l0-.13,0-.26-.07-.52a6.38,6.38,0,0,1,0-1.07,4.82,4.82,0,0,1,.13-1.07,7.73,7.73,0,0,1,.24-1.06,23,23,0,0,1,1.63-4c1.75-2.35,3.62-4.45,4.71-6.74a7.92,7.92,0,0,0,.89-3.43,15.19,15.19,0,0,0-.09-1.95c-.07-.67-.14-1.34-.25-2a14.67,14.67,0,0,0-2.86-7,11,11,0,0,0-2.76-2.41,16.11,16.11,0,0,0-3.51-1.49h0a1.74,1.74,0,0,1-1.23-1.59h0l2.66,1.4h0a1.71,1.71,0,0,1-1.42.19h0L226,391.8h0a1.74,1.74,0,0,1-.81,1.56h0a33.08,33.08,0,0,0-3.73,2.7,29,29,0,0,0-3.22,3.24,19.5,19.5,0,0,0-4.06,7.87,13.81,13.81,0,0,0,.63,8.46,15,15,0,0,0,5.54,6.53,22,22,0,0,0,5.69,4.26l.13.07a.25.25,0,0,1,.14.27h0l-.57-.31h0A.34.34,0,0,1,225.86,426.42Z" transform="translate(-168.28 -266.96)"/><path class="cls-17" d="M264.64,449.75A115,115,0,0,0,293,453.92c12.66.32,28.16-4.11,28.16-4.11,0-13.63-14.86-23.21-28.49-23.21S264.64,437.15,264.64,449.75Z" transform="translate(-168.28 -266.96)"/><ellipse class="cls-18" cx="124.59" cy="153.46" rx="15.24" ry="2.92"/><path class="cls-4" d="M291,440.26l-3.42-4.19a2.42,2.42,0,0,1,1.88-3.95h6.83a2.42,2.42,0,0,1,1.88,3.95l-3.42,4.19A2.42,2.42,0,0,1,291,440.26Z" transform="translate(-168.28 -266.96)"/><ellipse class="cls-18" cx="180.88" cy="152.6" rx="2.13" ry="2.05"/><ellipse class="cls-18" cx="176.05" cy="158.79" rx="1.52" ry="1.46"/><ellipse class="cls-18" cx="184.62" cy="158.77" rx="1.37" ry="1.32"/><ellipse class="cls-6" cx="161.04" cy="138.2" rx="18.28" ry="23.4"/><circle class="cls-4" cx="161.04" cy="138.2" r="5.67"/><path class="cls-16" d="M315.3,335l2.8-2.76c13.92-13.73,34.94-11.94,46.94,4s10.44,39.95-3.49,53.67l-2.8,2.76C349.78,371.84,334.88,352.74,315.3,335Z" transform="translate(-168.28 -266.96)"/><path class="cls-4" d="M315.68,334.94s.41-.46,1.08-1.35c.36-.48.78-1,1.25-1.66s1.05-1.26,1.61-1.93a16.08,16.08,0,0,1,1.86-1.92,21,21,0,0,1,1.93-1.7,18.26,18.26,0,0,1,3.08-2c2.65-1.15,2.66-1.13,2.66-1.13a31,31,0,0,1,13.26-1.81,31.74,31.74,0,0,1,12.79,3.92,35.58,35.58,0,0,1,10.18,8.6A42,42,0,0,1,372,345.43a45.65,45.65,0,0,1,1.58,26.15,42.49,42.49,0,0,1-5.09,12.26l-.87,1.42-1,1.34a24,24,0,0,1-2.1,2.61c-.75.8-1.5,1.7-2.26,2.42L360,393.87l-1.85,1.83-1-2.39c-7.33-16.86-18.36-31.94-31.08-45.26-.83-1.14-1.68-2.26-2.56-3.36s-1.73-2.24-2.63-3.32-1.75-2.17-2.72-3.31-1.83-2.18-2.69-3.11c1.18.95,2.35,1.8,3.43,2.62s2.24,1.81,3.37,2.71c2.24,1.85,4.48,3.73,6.65,5.69,12.8,13.45,24,28.76,31.44,45.95l-2.77-.54,2.31-2.28c.79-.77,1.42-1.53,2.14-2.29a23.81,23.81,0,0,0,1.93-2.42c.3-.42.63-.82.91-1.25l.81-1.33a39.33,39.33,0,0,0,4.64-11.48,41.71,41.71,0,0,0-1.88-24.48A35.3,35.3,0,0,0,362,335.33a31.54,31.54,0,0,0-9.62-7.5,28.07,28.07,0,0,0-11.73-3,27.6,27.6,0,0,0-11.85,2.32,29.89,29.89,0,0,0-6.91,3.22c-1.1.69-2.11,1.51-3.19,2.27C317.77,333.4,316.76,334.09,315.68,334.94Z" transform="translate(-168.28 -266.96)"/><path class="cls-16" d="M320.42,334.71a6,6,0,0,1-.64-3.49c.34-3.74,3.18-8.18,7.43-11.59a21.8,21.8,0,0,1,11.37-5,14.32,14.32,0,0,0-3.19,1.95c-2.46,2-4.06,4.53-4.26,6.83a4.58,4.58,0,0,0,.38,2.39Z" transform="translate(-168.28 -266.96)"/><path class="cls-9" d="M333.44,317a10.86,10.86,0,0,0-3.31,6.33,5.82,5.82,0,0,0,.19,2.15l-9.45,7.6a5.69,5.69,0,0,1-.09-1.77c.31-3.48,3-7.66,7.05-10.91a24.81,24.81,0,0,1,5.61-3.4m6.09-3.4c-3.88,0-8.69,1.83-12.95,5.25-7,5.59-9.81,13.35-6.36,17.31L332.84,326c-1.73-2-.3-5.86,3.18-8.65a11,11,0,0,1,6.48-2.63,3.78,3.78,0,0,1,3,1.15,7.59,7.59,0,0,0-5.93-2.29Z" transform="translate(-168.28 -266.96)"/><ellipse class="cls-16" cx="326.53" cy="331.09" rx="8.1" ry="4.76" transform="translate(-302.42 0.68) rotate(-37.56)"/><path class="cls-6" d="M413.85,366.23a46.22,46.22,0,0,1-43.6-2.11l-55.56-33a14.63,14.63,0,0,0-20,5.11h0a14.63,14.63,0,0,0,5.11,20l51.85,30.76c22.22,13.18,50.76,6.52,63.41-14.81l1.75-2.95A2.23,2.23,0,0,0,413.85,366.23Z" transform="translate(-168.28 -266.96)"/><path class="cls-4" d="M413.68,365.9s-1,.6-2.64,1.49a43.51,43.51,0,0,1-6.52,2.75,39.55,39.55,0,0,1-13.37,2.08c-2.19-.12-3.27-.34-3.81-.39l-.55-.07a49.2,49.2,0,0,1-14.93-4.88c-2.35-1.25-4.49-2.56-6.69-3.85l-6.56-3.89-26.24-15.53-13.13-7.77L316,333.9c-1.08-.64-2.23-1.34-3.18-1.81a12.87,12.87,0,0,0-16.23,18.81,12.29,12.29,0,0,0,2.21,2.51,11.93,11.93,0,0,0,1.33,1c.44.31,1,.63,1.54,1l6.57,3.88L321.32,367l26.25,15.53,3.28,1.94,1.64,1,1.62.85,1.62.86.82.43c.27.13.56.23.84.35l3.4,1.39a48.19,48.19,0,0,0,14.37,2.58,44.08,44.08,0,0,0,27.39-8.62l2.61-1.75c.83-.64,1.62-1.33,2.44-2,.4-.35.83-.66,1.21-1l1.1-1.14,1.12-1.14a12,12,0,0,0,1.07-1.19c1.32-1.67,2.67-3.36,3.89-5.18l.47-.67a2.29,2.29,0,0,0,.33-.64,1.94,1.94,0,0,0-.19-1.44,2.25,2.25,0,0,0-2.81-1A2.48,2.48,0,0,1,417,367a2.39,2.39,0,0,1,.37,1.87,8,8,0,0,1-.74,1.63c-1,2-2.17,3.93-3.33,5.9a42,42,0,0,1-39.24,19,51.24,51.24,0,0,1-15.52-3.2c-1.22-.51-2.47-1-3.67-1.53l-3.52-1.86c-2.28-1.27-4.43-2.6-6.65-3.9l-26.48-15.67L305,361.44l-3.31-2-1.66-1c-.56-.34-1.07-.61-1.69-1a16.34,16.34,0,0,1-3.28-2.76,16.8,16.8,0,0,1-2.43-3.55,16.43,16.43,0,0,1,3.7-19.67,17.15,17.15,0,0,1,3.56-2.41,16.52,16.52,0,0,1,8.35-1.7,17,17,0,0,1,4.23.82,20.19,20.19,0,0,1,2,.83c.65.33,1.29.67,1.81,1l6.62,3.91,13.23,7.84,26.48,15.67,6.62,3.91c1.1.66,2.21,1.32,3.28,1.89a36.26,36.26,0,0,0,3.3,1.65,52.1,52.1,0,0,0,37.88,1Z" transform="translate(-168.28 -266.96)"/><path class="cls-6" d="M289.87,335.14a14.63,14.63,0,0,0-20.36-3.67l-53.06,36.85a46.22,46.22,0,0,1-43.34,5.23,2.23,2.23,0,0,0-2.69,3.28l2,2.82c14.14,20.37,43.08,25,64.3,10.23l49.52-34.39a14.63,14.63,0,0,0,3.67-20.35Z" transform="translate(-168.28 -266.96)"/><path class="cls-4" d="M290.18,334.93l-.59-.62a16.13,16.13,0,0,0-1.66-1.52,14.86,14.86,0,0,0-6.25-2.77,14.22,14.22,0,0,0-7.21.6,17.76,17.76,0,0,0-4.28,2.36l-3.48,2.41-50.1,34.84a47.8,47.8,0,0,1-37.79,6.91c-.65-.13-1.29-.31-1.92-.5s-1.27-.36-1.89-.57l-1.87-.67-.46-.17-.21-.07h-.06a.23.23,0,0,0-.18,0,.55.55,0,0,0-.37.27c-.08.15-.1.25-.06.32s0,0,0,.08a0,0,0,0,0,0,0l.07.1.13.2.55.78,1.09,1.56,2.24,2.9.56.73.64.66,1.26,1.31a43,43,0,0,0,11.87,8.43,44.35,44.35,0,0,0,14.06,3.9,45.86,45.86,0,0,0,14.59-.73,48.69,48.69,0,0,0,13.6-5.33l3.11-2,3.13-2.17,6.26-4.36,12.52-8.71,25-17.42,2.81-1.66a13.15,13.15,0,0,0,2.34-1.76,13.65,13.65,0,0,0,3.33-5A14.31,14.31,0,0,0,290,335.07a15.13,15.13,0,0,1,2.63,13.13,15.59,15.59,0,0,1-3.32,6.3c-.43.43-.82.91-1.29,1.3s-.94.83-1.37,1.15L284,359l-25.25,17.58-12.63,8.78c-4.25,2.91-8.27,5.94-12.92,8.65a50.55,50.55,0,0,1-14.93,5.32,47.45,47.45,0,0,1-15.86.38,48.32,48.32,0,0,1-15.13-4.83,43.49,43.49,0,0,1-12.63-9.67l-.69-.72c-.22-.25-.42-.52-.62-.78l-1.23-1.58-1.22-1.58-1.1-1.58-.55-.79-.29-.43a4,4,0,0,1-.4-.77,3.9,3.9,0,0,1,.33-3.39,4.05,4.05,0,0,1,2.69-1.89,3.61,3.61,0,0,1,1.73.05l.4.12.26.09.43.16a46,46,0,0,0,7.1,2,47.58,47.58,0,0,0,7.34.76,44.91,44.91,0,0,0,14.56-2.12l1.76-.6c.58-.2,1.14-.46,1.71-.68,1.16-.44,2.25-1,3.36-1.55s2.17-1.17,3.22-1.82,2.06-1.32,3.12-2.08L267,330.91l1.32-.8c.46-.28,1-.56,1.49-.83s1-.46,1.57-.68,1.09-.35,1.63-.51a16,16,0,0,1,6.68-.23A15.4,15.4,0,0,1,290.18,334.93Z" transform="translate(-168.28 -266.96)"/><path class="cls-16" d="M318.67,327a8,8,0,0,0-5.62-10.11h0c-40.28-11.79-83,9.83-95.31,48.28s10.29,79.17,50.58,91l8.11,2.37C298.53,423.82,318.67,372.92,318.67,327Z" transform="translate(-168.28 -266.96)"/><path class="cls-4" d="M319,327.09l0-.27a5.76,5.76,0,0,0,.12-.81,7.68,7.68,0,0,0-.27-3,8,8,0,0,0-2.21-3.54,7.45,7.45,0,0,0-1.94-1.34,8.43,8.43,0,0,0-2.34-.74,90.44,90.44,0,0,0-10.15-1.51c-1.54-.16-3-.19-4.17-.29s-2.2-.07-2.89-.13c-2.74-.17-4.12-.11-4.81-.15l-.69,0a77,77,0,0,0-49.18,18.48,70.12,70.12,0,0,0-24.16,46.26,67.36,67.36,0,0,0,2.72,26.39,70.33,70.33,0,0,0,12.52,23.42,73.81,73.81,0,0,0,20.2,17.29A76.23,76.23,0,0,0,264,452.83c4.15,1.5,8.6,2.68,13,4l-2,.75a292.24,292.24,0,0,0,23.67-46.47L301,405l2.21-6.15c.77-2,1.43-4.11,2.09-6.18s1.38-4.13,2-6.22a259.72,259.72,0,0,0,6.19-25.33,186.2,186.2,0,0,0,5.37-34.09,191.34,191.34,0,0,1-2.1,35.66q-2.54,12.87-6.3,25.44c-2.59,8.34-5.43,16.61-8.74,24.69a295.87,295.87,0,0,1-23.79,46.6l-.69,1.09-1.23-.37c-4.44-1.32-8.92-2.49-13.42-4.13A79.81,79.81,0,0,1,249.67,450a76.29,76.29,0,0,1-21.35-18.62,73.7,73.7,0,0,1-12.95-25.23,71.07,71.07,0,0,1-2.23-28.28,73,73,0,0,1,8.91-26.94,75.19,75.19,0,0,1,18.45-21.56,80.67,80.67,0,0,1,53-17.45,79.66,79.66,0,0,1,16.42,3l2,.62c.67.23,1.3.38,2,.69a9.14,9.14,0,0,1,3.6,2.65,8.66,8.66,0,0,1,1.86,4A8.32,8.32,0,0,1,319,327.09Z" transform="translate(-168.28 -266.96)"/><path class="cls-16" d="M313.82,318.5a4.86,4.86,0,0,0,1.89-1.78,10.55,10.55,0,0,0,.83-7.82,13.49,13.49,0,0,0-1.4-3.56c2.66,2.21,4.94,6.09,6,10.67,1.2,5.06.71,10.18-1.28,13.36A6.56,6.56,0,0,1,317,332Z" transform="translate(-168.28 -266.96)"/><path class="cls-9" d="M317.78,310.11a22.36,22.36,0,0,1,2.43,6.14c1.14,4.8.7,9.63-1.16,12.59a6.29,6.29,0,0,1-1.36,1.58L315,319a6.18,6.18,0,0,0,1.59-1.73,11,11,0,0,0,1.22-7.14m-7.48-7.78a6.5,6.5,0,0,0-1.32.14,3.7,3.7,0,0,1,.66-.07c2.44,0,5,2.83,5.92,6.73,1,4.25-.29,8.16-2.91,8.74l3.66,15.39c5.25-1.15,7.87-9,5.84-17.48-1.86-7.79-7-13.45-11.85-13.45Z" transform="translate(-168.28 -266.96)"/><ellipse class="cls-16" cx="314.48" cy="325.57" rx="4.86" ry="7.91" transform="translate(-237.81 -181.05) rotate(-14.02)"/><path class="cls-16" d="M298,316.2c1.63-4.1-1.31-10.77-7-15.7a19.27,19.27,0,0,0-8.79-4.58,12.18,12.18,0,0,1,2.41-.23c5.59,0,12.75,3.27,19.14,8.76,10.4,8.94,16.07,21.14,13.25,28Z" transform="translate(-168.28 -266.96)"/><path class="cls-9" d="M287.76,297c4.75,1,10.23,3.87,15.26,8.18,9.25,8,14.8,18.88,13.39,25.53l-17.3-14.86c1.28-4.54-1.71-11.12-7.55-16.14a25.63,25.63,0,0,0-3.8-2.71m-3.23-2.34c-3.7,0-6.68,1.34-8.35,4.13a4.56,4.56,0,0,1,4.17-2.07c2.83,0,6.48,1.56,9.9,4.51,5.67,4.87,8.56,11.67,6.46,15.19l20.53,17.64c4.2-7-1.58-20.66-12.92-30.39-6.84-5.89-14.15-9-19.79-9Z" transform="translate(-168.28 -266.96)"/><ellipse class="cls-16" cx="306.98" cy="325.27" rx="7.27" ry="13.61" transform="translate(-308.43 47.76) rotate(-45.31)"/><path class="cls-13" d="M295.19,293.45l3.25-.9a2.77,2.77,0,1,0-1.49-5.34l-.28.08a2.14,2.14,0,0,0-2.27-.72l-1.93.54-1.83-4.26a1.62,1.62,0,0,0,.87-1l3.62-1a2.77,2.77,0,1,0-1.48-5.34l-49.48,13.77a2.77,2.77,0,1,0,1.49,5.34l3.62-1a1.63,1.63,0,0,0,1.26.41l.64,4.58-1.94.54a2.15,2.15,0,0,0-1.57,1.79l-.2.06a2.77,2.77,0,1,0,1.49,5.33l3.16-.88,6,43.82a4.86,4.86,0,0,0,6.25,4.08,4.94,4.94,0,0,0,3.68-5.16l-6.21-45.45,23.55-6.56,18.15,42.13a5,5,0,0,0,5.82,2.53,4.87,4.87,0,0,0,3.25-6.73ZM262,295.59l-1,.29-.63-4.61a1.61,1.61,0,0,0,.78-1l18.61-5.18a1.53,1.53,0,0,0,1.16.42l1.84,4.27-1,.29a2.15,2.15,0,0,0-1.57,1.79l-15.84,4.41A2.12,2.12,0,0,0,262,295.59Z" transform="translate(-168.28 -266.96)"/><path class="cls-1" d="M295.19,293.45l3.25-.9a2.77,2.77,0,1,0-1.49-5.34l-.28.08a2.14,2.14,0,0,0-2.27-.72l-1.93.54-1.83-4.26a1.62,1.62,0,0,0,.87-1l3.62-1a2.77,2.77,0,1,0-1.48-5.34l-49.48,13.77a2.77,2.77,0,1,0,1.49,5.34l3.62-1a1.63,1.63,0,0,0,1.26.41l.64,4.58-1.94.54a2.15,2.15,0,0,0-1.57,1.79l-.2.06a2.77,2.77,0,1,0,1.49,5.33l3.16-.88,6,43.82a4.86,4.86,0,0,0,6.25,4.08,4.94,4.94,0,0,0,3.68-5.16l-6.21-45.45,23.55-6.56,18.15,42.13a5,5,0,0,0,5.82,2.53,4.87,4.87,0,0,0,3.25-6.73ZM262,295.59l-1,.29-.63-4.61a1.61,1.61,0,0,0,.78-1l18.61-5.18a1.53,1.53,0,0,0,1.16.42l1.84,4.27-1,.29a2.15,2.15,0,0,0-1.57,1.79l-15.84,4.41A2.12,2.12,0,0,0,262,295.59Z" transform="translate(-168.28 -266.96)"/><path class="cls-4" d="M261.93,295.41l-1,.57-.08,0-.06-.14a21.8,21.8,0,0,1-1.13-3.08l-.1-.77-.1-.66-.07-.56.49-.26a.77.77,0,0,0,.38-.47l.12-.44.45-.12,18.6-5.24.47-.13.36.34a.73.73,0,0,0,.52.18l.6,0,.25.57,1.85,4.26.4.93-1,.28-.87.24a2.05,2.05,0,0,0-.33.11,1,1,0,0,0-.23.12,1.2,1.2,0,0,0-.53.86l-.07.59-.58.17L266.7,296.6l-2.32.15-.42,0-.07-.19a1.89,1.89,0,0,0-1.93-1.06,2.41,2.41,0,0,1,2.65.5l-.48-.15,2.23-1,13.5-3.8-.62.72a2.94,2.94,0,0,1,1.29-2.09,2.65,2.65,0,0,1,.55-.3,2.8,2.8,0,0,1,.52-.17l.87-.25-.56,1.17-1.85-4.26.84.53a2.49,2.49,0,0,1-1.8-.66l.84.21-18.6,5.23.64-.64a2.49,2.49,0,0,1-1.23,1.52l.49-.94.16,1.17-.1,3.51-.46-.31Z" transform="translate(-168.28 -266.96)"/><path class="cls-4" d="M295.36,293.53l.94-.27c.6-.19,1.48-.41,2.57-.85a2.84,2.84,0,0,0,1.3-1.29,2.58,2.58,0,0,0,.16-2,2.53,2.53,0,0,0-1.41-1.53,2.79,2.79,0,0,0-2.16,0l-.19.07-.16-.19a1.75,1.75,0,0,0-1.69-.56c-.64.18-1.43.44-2.12.66l-.4.12-.19-.41c-.7-1.46-1.37-2.89-2-4.19l-.26-.55.59-.31a.93.93,0,0,0,.47-.59l.07-.36.42-.13,2.76-.85.57-.17.27-.08.18-.07a2.31,2.31,0,0,0,.57-.32,2,2,0,0,0,.77-1.84,1.86,1.86,0,0,0-.44-.94c-.31-.32-.33-.29-.33-.3a2.07,2.07,0,0,0-1.41-.38,2.5,2.5,0,0,0-.38.06l-.49.14-1,.28-4,1.12-8,2.23-16.05,4.48-16,4.47-4,1.11a2,2,0,0,0-1.37,2.3,2,2,0,0,0,2.23,1.44,7.61,7.61,0,0,0,.9-.22l1-.28,2-.56.46-.13.34.32a.73.73,0,0,0,.59.19l.81-.09.12.81.63,4.59.1.73-.71.2-1.09.3-.55.15-.27.08a.67.67,0,0,0-.17.06,1.3,1.3,0,0,0-.81,1l-.07.6-.55.12a2.11,2.11,0,0,0-1.62,1.4,1.84,1.84,0,0,0,.53,1.93,2.1,2.1,0,0,0,2.11.37l3-.83.94-.26.13,1,3.62,26.13,1.81,13.07.45,3.27.22,1.59a3.44,3.44,0,0,0,.44,1.26,3.9,3.9,0,0,0,2,1.73,4.31,4.31,0,0,0,2.68.12,4.1,4.1,0,0,0,3.05-4c0-.19-.05-.49-.08-.76l-.11-.81-.23-1.64-.45-3.26L264.57,329,261,302.84l-.11-.77.76-.21,23.55-6.57.76-.21.32.73,14.66,34,1.84,4.25.91,2.13.46,1.06a7.18,7.18,0,0,0,.45.95,4,4,0,0,0,3.09,1.87,4.28,4.28,0,0,0,3.42-1.33,3.87,3.87,0,0,0,1-3.45,5.87,5.87,0,0,0-.32-.91l-.47-1.08-.93-2.16-3.7-8.67c-3.84-9.88-7.57-19.54-11.41-29,4.47,10,9,19.79,13.46,29.43l3.58,8.28.89,2.07.22.52c.08.21.17.4.24.61a5.42,5.42,0,0,1,.26,1.32,5.69,5.69,0,0,1-2,4.73,6.05,6.05,0,0,1-5,1.28,5.64,5.64,0,0,1-4.07-3.17l-3.63-8.41L284.66,296.5l1,.48-23.55,6.56.61-.94,3.59,26.14,1.79,13.07.45,3.27.22,1.63.12.82c0,.28.08.52.09.88a5.86,5.86,0,0,1-4.32,5.76,6,6,0,0,1-3.8-.17,5.74,5.74,0,0,1-2.89-2.5,5.1,5.1,0,0,1-.63-1.84L257.1,348l-.45-3.26-1.81-13.06-3.61-26.11,1.13.74-3,.83a4.38,4.38,0,0,1-.93.18,4.2,4.2,0,0,1-1-.05,3.79,3.79,0,0,1-1.81-.88,3.61,3.61,0,0,1-1-3.77,3.82,3.82,0,0,1,1.11-1.68,3.67,3.67,0,0,1,.83-.56,4.62,4.62,0,0,1,.89-.32l-.66.76a3,3,0,0,1,1.89-2.43c.11-.05.25-.09.36-.13l.28-.07.54-.15,1.09-.31-.65,1-.64-4.59,1,.78a2.52,2.52,0,0,1-2-.65l.87.21-2.11.59-1,.29-.55.15a4.27,4.27,0,0,1-.7.12,3.8,3.8,0,0,1-2.68-.85,3.58,3.58,0,0,1-1.31-2.53,3.66,3.66,0,0,1,.93-2.68,3.83,3.83,0,0,1,1.12-.88,4.51,4.51,0,0,1,.66-.26l.55-.16,4.21-1.17,16.87-4.7,16.86-4.7,8.44-2.35,2.1-.59.53-.15a5.55,5.55,0,0,1,.71-.13,4,4,0,0,1,1.42.14,3.7,3.7,0,0,1,2.23,1.78,3.59,3.59,0,0,1,.27,2.85,3.86,3.86,0,0,1-1.27,1.75,3.84,3.84,0,0,1-1.43.69l-.4.1-3.22.81.54-.53a2.36,2.36,0,0,1-1.3,1.46l.37-1,1.72,4.3-.74-.35,1.1-.28.55-.14a5.07,5.07,0,0,1,.62-.13,2.68,2.68,0,0,1,2.5,1l-.53-.18a3.77,3.77,0,0,1,1.75-.12,3.24,3.24,0,0,1,1.61.78,3.08,3.08,0,0,1,.88,3.27,3.28,3.28,0,0,1-2.48,2.13C297.35,293.1,296.38,293.3,295.36,293.53Z" transform="translate(-168.28 -266.96)"/><ellipse class="cls-19" cx="263.13" cy="348.9" rx="9.07" ry="8.71" transform="matrix(0.96, -0.27, 0.27, 0.96, -252.17, -183.67)"/><ellipse class="cls-19" cx="308.26" cy="336.35" rx="4.81" ry="4.62" transform="translate(-247.16 -172.03) rotate(-15.55)"/><path class="cls-4" d="M268.16,277.8l-.48.15-.5.12a127.13,127.13,0,0,1-26.89,4,2.82,2.82,0,0,0-2.57,4l1.15,2.31a2.84,2.84,0,0,0,3.32,1.41l26.72-7.43L295.63,275a2.83,2.83,0,0,0,2.11-2.92l-.2-2.58a2.83,2.83,0,0,0-4.27-2.1A126.72,126.72,0,0,1,268.16,277.8Z" transform="translate(-168.28 -266.96)"/><rect class="cls-20" x="266.49" y="284.36" width="9.62" height="12.93" rx="4.47" ry="4.47" transform="translate(-236.31 -183.6) rotate(-15.55)"/><path class="cls-21" d="M259.54,384.51a2,2,0,0,0-2.86.24,25.21,25.21,0,0,0-5.32,11.09A27.73,27.73,0,0,1,250,380.23a2.9,2.9,0,0,0-.25-1.78,3.72,3.72,0,0,0-1.69-2.43,3.51,3.51,0,0,0-4.94,1.35,47.7,47.7,0,0,0-5.61,15.9,51.57,51.57,0,0,1-.68-22.73,5.06,5.06,0,0,0-3.87-5.89,4.83,4.83,0,0,0-5.6,4.07c-3,17.49.37,33,10.13,46a4.67,4.67,0,0,0,4.86,1.8,4.79,4.79,0,0,0,1.9-.95,5.14,5.14,0,0,0,1.81-3.83c0-.14,0-.28,0-.43v-.12a4.11,4.11,0,0,0-.17-1,34,34,0,0,1-1.05-16.94,30.81,30.81,0,0,0,5.53,11.88,2.61,2.61,0,0,0,2.73,1,2.62,2.62,0,0,0,1.84-1.59,1.48,1.48,0,0,0,.12-.29v0a2.71,2.71,0,0,0,.11-.51v-.09a2.84,2.84,0,0,0-.06-.92,19.55,19.55,0,0,1,4.65-15.13A2.21,2.21,0,0,0,259.54,384.51Z" transform="translate(-168.28 -266.96)"/><path class="cls-16" d="M281.12,324.45c.53-5.14-6-11.17-15.5-14.1A33.21,33.21,0,0,0,256,308.8a21.46,21.46,0,0,0-4.51.45c3.49-2.06,8.6-3.23,14.74-3.23a63.4,63.4,0,0,1,18.37,3c17.67,5.46,30.23,16.67,28.84,25.46Z" transform="translate(-168.28 -266.96)"/><path class="cls-9" d="M266.23,307a62.55,62.55,0,0,1,18.08,2.91c16.12,5,28.25,15.15,28.23,23.18l-30.39-9.38c-.08-5.47-6.59-11.36-16.23-14.34a35.39,35.39,0,0,0-8-1.52,38.23,38.23,0,0,1,8.32-.85m0-2c-10.63,0-18.7,3.4-20.47,9.56.89-3.08,4.92-4.78,10.24-4.78a32.25,32.25,0,0,1,9.33,1.5c9.45,2.92,16,9.12,14.64,13.85l34.21,10.56c2.72-9.46-10.39-21.86-29.28-27.69a64.23,64.23,0,0,0-18.67-3Z" transform="translate(-168.28 -266.96)"/><ellipse class="cls-16" cx="297.08" cy="330.43" rx="8.91" ry="17.9" transform="translate(-275.74 247.28) rotate(-72.48)"/><path class="cls-16" d="M243.12,351.59c2.56-12.8,13.54-25.08,28.32-30.16a41.11,41.11,0,0,1,13.29-2.29c13.59,0,24,7.31,26.83,18.72l-33.43,11.46c-1.78-6-7.43-9.88-14.71-9.88a21.88,21.88,0,0,0-7.13,1.23A24,24,0,0,0,243.12,351.59Z" transform="translate(-168.28 -266.96)"/><path class="cls-9" d="M284.73,320.14c12.76,0,22.62,6.64,25.63,17.07l-31.61,10.84c-2.22-5.83-8.11-9.61-15.33-9.61a23,23,0,0,0-7.45,1.28,25.35,25.35,0,0,0-10.28,6.66c4.09-10.4,13.73-19.76,26.08-24a39.9,39.9,0,0,1,13-2.24m0-2a41.88,41.88,0,0,0-13.61,2.35c-19.5,6.69-32.49,25.6-29,42.24-1.75-8.32,4.75-17.77,14.5-21.12a20.88,20.88,0,0,1,6.8-1.17c7,0,12.68,3.85,14,10.18l35.31-12.11c-2.65-12.67-14.09-20.37-28-20.37Z" transform="translate(-168.28 -266.96)"/><ellipse class="cls-16" cx="295.08" cy="344.57" rx="18.94" ry="15.05" transform="translate(-306.01 -58.32) rotate(-31.99)"/><path class="cls-9" d="M201.62,406.05a52.38,52.38,0,0,0,2.86,10.34c.32.83.64,1.66,1,2.47s.69,1.63,1.11,2.41.77,1.6,1.2,2.37l1.33,2.31c.44.77.94,1.5,1.41,2.25l.72,1.12.79,1.07,1.56,2.17c.57.68,1.13,1.37,1.69,2.06l.84,1.05.9,1,1.8,2c1.22,1.32,2.55,2.53,3.78,3.89-1.51-1-3-2-4.44-3.17A48.69,48.69,0,0,1,207.41,427,44.52,44.52,0,0,1,203,416.89,31.22,31.22,0,0,1,201.62,406.05Z" transform="translate(-168.28 -266.96)"/><path class="cls-9" d="M198.12,417.55c1.91,3.8,3.68,7.52,5.7,11.11l.74,1.35.8,1.31c.51.9,1.09,1.74,1.63,2.62,1.12,1.74,2.37,3.37,3.63,5.11a21.06,21.06,0,0,1-4.87-4.16,31.42,31.42,0,0,1-3.68-5.26,35.86,35.86,0,0,1-2.58-5.85A25.52,25.52,0,0,1,198.12,417.55Z" transform="translate(-168.28 -266.96)"/><rect class="cls-9" x="159.07" y="62.65" width="4.25" height="51.02" rx="2.13" ry="2.13"/><rect class="cls-9" x="167.22" y="65.49" width="3.97" height="39.69" rx="1.98" ry="1.98"/><rect class="cls-9" x="175.2" y="65.49" width="4" height="45.35" rx="2" ry="2"/></g></g></g></svg>